<svg xmlns="http://www.w3.org/2000/svg" width="602" height="383" viewBox="0 0 601.171 382.516"><defs><clipPath id="A"><path d="M24.56 296.15h450.88V66.89H24.56z"/></clipPath></defs><g transform="matrix(1.333333 0 0 -1.333333 -32.747333 468.45039)"><g clip-path="url(#A)" opacity=".3" fill="#23dbc0"><path d="M102.484 170.373c-1.225.398-4.796 7.168-4.977 8.744-.374 3.254 2.15 5.47 2.197 8.736-1.887.26-3.95.122-5.892.243-.733 3.02-.296 5.834-3.32 6.845-3.188 1.063-3.143-1.935-6.46-1.38-4.603.776-2.85 10.508-2.698 14.228 4.716-.958 5.644 4.96 9.622 5.615 2.567.424 3.68-2.2 6.006-2.345 2.058-.124 5.48 2.394 7.277 3.205 1.12-1.905 1.158-4.063 1.94-5.942.92-2.214 2.72-2.768 2.813-5.544-.018 3.4 1.327 7.546 2.823 11.472 4.3 1.1 7.863 4.016 9.168 7.947.746 2.244-.236 3.2 1.227 5.27 1.043 1.468 3.44 2.193 4.762 3.55 4.118 4.225 3.82 4.323 9.686 4.96 3.483.378 6.252 1.53 9.1 3.748-2.102-.034-8.312-.625-9.165 1.445-1.506 3.656 4.33 5.605 6.502 5.902 7.1.97 10.194-.574 15.76 4.625-2.136 1.062-6.377 1.117-7.5 3.083-1.106 1.953.1 5.668-1.047 7.918-5.355-1.754-3.44 1.367-7.202 3.3-3.297 1.7-7.9-1.338-8.784-3.916-1.525-4.455 1.353-6.42-2.424-10.44-2.8-2.98-7.383-5.652-11.093-7.302-1.728 3.242-1.4 5.565-3.208 8.14-1.26 1.797-2.268 1.003-3.114 3.35-.683 1.9-.04 5.27.06 7.286 4.524 1.608 10.13 4.483 13.802 7.384 2.318 1.832 3.652 2.96 6.324 3.78 2.722.834 5.062-.56 6.525 2.7l-.8.16c-.673 5.485 9.214.998 10.542-2.527.36-.954.724-1.948.45-3.088-.26-1.1-2.2-2.223-2.212-2.297-.062-3.373 3.216-3.4 6.446-4.713.93 1.978-.52 3.316-2.36 4.14 1.85.304 3.188 1.484 3.133 3.263-1.454.15-1.715 1.033-2.813 1.566.854.404 1.636 1.537 2.803 1.8.2 2.096.267 4.3-.462 6.3-3.914.222-5.616.552-8.775 1.8-4.532 1.792-5.775-.103-10.472.044-.113-1.873-.205-3.785.414-5.467l-.46-.46c-2.444-4.795-4.773 2.347-7.286 2.733.24-1.802 1.033-3.2 1.127-4.97-4.9.345-8.204-2.76-13.22-2.4-3.943.283-9.26.53-13.014 1.306-4.296.887-6.033 2.184-10.5 1.948-3.14-.166-6.462-.2-9.6-.024-1.618.098-2.513 1.024-4.154.848-1.288-.137-1.323-1.753-2.4-1.78-4.606-.12-5.972 4.168-10.656 4.657-1.985.207-3.14-.743-4.96-.932-5.272-.546-11.506 1.683-16.532.458-4.72-1.15-6.16-6.043-10.78-8.777-4.425-2.617-8.827-5.088-10.122-10.422 8.64-3.14 9.736.076 18.606 1.958 4.04.857 12.333-1.882 15.33-4.98 1.985-2.05 1.995-9.978.68-12.884-1-2.235-5.28-3.727-6.843-6.05-2.273-3.383-1.832-4.088-.142-7.56-2.413-.724-5.62-5.33-6.365-7.482 2.176-.76 4.912-1.463 6.882-2.746 3.305-2.15 2.8-3.033 2.756-7.598C55.4 207.4 54.27 199.56 60.403 197c-1.9 3.732-1.024 10.616-.692 14.907 1.982-6.077 6.443-5.503 6.252-12-.2-6.818 3.333-9.926 9.56-12.375 5.264-2.07 11.516-.676 16.825-3.752 4.068-2.357 3.017-4.38 4.132-8.187.816-2.8 3.026-6.746 6.005-5.22m106.17 108.534c-.516 2.602-4.042 4.14.576 5.776 1.872.663 3.5.2 5.37.63 2 .462 1.186.323 1.678 2.087.42 1.512-.04 1.74 1.644 2.768.68.415 1.3.32 2.065.888.843.636 1.114 1.52 2.044 1.867l-1.153.692c-.9-.001-2.142-.217-3.006.04-1.24.37-1.787 1.294-3.222 1.342-1.098.036-2.288-.375-3.435-.46-2.5-.188-4.688.565-7.024.413-2.28-.148-4.287-1.558-6.606-1.796-2.1-.217-4.372-.616-6.5-.462-1.47.108-2.67.533-4.13.697-1.728.195-3.093-.67-4.745-.707-3.38-.078-6.322 3.53-9.803 3.48-2.4-.035-4.593-1.625-7.1-1.18-1.47.263-2.15 1.085-3.725.944-2.284-.203-4.058-2.526-6.13-3.17-1.325-.412-2.773.173-4.07-.322-1.585-.605-2.5-1.982-4.374-2.276-.925-.146-1.983.01-2.913-.036-.3-3.286 7.318-2.26 9.253-2.047 1.9.2 3.372 1.198 4.942 1.67 1.92.58 3.862.175 6 .18 2.375.005 3.274 1.38 5.358 1.845.986.22 5.424.2 5.984-.744 1.156-1.93-2.53-2.142-3.666-2.254-1.8-.18-2.825-.163-4.043-1.62 1.514-1.504 4.674-.182 6.4-1.37 1.78-1.222.037-5.934 3.143-5.806-.012-2.572-.1-3.445-2.075-4.12-2.127-.722-3.1.225-3.194-2.756-.13-4.156 4.063-3.154 5.085-6.515.556-1.825.767-7.127 4.152-3.694.923.937.428 2.192 1.614 3.295 1.25 1.164 3.405 1.23 4.738 2.28 1.407 1.107 1.648 2.3 3.592 2.958 1.442.487 2.825.392 4.055 1.04 1.397.734 2.224 2.218 3.76 2.714 1.068.344 2.466-.023 3.58.27 1.966.52 6.33 1.103 5.862 3.46m-37.98-127.528c-2.784 1.1-5.895.414-7.6 2.877-.583.84-.974 3.518-1.892 3.787-.294.086-2.426-.902-3.003-1.006-2.3-.418-5.598-1.83-7.817-1.303-.374 3.23.348 6.737.16 10.083-1.233.076-2.886-.293-4.07.037-2.098.58-1.88 2.488-3.632 3.65-1.213.807-2.902.533-4.42 1.3-1.654.824-2.9 2.64-4.448 3.416-1.813.908-3.742 1.586-5.65 2.826-1.96 1.272-3.92 1.72-6.342 2.194h-1.383c-1.587-1.448-.2-2.545.28-3.745.388-.945 1.475-4.154-.92-4.107-1.868.033-.537 2.3-1.008 3.48-.227.568-1.303 1.054-1.552 1.648-.264.63-.038 1.8-.115 2.457a16.36 16.36 0 0 1-2.364.006c-.112-4.252-3.044-4.28-6.737-4.848-.402-1.62.918-1.7 1.145-2.78.458-2.176-1.508-2.582-2.07-4.18-.54-1.533.508-1.367.656-2.924.216-2.263-1.804-3.043-3.44-4.2-1.746-1.234-3.6-2.367-4.353-4.562-.945-2.754.124-2.948 2.04-4.158 3.14-1.983 1.675-4.64 1.87-8.026.697-.262 1.263-.625 2-.77.354-1.516 1.863-2.184 2.683-3.244 1.115-1.444 1.675-3.3 1.998-5.4 2.453-.267 8.676 1.395 9.65-.137.803-1.26-.5-2.875-.188-3.918.643-2.2 3.386-1.306 5.46-1.722-.82-1.27-1.815-2.05-3.395-1.946-.35-2.113 1.13-3.058 1.494-4.87-.96-.486-3.95-2.46-4.16-3.37-.45-1.95 2.9-3.345 2.315-5.7-3.863-.322-2.082-4.402-2.213-6.715 1.53-.863 3.263-1.138 4.818-1.955l.255-6.86c.068-1.428-.714-5.072.07-6.246.363-.543 1.6-.276 2.038-.86.274-.367.103-.773.37-1.203.634-1.02-.001-1.172.968-2.064.9-.828 1.637-.158 2.085-1.397.24-.664-.234-2.443-.493-3.048-.578-1.354-2.83-3.35-2.087-5.016.3-.67 2.36-1.7 3-2.262.9-.767 1.823-1.703 2.552-2.623 1.473-1.865 2.6-5.088 5.62-5.054 3.296.033 3.1 3.6 3.368 5.976-1.577-.266-1.515.424-2.367.95-1.817 1.13-2.16 1.584-4.74 1.657-.525 2.12 2.976 3.353 3.697 4.97 1.704 3.82-3.058 1.692-4.6 4.63 2.104 1.992 3.77.617 6.253.512 5.118-.213.22 2.726.68 5.22 2.928.228 7.95 2.267 7.315 6.046-3.563.2-6.673-1.443-6.4 2.997 3.066.144 5.245-1.604 8.098-.245 3.5 1.666 4.844 6.953 6.407 10.254 1.106 2.334 1.694 7.358 4.337 8.373 2.768 1.063 6.436-1.1 9.044.754-.915 2.547-2.85 4.54-2.54 7.418.314 2.928 2.148 5.3 2.77 8.074.513 2.3.98 3.737 2.184 5.76.805 1.358 2.47 4.22 2.676 5.72.346 2.508-2.393 4.646-4.338 5.412m129.967 32.495c-1.55 1.527-4.185 2.734-5.998 4.54-3.344 3.328-4.797 7.094-6.748 11.063-1.856 3.77-3.418 5.42-3.268 9.9 1.858-.383 3.2-3.632 4.222-5.202 1.3-1.963 2.978-3.557 4.272-5.46.8-1.156.957-2.9 1.92-3.94.718-.78 1.902-.936 2.573-1.657 1.944-2.088 2.127-4.134 2.666-6.86.14-.707.238-1.54.372-2.385m90.37-4.578c.923-2.556-1.708-5.408-1.2-8 .807 3.656 1.572 6.736 2.75 10.4 3.287.855 3.304-3.032 4.243-4.903 1.415-2.824 3.642-3.8 6.583-4.603 1.987 2.992 5.6 4.982 5.726 8.593.107 3.307-4.3 3.418-6 6.4-1.168 2.072-4.404 8.236-.783 9.525 2.6.92 5.62-4.3 6.143-6.593.8 1.427 1.05 3.28 1.898 4.634 1.38 2.198 2.123 1.643 3.88 2.85 1.926 1.326 5.33 3.625 6.55 5.73 1.535 2.643.777 2.553-1.264 4.53-3.88 3.754-3.53 5.26-2.747 10.623.178 1.228 1.063 4.38.2 5.402-1.897 2.27-3.4-1-4.843-1.285-2.874-.553-2.823 2.924-.575 5 1.983 1.832 4.25.457 6.73-1.035 2.072-1.244 12.74-10.278 14.214-6.098-3.028 1.676-7.273 2.406-8.048 6.12-1.22 5.838 3.6 4.2 6.473 6.106 3.86 2.56 2.205 14.3-.998 17.58-2.907 2.968-5.652.06-9.112 1.54-1.144.5-2.816 2.322-3.134 3.383-.802 2.67.46 2.324 1.836 3.1.5.273 1.57.058 2.17.3.796.325 1.294 1.2 2.006 1.56 1.792.904 2.23 1.002 4.144.292 3.043-1.128 5.98-4.153 8.008.272.475 1.037.12 3.115.4 4.295 2.764-.045 5.37 1.338 8.14.922.1-2.32-.14-2.9-1.122-4.703-.523-.963-2.87-3.46-2.857-4.46.03-2.488 7.267-6.656 9.338-8.325 3.9-3.15 4.488.85 3.298 4.388-.686 2.037-1.065 2.045-2.53 3.248-1.8 1.482-4.107 1.974-3.272 4.93 2.4-.268 5.497.64 8.112.663 3.47.03 4.848.953 5.33 4.565-2.347-.367-3.744 1.447-3.303 3.7 2.234.375 5.602-1.9 7.347-1.18 3.876 1.596-2.262 3.52-3.996 3.687-6.533.628-13.165-.138-19.073 2.843-3.17 1.597-5.772 1.5-9.2.847-1.447-.28-3.485-1-4.76-.642-1.14.33-1.745 1.746-2.927 2.123-.874.28-1.903-.063-2.8.05-3.672.462-7.05.343-10.874.383-1.227.01-2.788.314-3.857.307-2.12-.013-4.324-1.183-6.794-1.966-1.363 2.555-5.88 6.426-9.043 5.917-2.456-.395-2.926-3.36-4.558-3.895-.926-.303-.637-.035-1.754.001-.644.02-.735 1.1-1.296 1.217-.828.155-1.4-.494-1.794-.445-2.777.348-6.672 1.8-9.576 1.56-3.64-.3-4.708-2.163-8.546-1.248-2.628.627-4.893 2.115-7.388 2.86 1.796.522 5.15 1.074 6.125 2.722-2.916.852-7.284 1.95-10.37 1.826-3.3-.133-6.452-4.116-9.265-3.743-1.932.255-2.7 1.763-5.015 1.594-2.74-.2-5.033-.93-7.92-.93-3.12-.001-6.917.24-7.04-3.877 2.674-.95 2.48-2.533 2.383-4.996-2.084-1.128-5.293-1.35-6.35 1.185-1.217 2.913 1.196 4.704-2.884 5.542-1.535.316-8.097.513-7.9-1.17.37-3.138 7.028-1.22 5.75-5.55-3.027-1.356-4.4-1.076-7.028.56-1.75 1.1-1.215 1.385-3.28 1.845-2.447.546-5.394-.05-7.743-.667-.68-1.973-3.263-2.208-4.906-3.195-1.635-.982-2.704-2.162-4.1-3.557-1.552-1.562-3.733-4.367-6.1-3.297-1.583.715-2.486 3.932-2.106 5.442 1.583.02 2.566-1.17 3.58.2 1.558 2.082-1.062 3.492-2.727 3.878-1.9.438-3.257-.433-5.162-.35-2.915.127-5.5 1.997-8.592 2.174-5.7.325-12.187-1.974-17.164-4.562-1.526-.793-9.012-7.637-8.778-8.968.287-1.626 3.06-1.516 4.06-2.147 1.16-.73 1.957-2.573 3.617-3.173 2.443-.884 6.314-1.642 9.03-1.753 6.4-.265 1.662 3.45 1.17 6.148-.092.513.138 3.424.386 3.93 1.106 2.258 1.608 1.394 3.527 2.2 1.6.668 2.955 2.543 4.427.66 1.092-1.396-.727-4.926-1.22-6.187 1.22-1.35 11.33-.215 6.496-4.058-.032-.024-.067-.045-.102-.066l-3.175-.404c-.178-.015-.353-.037-.52-.064-.04-.008-.047-.008 0 0a3.57 3.57 0 0 1-1.506 0c-2.455-.523-3.314-4.084-4.904-5.85-3.077-3.413-4.6-.986-8.342-1.23-2.005-.13-4.055-1.295-6.127-1.838-2.834-.742-8.16-1.7-10.262-3.927-1-1.058-.874-2.375-1.787-3.33-1.135-1.186-3.42-.38-2.688-3.242.84-.06 1.578-.817 2.388-.922.34-1.486-1.323-6.3-2.72-7.073-2.66-1.475-5.092 2.288-6.754 3.42-.564-.8-1.768-2.1-1.96-3.072-.195-.994.73-1.34.726-2.546-.006-2.227-.593-4.512-3.033-5.196a.95.95 0 0 1-.093-.574c3.6-2.576 7.294-1.055 10.874.56 4.458 2.007 4.332 10.344 10.103 8.48-.276 6.96 6.435.38 7.98-.733 1.514-1.1 2.98-1.233 4.288-2.88.722-.9.328-1.987.895-2.723.427-.557 1.586-1.006 2.145-1.685-.93 3.8-.883 5.544-3.104 8.835-1.738 2.574-2.037 7.085 2.54 3.867 1.784-1.254 4.576-5.206 5.305-7.16 1.156-3.104.633-7.618 5.292-7.106-3.402 3.738 2.343 5.25 5.032 5.123.312-2.135.013-4.738 1.656-5.787 1.546-.986 5.8-.508 7.58-.34 1.616.154 4.004 1.5 5.648.953 1.87-.632.802-.326 1.446-1.85.728-1.727.285-3.93-.292-5.535l.308 1.23c-5.85-2.723-18.492-8.873-19.474 1.815-2.622.73-6.057-3.108-2.985-4.35-1.86-1.848-7.895-1.994-10.46-1.125-1.176.4-5.885 2.588-6.066 3.967-.222 1.683 2.157 2.77 2.35 4.576-2.676-.483-2.57 2.928-4.956 2.572-1.05-.156-1.34-1.596-2.3-1.943-1.327-.48-3.524.207-4.816.33-3.218.308-7.153 1.144-10.07-.63-.947-.576-1.388-1.666-2.48-2.2-1.775-.885-4.308.147-5.567-1.77-.665-1.014.088-2.52-.212-3.624-.46-1.7-.87-1.267-1.7-2.796-.73-1.362-.778-3.47-1.516-4.66-1.5-2.43-4.395-3.3-6.643-4.844-1.4-.955-4.972-3.532-4.624-5.594.278-1.647 2.208-.8 2.13-3.018-.052-1.45-3.468-3.58-4.195-4.68 1.547-.37 1.943-1.205 2.638-1.836-.183.166-.066-1.15.04-1.313.282-.44 1.402-.4 1.497-.588 1.602-3.16.548-6.472 2.445-9.416 3.036-4.713 8.728-8.906 14.562-9.328 6.063-.435 8.087 6.055 13.875 5.26 2.206-.3 6.704-1.772 7.593-4.227.918-2.533-2.873-6.45-3.994-8.68 1.073-.897 2.458-1.584 3.627-2.17-2.728-.926-5.33-2.38-3.02-4.662 2.287-2.264 4.336-.526 3.83-4.748 3.793.07 7.256-1.995 7.496-5.955.162-2.676.43-1.416-1.515-3.606-1.513-1.705-1.856-1.426-2.16-4.1-.258-2.275-.32-1.67.477-4.332.605-2.02.425-2.412 1.508-4.03 1.242-1.857 1.755-2.106 2.4-4.47.48-1.78.165-4.05 2.753-4.445-.555-4.088 3.5-7.205 4.013-11 .283-2.098-1.272-5.473-.32-7.38 1-2.023 4.448-2.172 6.177-.877 2 1.496 1.467 3.8 4.5 4.574 1.882.48 2.382-.396 3.486.907.723.857.4 2.332 1.608 3.55 1.732 1.727 4.198 1.842 6.305 3.14 3.445 2.12 3.34 4.232 4.682 7.78-1.16.7-2.934 4-2.473 5.52.817 2.674 6.606 4.98 8.548 6.4 3.857 2.826 1.302 3.82.316 7-1.036 3.336.748 6.094 2.602 8.776-1.288.148-2.2 1.28-3.45 1.525-1.763.338-4.696-.867-5.625 1.44-.466 1.154 1.086 3.984 2.464 4.166 1.518.197 1.88-1.057 3.145-1.922 1.537 1.972 2.418 3.713 4.373 5.203 1.06.8 2.33.896 3.338 1.916 1.53 1.547 1.913 3.465 3.015 5.338 1.957 3.33 5.253 3.965 8.016 6.605 2.242 2.143 1.984 4.36 1.835 7.344-4.274.684-8.377-2.508-11.727 1.816a4.89 4.89 0 0 0-.379.569 3.31 3.31 0 0 1 .778-.207c2.616-.377 4.867 3.152 7.16 4.297 2.775 1.386 6.068 1.476 8.554 3.5 1.358 1.114 1.302 2.43 2.08 3.506 1.544 2.135 4.152 3.215 5.952 5.274-.477.716-1.3 1.884-2.147 2.336s-2.446-.024-3.156.433c-1.914 1.236-1.74 4.2-2.208 6.44-3.052.048-3.057-4.23-5.22-4.825-2.63-.724-3.515 4.844-4.476 6.657-1.26 2.376-3.67 4.622-1.712 7.14.064.082.14.153.224.213l1.648.38c-.002-.014-.005-.025-.006-.037-.953-7.517 5.956-6.988 11.48-7.03.517-2.456.5-6.036 2.64-7.077 3.5-1.692 7.396 2.816 10.624 1.72 1.672-.566 3.3-3.008 4.668-4.15 3.362-2.803 5.17-2.033 9.923-1.268.368-3.3-.555-7.345.697-10.447 1.14-2.82 3.65-5.063 4.644-7.988 1.137-3.352 3.944-8.998 4.6-1.514.432 4.838-2.92 7.13.513 11.744 2.117 2.844 5.275 6.53 7.92 8.858 3.523 3.103 7.83-1.948 11.32-4.254 3.922-2.592 5.922-4.9 7.9-8.916.83-1.684 2.848-3.086 3.4-4.645m-87.673-50.55c-3.183-2.72-.552-2.104-.355-5.46.2-3.258-3.48-3.562-4.644-6.127.997-2.303 4.15-1.6 6.165-1.545 1 2.08 3.1 2.9 4.366 4.676 1.1 1.55 2.235 4.012 2.86 5.816.945 2.73-.665 5.508-.413 7.96-.873-.588-1.273-.572-2.47-1.172-2.06-1.035-3.783-2.67-5.5-4.148"/><path d="M311.327 134.053l.406.3c.894.678 1.033 1.662 2.076 2.145l-1.843-.616a3.93 3.93 0 0 1-.64-1.82m159.624-22.398c-.597 1.805-.685 3.02-1.562 4.92-.404.88-.617 3.492-1.298 4.184-1.066 1.082-2.818-.04-3.843 1.652-.798 1.316-.167 5.887-.303 7.195-.224 2.174.07 5.342-.975 7.244-1.67-.162-3.3.3-4.936.56h-.614c3.468-1.322.86-8.475-2.156-9.48-7.42-2.47-5.575 7.213-4.642 10.657-3.724.677-3.373-1.364-5.57-2.952-.837-.605-2.48-.23-3.25-1.36-.742-1.084.075-2.443-.918-3.693-2.343-2.95-5.32-1.176-6.834 1.287-.408.662.105 2.7-1.23 2.506-1-.14-.613-3.813-1.156-4.674-1.753-2.777-6.735-3.85-9.163-6.15-.874-.83-1.603-2.165-2.666-2.676-1.32-.635-3.095.004-4.4-1.035-2.724-2.188-2.57-6.04-2.3-8.87.492-5.15-2.45-9.544-2.13-14.703 5.193-1.992 7.812 5.053 12.552 6.625 4.237 1.407 9.944 2.004 14.445 1.9-.553-2.268-.364-5.72 2.56-5.762 2.216-.03 3.297 3.3 6.035 2.68.23-3.098 0-6.768-1.382-9.602 1.96-.9 3.315-.623 5.412-.513.875.044 2.955-.45 3.698-.038.86.483.72 1.354 1.345 1.913l1.74 1.566c3.67 3.205 9.73 3.394 8.87 9.668-.38.068-.863.2-1.265.234 1.36 2.04 7.964.397 8.392 3.84-2.432-.295-1.97 1.38-2.467 2.88m-60.237 40.445c1.546-1.418 4.77-1.008 6.636-1.008 2.4 0 4.044.797 4.412 3.545.2 1.488-.574 2.568.915 3.72s2.713.78 1.342 3.05c-.635 1.047-1.962 2.2-1.234 3.7.884 1.822 2.403.246 3.74.736l.615.613c-1.38-.54-3.593-.164-4.475 1.266-.77 1.252-.42 2.12-2.42 1.8.197-2.996-5.23-2.365-6.558-4.285-.72-1.04-.464-2.36-1.12-3.42-.985-1.596-2.464-.97-4.002-1.518-.238-.64-1.463-1.687-1.1-2.445.338-.688 1.688-.637 2.14-1.537.743-1.475-.188-3.037 1.097-4.217m-5.097-5.338c.06 1.742.524 1.848-.713 3.23-.905 1.012-2.327 2.22-2.802 3.715-.67 2.1-.424 2.916-2.477 4.16-1.526.922-1.724 1.458-2.897 2.88-.873 1.055-1.947 1.676-3.07 2.502-.992.73-1.458 1.592-2.188 2.606-.973 1.345-1.38 1.222-3.075 1.228l-.768 1.23c-.693-1.23 2.168-5.227 2.706-6.6 1.056-2.716 2.897-4.377 4.485-6.796.662-1.008 1.176-2.182 1.85-3.24.882-1.384 2.017-1.93 3.412-2.722 2.413-1.37 2.247-6.668 5.98-6.13-.075 1.304-.5 2.637-.445 3.95m13.8-5.37c1.848.2 11.974-.44 11.717 2.74-3.123.342-5.3 1.68-8.457 1.87-4.33.262-7.2-3.527-11.83-1.843l-.616.306c-1.6-1.37 1.977-3.232 3.06-3.38 2.045-.28 4.228.108 6.125.307m16.804 21.982c-.592 1.592-1.94 2.1-3.73 1.852-.815-.12-1.442-.514-2.293-.473-1.082.05-1.9.78-3.053.627l-.154-.154c1.585-1.752 3.674-1.77 5.98-2.026-.348-.7-1.076-.326-1.83-.435-1.15-.17-1.885-.63-2.698-1.487 1.17-.14 2.54-.004 3.765-.078-.87-1.3-2.527-1.553-2.924-3.36-.242-1.106-.02-2.664.036-3.785.8.287 1.695.836 2.13 1.597.567 1 .082 1.793 1.4 2.356 2.3.988 3.28-1.7 3.246-3.502.782 1.252-.287 4.156-.025 5.806.182 1.16.6 1.893.157 3.06m37.83-22.452c-1.32 1.248-2.16 1.64-3.12 3.275-.775 1.315-1.608 2.8-2.773 3.784-1.1.918-2.72 1.414-3.063 2.92-1.118.408-2.182 1.123-3.326 1.414-.976.246-2.593.154-3.43.757-.86.62-1.058 2.385-2.292 2.47-1.124.078-1.816-1.508-2.877-1.93-2.468-.984-3.857 1.963-5.187 3.47-1.54 1.742-2.6 1.088-4.283.45-.196-.027-.708-.207-1.006-.172-.04-.793-.04-1.62 0-2.414.864-.048 2.43.34 3.2-.01 1.065-.487.722-1.096.8-2.14 1.347.1 1.55-1.35 2.43-2.05.713-.568 2.648-1.556 3.527-1.812-.783-2.258-1.3-4.338.94-6.162s6.117-1.002 8.63-.762c1.913.185 3.916.008 5.84-.002 1.48-.008 1.182.2 2.13-1.145.6-.87 1.546-2.744 2.617-3.146.64-.238 1.9-.025 2.595.012.266 1.367-.46 2.357-1.345 3.195"/></g><path d="M230.532 278.2c0-.928-.75-1.684-1.684-1.684h-3.783c-.93 0-1.684.756-1.684 1.684v15.285a1.68 1.68 0 0 0 1.684 1.682h3.783a1.68 1.68 0 0 0 1.684-1.682zm0-22.46a1.68 1.68 0 0 0-1.684-1.683h-3.783c-.93 0-1.684.755-1.684 1.683v15.286c0 .928.753 1.683 1.684 1.683h3.783c.933 0 1.684-.755 1.684-1.683zm-150.007 4.963a2.56 2.56 0 0 0-2.558-2.559h-5.76a2.56 2.56 0 0 0-2.56 2.559v23.254a2.56 2.56 0 0 0 2.56 2.559h5.76a2.56 2.56 0 0 0 2.558-2.559z" fill="#e8e8e8"/><path d="M226.954 75.1c0-5.602-4.533-10.14-10.132-10.14H84.134A10.14 10.14 0 0 0 73.999 75.09v265.6a10.14 10.14 0 0 0 10.135 10.138h132.688c5.6 0 10.132-4.538 10.132-10.138z" fill="#fff" stroke="#e8e8e8"/><path d="M79.57 70.094v265.61a10.14 10.14 0 0 0 10.135 10.135h132.69a10.06 10.06 0 0 0 3.493-.631c-1.66 3.333-5.088 5.63-9.066 5.63H84.133A10.14 10.14 0 0 1 73.999 340.7V75.1c0-4.367 2.77-8.08 6.64-9.504-.675 1.36-1.07 2.883-1.07 4.508" fill="#e8e8e8"/><path d="M216.943 99.586H84.015v230.547h132.928z" fill="#474747"/><path d="M215.982 330.133v-229.5H84.015v-1.057h132.928v230.547z" fill="#2b2b2b"/><path d="M215.552 340.48a3.59 3.59 0 0 0-3.591-3.589c-1.98 0-3.6 1.608-3.6 3.6a3.59 3.59 0 1 0 7.181 0m-9.005.001a1.45 1.45 0 0 0-1.448-1.453c-.803 0-1.455.65-1.455 1.453s.652 1.453 1.455 1.453a1.45 1.45 0 0 0 1.448-1.453" fill="#5b5b5b"/><path d="M163.147 74.256H137.81c-4.1 0-7.435 3.332-7.435 7.434a7.45 7.45 0 0 0 7.435 7.435h25.336a7.45 7.45 0 0 0 7.437-7.435c0-4.102-3.337-7.434-7.437-7.434" fill="#cecece"/><path d="M167.683 338.368c0-1.96-1.6-3.552-3.552-3.552h-28.084c-1.962 0-3.552 1.59-3.552 3.552s1.6 3.552 3.552 3.552h28.084c1.962 0 3.552-1.59 3.552-3.552" fill="#e5e5e5"/><path d="M405.033 239.432l-.908 1.78 20.068 10.236.908-1.78zm1.267-7.67l-.512 1.935 22.3 5.896.512-1.934zm-.8-8.487l-.104 1.998 24.25 1.268.103-1.998zm9.44-42.476l-17.404 14.305 1.27 1.545 17.405-14.305zm7.085 10.073l-20.527 10.545.914 1.78 20.527-10.545zm5.41 11.927l-23.4 6.44.53 1.928 23.4-6.44zm2.67 10.2l-24.8 3.1.25 1.985 24.8-3.112z" fill="#eaeaea"/><path d="M159.718 99.586c4 6.488 12.497 16.363 12.497 16.363s2.5-1.832 4.5-2c.102-2.636 1.067-9.44 1.808-14.363h17.697c.143 8.375.79 23.475 3.607 25.447-.576 4.5-31.612 25.418-31.612 25.418s-14.69-13.42-26.434-50.865z" fill="#1780af"/><path d="M171.087 148.488l-2.873 1.963s-14.7-13.42-26.434-50.865h4.042c10.06 31.474 22.1 45.6 25.265 48.902m9.293-35.705c-.303 4.887 4.354 14.803 4.354 14.803s-6.5-5.334-8.02-13.637c.102-2.637 1.068-9.44 1.808-14.363h3.493c-.7 4.78-1.54 10.76-1.634 13.197" fill="#057096"/><path d="M331.56 233.988s49.75-9.167 67 7.168c7.75-11.92.75-38.25-6.25-42.418-5.332 16.667-43.002 23.485-62.002 23.485-.75 5.75 1.252 11.765 1.252 11.765" fill="#f7f7f7"/><path d="M394.824 205.537c-7.89 17.688-45.516 21.062-64.516 21.062-.027.207-.043.416-.062.625-.137-1.584-.158-3.3.062-5 19 0 56.67-6.82 62.002-23.486 3.12 1.858 6.233 8.113 8.047 15.53-1.4-4.195-3.344-7.428-5.533-8.73" fill="#d1d1d1"/><path d="M398.56 241.156c-1.07-1.016-2.27-1.932-3.572-2.758 4.406-10.608.707-28.198-4.393-36.125.73-1.127 1.32-2.3 1.715-3.535 7 4.168 14 30.5 6.25 42.418" fill="#1780af"/><path d="M330.23 223.226l-3.354.275.833 10.187 3.353-.275z" fill="#1e576b"/><path d="M332.04 222.47c-.1-1.1-1.057-1.918-2.156-1.826s-1.916 1.058-1.824 2.156l.92 11.036c.092 1.1 1.057 1.916 2.157 1.824s1.916-1.056 1.824-2.156z" fill="#1780af"/><g fill="#efbe8e"><path d="M335.715 201.533s3.666 3.625 5.666 8.874 7.063 4.625 9.875 5.5 4.375 2.625 5.188 3.813 2.687-2.612-.5-4.32-6-2.744-6.625-3.87.875-3.687 4.375-3.125 7.937 3.188 8.625 4.188.667 4.876.302 5.783-3.363.03-3.988 1.217-.377 1.687 2.31 1.187 3.853-.766 4.125-2.062.312-6-.563-7.875-2.5-3.063-4.062-3.75-.64-6.937-.64-6.937-6.236-1.813-10.924 0-7 2.25-8.75-2.375c-2.875-.812-4.416 3.75-4.416 3.75"/><path d="M358.744 211.323s-.537-1.273 1.484-1.838 2.8-.375 2.8-.375l2.4-4.694c.087-.6-3.598-1.744-5.475-1.955-1.598-1.26-.834-2.477-.834-2.477s6.766 1.555 8.38 2.643.297 3.07-.924 4.83-1.97 2.744-2.422 3.14-4.795.938-5.4.725"/></g><path d="M355.365 204.447a2.25 2.25 0 0 0-2.674-1.725c-1.215.264-1.986 1.46-1.724 2.676l3.267 15.148c.262 1.214 1.35 1.644 2.565 1.382s2.095-1.12 1.834-2.334z" fill="#5b5b5b"/><g fill="#efbe8e"><path d="M355.943 215.4c3.188 1.707 1.312 5.506.5 4.318a9.63 9.63 0 0 0-5.187-3.812c-.82-.256-1.836-.385-2.9-.568l1.94-2.895c1.224.826 3.336 1.713 5.658 2.957m.9.175s-.36-1.334 1.715-1.625 2.828 0 2.828 0l3-4.334c.166-.584-3.45-2.344-5.28-2.802-1.416-1.46-.22-2.843-.22-2.843s6.334 2.853 7.8 4.145-.115 3.084-1.557 4.666-2.318 2.46-2.818 2.793-4.875.3-5.46 0"/><path d="M357.318 214.01s-.535-1.273 1.484-1.838 2.803-.375 2.803-.375l2.397-4.695c.09-.6-3.58-2.482-5.455-2.695-1.598-1.257-.292-2.375-.292-2.375s6.204 2.194 7.82 3.282.295 3.07-.926 4.83-1.97 2.744-2.422 3.14-4.793.938-5.4.725"/></g><path d="M311.584 244.615v-3.46s-18.584-.573-24.67 4.517c9.693 1.927 24.67-1.058 24.67-1.058" fill="#fff"/><path d="M286.188 240.313s7.98-3.34 12.313-10.146c-.4-1.417 2.68-3.066 2.68-3.066s-14.142 5.51-14.992 13.212" fill="#ef4545"/><path d="M287.234 237.7s9.178-6.216 15.307-8.05c-.4-1.418-1.362-2.55-1.362-2.55s-13.095 2.9-13.945 10.6" fill="#fff"/><path d="M292.053 282.54s6.12-4.535 7.936-15.192 16.85-14.55 16.85-14.55-4.648-2.95-6.916-3.514c2.154-3.174 3.358-5.605 3.244-6.285s-13.257-1.113-22.667 2.062c-6.463 2.723-5.25-14.312 12.664-17.96 2.04-.907.907-2.155-1.248-2.38s-5.666-4.647-8.047-7.48-21.238 12.71-35.238-8.623c-3.4-.566-9.997 7.373-9.997 7.373s14.17 6.7 13.49 27.325-17.458 46.935 29.93 39.226" fill="#efbe8e"/><path d="M270.193 276.758s11.768-5.895 21.746-1.247c8.73 3.855 11.596-.335 9.75-3.855 2.38 1.248 2.496 4.648-.113 7.483 3.174-1.133 9.976-.906 10.43 4.308-.907-.68-5.102-3.74-8.163-1.02 2.38-.454 10.32.113 6.916 9.07-.34-.68.68-4.195-2.267-5.555s-13.377 6.802-19.16 5.555c1.132 1.474 7.256 1.02 10.316-.34-1.473 1.474-14.738 7.155-22.9 1.253-.227 1.92 6.574 6.003 10.43 5.096-.453.907-13.377.908-17.572-6.008-.34.906 2.38 6.277 3.06 6.426-1.36-.645-4.875-4.386-5.328-6.767-.91 1.814-8.276 6.235-11.905 2.494 1.473.34 3.846 1.588 7.875-3.174-1.865 1.587-11.844-1.135-12.863-10.77s-2.265-16.494 3.63-28.94 7.857-15.675 5.46-22.393c3.385 3.942 6.207 19.36 3.775 23.102s.973 6.258 2.56 5.577 4.324-2.402 5.21-5c1.246-1.246 2.947 0 2.947 0s-1.475 4.785 0 7.438 6.957 6.96-3.834 17.277" fill="#cc6e21"/><path d="M269.832 254.197s-7.742 10.88-11.867 6.336c-2.266-2.497-4.233-11.777 4.158-17.22s8.617 8.388 7.71 10.883" fill="#efbe8e"/><path d="M297.438 265.762s-.236.18-.664.366c-.213.095-.475.185-.762.258s-.617.1-.957.12c-.687.002-1.445-.147-2.254-.45-.4-.135-.816-.338-1.238-.537l-1.27-.695-1.405-.778-1.4-.7c-.92-.43-1.803-.79-2.592-1.047l-1.08-.34c-.324-.102-.664-.146-.906-.19l-.776-.088.55.58 1.424 1.388c1.215 1.138 2.947 2.435 4.824 3.53.504.297 1.04.558 1.6.764.263.124.566.192.85.27s.567.154.866.183c1.154.186 2.343.046 3.218-.4a3.59 3.59 0 0 0 1.075-.729c.283-.253.466-.535.603-.757.262-.46.295-.758.295-.758" fill="#cc6e21"/><path d="M297.438 258.583c0-2.21-1.33-4-2.97-4s-2.968 1.79-2.968 4 1.33 4 2.968 4 2.97-1.79 2.97-4" fill="#fff"/><path d="M297.438 258.583c0-1.538-.925-2.784-2.066-2.784s-2.067 1.246-2.067 2.784.925 2.784 2.067 2.784 2.066-1.246 2.066-2.784" fill="#602900"/><path d="M296.292 260.192c0-.452-.326-.817-.73-.817s-.73.365-.73.817.326.817.73.817.73-.365.73-.817" fill="#fff"/><g fill="#efbe8e"><path d="M112.743 265.998c-2.507 5.027-7.483 3.906-10.37 4.5s-4.612 2.182-5.537 3.284c-.203.24-.432.23-.632.064-.03-.173-.083-.366-.175-.594a.95.95 0 0 0-.293-.381c-.183-1.05.193-2.58 2.023-3.338 3.34-1.386 5.07-1.85 5.802-2.908s.167-2.138-2.625-2.375c-2.062-.175-5.246-.104-9.017 1.31l.786-4.153a9.65 9.65 0 0 1 1.393-.584c1.623-.53 1.32-6.84 1.32-6.84s6.385-1.19 10.87 1.076 6.745 2.928 8.94-1.5c2.94-.525 4.027 4.165 4.027 4.165s-4.007 3.248-6.514 8.275"/><path d="M95.737 272.87a.95.95 0 0 1 .293.381c.093.228.146.42.175.594-.213-.175-.4-.528-.468-.975"/><path d="M97.76 269.533c-3.34 1.384-1.85 5.35-.923 4.25a9.63 9.63 0 0 1 5.538-3.284c.843-.173 1.865-.202 2.952-.278l-1.645-3.072c-1.3.7-3.488 1.375-5.922 2.385m-1.402-5.792s-9.233 4.07-14.108 4.758-7.336.5-8.25-1.083c-.207-.417 1.335-.417 3.626-.75s12.376-2.834 14.584-4.75c-1.125.25-14.625 4.545-19.125 3.48-2.917-.814-2.292-1.564-2.334-2.023.834-.375 15-.917 21.2-4.708-.875.125-8.354.626-11.02.542-1.5-.04-6.354 3.166-9.854 2.416-.5-.25 2.447-2.134 8.635-4.843 1.187-.532 8.094-.094 10.5-1.2-4.084-.3-13.25.418-16.584-4.8-.375-.625-.124-1.417 2.46 0s5.3 2.373 10.666 2.415 9.497-.02 15.624.677c-.332 3.323-6.016 9.857-6.016 9.857"/></g><path d="M252.883 219.017s-2.197-6.135 2.416-8.734c3.29-1.854 6.627 2.705 6.627 2.705s8.955-6.872 10.79-10.204 23.984-34.75 29.826-40.75l28.694 37.95c.765 1.144 6.345 3.502 6.54 3.986.37-.566 4.11-3.318 4.11-3.318s-.086-5.967-.656-6.936c-4.967-8.46-28.96-48.55-40.848-53.933-3.75-.75-33.75 41-35.75 41.75s-31.5-19.5-42-32.25-19.51-29.25-19.51-29.25-27.99 12.5-37.74 33c12 12.75 40.52 47.566 50.855 54.833-5 3.27-43.855 1.916-52.536 2.98-8.09.992-40.49 27.114-49.83 37.513l-2.928 7.04c5.5 4.433 5.096 5.61 5.096 5.61s4.793-2.354 6.422-3.742c7.998-6.815 32.32-27.204 40.42-30.167 9.75-3.568 72.943 4.836 90-8.084" fill="#d6d6d6"/><path d="M239.57 198.086c5-3 9-8 14-10 0 5-.125 13.834.75 15.334 2.333 1.666 6.255 5.06 6.306 8.16-1.27-1.156-3.305-2.435-5.326-1.297-2.002 1.13-2.72 2.922-2.893 4.592-1.61-.502-3.225-1.79-4.837-1.79.5-1.916 1.183-6.13 1.08-6.446-.44-1.37-6.427-5.9-9.08-8.553" fill="#005bad"/><path d="M121.937 257.67c-1.944 1.396-5.897 3.34-5.897 3.34s.404-1.178-5.096-5.61c.172-.622 2.272-5.517 2.805-6.754 1.857 3.612 4.434 6.623 8.188 9.026" fill="#f74d72"/><path d="M331.164 199.88c-5.21-7.773-20.31-26.576-28.623-37.848-5.842 6-27.992 37.416-29.826 40.75-.4.723-1.143 1.62-2.05 2.57-3.283-3.994-7.2-6.868-12.098-8.268-6-1-12 0-16 5-5.71 6.66-5.07 15.126 1.037 21.1-24 6.683-72.3.832-80.725 3.914-8.1 2.963-32.422 23.352-40.42 30.167-.15.127-.33.262-.526.403-3.753-2.403-6.33-5.414-8.188-9.026l.124-.285c9.34-10.4 41.74-36.52 49.83-37.513 8.68-1.065 47.536.29 52.536-2.98-1.646-1.155-3.756-3.016-6.184-5.372 5.577-17.3 22.646-25.545 39.462-30.072 7.774 5.55 14.22 9.45 15.116 9.11 2-.75 32-42.5 35.75-41.75 11.888 5.383 35.88 45.475 40.847 53.934.057.096.108.25.155.432-2.676 2.677-6.418 4.42-10.22 5.732" fill="#ff617c"/><path d="M229.04 155.945l3.013 2.732c-12.233 5.47-28.358 17.97-34.26 30.928l-2.3-2.562c8.194-12.55 19.888-24.026 33.557-31.098" fill="#ff436c"/><path d="M195.48 187.043l-30.1-34c9.75-20.5 37.74-33 37.74-33s9.01 16.5 19.51 29.25c1.7 2.065 3.906 4.326 6.407 6.662-13.67 7.073-25.363 18.55-33.557 31.098" fill="#ff617c"/><path d="M234.675 160.943c4.802 4.05 10.07 8.074 14.84 11.48-16.817 4.527-33.885 12.77-39.463 30.072-3.085-2.992-6.69-6.793-10.526-10.983 6.97-14.498 19.952-25.525 35.15-30.568" fill="#ff436c"/><path d="M337.775 203.97c-.195-.484-5.775-2.842-6.54-3.986l-.07-.104c3.8-1.3 7.543-3.055 10.218-5.732.43 1.666.502 6.504.502 6.504s-3.74 2.752-4.11 3.318" fill="#f74d72"/><path d="M255.178 210.187s3.27-3.572 2.895-9.697c6.125 5.375 5.92 12.53 5.7 14.264-1.978-1.863-3.125-4.18-8.605-4.014-1.77.083-3.127 5.932-2.283 8.3.832.796 2.324 2.054 3.14 3.382-1.546.297-13.172-4.848-12.255-14.515 1 2.166 10.045 3.227 11.397 2.28" fill="#efefef"/></g></svg>