<svg xmlns="http://www.w3.org/2000/svg" xmlns:xlink="http://www.w3.org/1999/xlink" width="449" height="390" viewBox="0 0 448.833 389.799"><defs><clipPath id="A"><path d="M0 38h38V0H0z"/></clipPath><path id="B" d="M617.11 250.674c0 15.734-12.754 28.488-28.488 28.488s-28.488-12.754-28.488-28.488 12.754-28.488 28.488-28.488 28.488 12.754 28.488 28.488"/><path id="C" d="M574.446 246.068a7.83 7.83 0 0 1 7.695-7.95c2.624-.043 4.958 1.218 6.412 3.17 1.387-1.998 3.68-3.332 6.297-3.376a7.83 7.83 0 0 1 7.95 7.695c.008.614-.06 1.207-.185 1.78-.977 6.765-8.365 14.008-13.7 16.047-5.405-1.868-13.023-8.866-14.217-15.595a7.99 7.99 0 0 1-.243-1.772"/><path id="D" d="M1059.588 321.2c-14.595-1.36-27.9-9.256-35.835-21.266-20.573-31.14.243-72.603 37.445-74.588 21.563-1.15 41.237 12.258 48.12 32.793 3.093 9.23 3.11 21 .04 30.258-5.403 16.296-20.24 29.217-36.878 32.117-3.204.56-10.24.933-12.89.686zm-8.555-24.898c.486-.693.565-2.608.565-13.6 0-7.427-.148-13.173-.354-13.714l-.354-.93h-12.747l-.354.93c-.206.54-.354 6.287-.354 13.714 0 10.982.08 12.896.565 13.6.545.778.778.807 6.516.807s5.97-.03 6.516-.807zm34.84-4.73a4.99 4.99 0 0 0 .482-4.242c-.407-1.16-.367-1.317.56-2.24.784-.78 1-1.333 1-2.574 0-.87-.254-1.944-.565-2.388-.345-.492-.408-.807-.163-.807.58 0 1.455-2.297 1.455-3.818 0-.715-.238-1.76-.53-2.324-.48-.926-.46-1.157.182-2.418 1.398-2.74.537-8.047-1.405-8.663-.372-.118-3.275-.05-6.452.154l-7.277.37-1.5.001.852-2.11c.47-1.16 1.13-4.094 1.472-6.52.726-5.174.4-7.716-1.18-9.2-1.355-1.272-3.77-1.212-5.1.13-.87.87-1 1.325-1.113 3.63-.065 1.45-.2 3.02-.3 3.493s-1.787 2.513-3.747 4.538c-3.95 4.08-6.247 7.236-7.523 10.337-.823 2-.846 2.362-.855 13.382-.01 10.41.043 11.356.627 11.696.403.235 6.116.374 15.608.38l14.972.01.517-.817z"/><path id="E" d="M19.87 371.22c-24.73-24.754-24.712-65.012.043-89.743l23.005-22.983 4.363-1.088 22.97 22.992-1.482 3.973-23.005 22.983c-10.486 10.476-10.494 27.53-.018 38.016l.478 3.32-22.86 22.84zm0 0"/></defs><g clip-path="url(#A)" transform="matrix(1.25 0 0 -1.25 347.67337 120.5682)"><path d="M36 19c0-9.39-7.61-17-17-17S2 9.61 2 19s7.61 17 17 17 17-7.61 17-17" fill="#ffcc4d"/><path d="M19 15.15c-2.966 0-4.935.346-7.37.82-.557.107-1.638 0-1.638-1.637 0-3.276 3.763-7.37 9.007-7.37s9.007 4.094 9.007 7.37c0 1.637-1.082 1.745-1.638 1.637-2.433-.473-4.402-.82-7.37-.82" fill="#664500"/><path d="M17.65 33.72a4.67 4.67 0 0 1-5.956 2.85c-1.476-.52-2.52-1.7-2.928-3.105a4.66 4.66 0 0 1-4.224.58 4.67 4.67 0 0 1-2.85-5.956 4.69 4.69 0 0 1 .472-.958c1.95-3.582 7.588-6.1 11.002-6.13 2.636 2.167 5.446 7.664 4.717 11.677-.038.348-.113.698-.233 1.042m2.7 0a4.67 4.67 0 0 0 8.886-.255 4.66 4.66 0 0 0 4.224.58c2.43-.858 3.707-3.525 2.85-5.956-.123-.345-.284-.663-.473-.958-1.95-3.582-7.588-6.1-11.002-6.13-2.636 2.167-5.445 7.664-4.716 11.677.038.348.113.698.232 1.042" fill="#e75a70"/></g><g transform="matrix(1.194107 0 0 1.194107 -568.81098 -179.33158)"><use xlink:href="#B" fill="#e53949"/><use xlink:href="#C" fill="#fff"/></g><g transform="matrix(.699489 0 0 .699489 -64.50437 13.82873)"><use xlink:href="#B" fill="#e53949"/><use xlink:href="#C" fill="#fff"/></g><g transform="matrix(.485302 0 0 .485302 128.05043 -86.266805)"><use xlink:href="#B" fill="#e53949"/><use xlink:href="#C" fill="#fff"/></g><use xlink:href="#B" x="-312.543" y="-125.928" fill="#ffcc4d"/><g fill="#664500"><path d="M276.08 131.195c-4.97 0-8.27-.58-12.35-1.372-.933-.18-2.745 0-2.745 2.743 0 5.5 6.306 12.35 15.093 12.35s15.093-6.86 15.093-12.35c0-2.743-1.813-2.924-2.745-2.743-4.077.793-7.377 1.372-12.35 1.372"/><circle r="4" cy="113.965" cx="268.02"/><circle r="4" cy="113.965" cx="284.139"/></g><g transform="matrix(.799199 0 0 .799199 -245.78727 -146.25081)"><use xlink:href="#B" fill="#e53949"/><use xlink:href="#C" fill="#fff"/></g><g transform="matrix(.84706 0 0 .84706 -689.92132 -18.61271)"><circle cx="1063.649" cy="273.287" r="48" fill="#fff"/><use xlink:href="#D" fill="#538cfb"/></g><g transform="matrix(.334613 0 0 .334613 76.8608 44.04039)"><circle cx="1063.649" cy="273.287" r="48" fill="#fff"/><use xlink:href="#D" fill="#538cfb"/></g><g transform="matrix(.370366 0 0 .370366 -69.19307 -83.73858)"><circle cx="1063.649" cy="273.287" r="48" fill="#fff"/><use xlink:href="#D" fill="#538cfb"/></g><path d="M114.243 186.9l-22.48 24.32 9.166 1.13-11.393 19.67 26.146-24.788-9.822-1.208zm61.09 62.765l-22.48 24.32 9.166 1.13-11.393 19.67 26.146-24.788-9.822-1.208zm0 0" fill="#ffce00"/><path d="M155.186 317.612l1.335 6.8-23.9 23.88-1.743-8.79z" fill="#f2f4fd"/><use xlink:href="#E" fill="#cd1f42"/><path d="M91.336 253.702l1.335 6.8-23.9 23.88-1.335-6.8z" fill="#f3f5f9"/><path d="M19.87 371.22c24.73 24.754 64.99 24.774 89.743.043l23.005-22.983-.205-6.18-20.634-20.654-5.012.958-23.005 22.983c-10.486 10.476-54.75 29.53-65.227 19.043z" fill="#1887e3"/><use xlink:href="#E" x="-1.335" y="-6.79" fill="#e53949"/><path d="M65.485 227.825l25.852 25.876-23.9 23.88-25.852-25.876zm0 0" fill="#fff" stroke="#ececec" stroke-width=".5"/><path d="M18.535 364.43c24.73 24.754 64.99 24.774 89.743.043l23.005-22.983-.205-6.18-20.634-20.654-5.012.958-23.005 22.983c-10.486 10.476-27.54 10.468-38.016-.02zm0 0" fill="#42a5f6"/><path d="M129.334 291.736l25.852 25.876-23.9 23.88-25.85-25.876zm0 0" fill="#fff" stroke="#e6e6e6" stroke-width=".5"/></svg>
