<svg xmlns="http://www.w3.org/2000/svg" xmlns:xlink="http://www.w3.org/1999/xlink" width="937" height="507" viewBox="0 0 936.729 506.074"><style><![CDATA[.B{fill:#eea886}.C{fill:#fff}.D{fill:#eb4747}.E{fill:#ffca55}.F{fill:#e8e8e8}.G{fill:#a77860}.H{fill:#303669}.I{fill:#faa146}.J{fill:#464240}]]></style><defs><clipPath id="A"><path d="M907.887 1536H7295.2s502.94 24.62 242.92-235.12c-260-259.75-1260.95-197.76-1881.38-569.67S5136.04 906.84 4321.7 937.81c-814.36 31.01-3300.5 82.7-3322.963 309.96-22.454 227.25-361.555 282.95-90.84 288.23z"/></clipPath><linearGradient x1="4810.38" y1="511.785" x2="4789.719" y2="1007.667" spreadMethod="pad" id="B" xlink:href="#O"><stop offset="0" stop-color="#ffebe3"/><stop offset="1" stop-color="#eddad4"/></linearGradient><clipPath id="C"><path d="M2142.36 3216.14c53.25 25.46 106.25-144.06 106.25-144.06 90.52-119.6 217 39.5 204.64-139.3-21.65-312.85 360.1-98.38 183.98-425-176.1-326.64 155.5-184.7 46.07-448.06-109.46-263.36 32.4-577.5-132.27-448.4 0 0-145 317.97-294.55 416.35-149.53 98.38 89.6 215.12 42.8 348.75-67.96 194.08-231.7 186.45-113.64 395.03 118.06 208.56-224.32 358.1-43.3 444.68z"/></clipPath><linearGradient x1="2675.67" y1="1797.845" x2="3293.253" y2="1797.845" spreadMethod="pad" id="D" xlink:href="#O"><stop offset="0" stop-color="#40d5e6"/><stop offset="1" stop-color="#57f"/></linearGradient><clipPath id="E"><path d="M2974.73 2373.2c-13.1-7.15-24.06-18.63-36.76-31.92-31.72-33.22-71.22-74.56-171.23-75.05-49.8-.23-77.7-6.72-90.44-21.03-13.93-15.67-10.9-42.8-6.7-80.38 1.6-14.18 3.4-30.25 4.5-47.73 6.76-107.45-54.82-182.53-57.44-185.66-35.84-42.66-76.4-127.55-59.44-176.06 6.6-18.85 21.66-30.78 44.82-35.47 80.73-16.3 103 34.2 139.95 117.9l21.73 48.02c42.78 90.3 82.7 105.98 143.1 129.67 14.5 5.7 30.93 12.15 48.86 20.2 76.35 34.32 62.58 81.44 48 131.32l-5.97 21.3c-9.2 35.9 8.94 54.4 31.86 77.8 16.52 16.84 35.22 35.92 50 66.84 7.76 16.2 14.16 38.22.6 51.07-17.84 16.92-63.18 12.27-105.46-10.82zm-344.85-668.14c-9.2 0-19.2 1.05-30.18 3.28-27.5 5.55-45.55 20.07-53.6 43.14-19.25 55.02 25.34 144.42 61.52 187.52.6.72 61.17 74.75 54.7 177.35-1.08 17.2-2.86 33.12-4.44 47.15-4.55 40.6-7.85 69.95 9.6 89.54 15.37 17.27 45.04 24.75 99.2 25 95 .45 132.57 39.78 162.75 71.38 12.82 13.42 24.93 26.1 39.64 34.13 47.34 25.85 97.5 29.64 119.24 9.04 10.33-9.8 19.05-28.98 1.94-64.75-15.64-32.68-35.9-53.38-52.22-70-21.92-22.38-36.4-37.16-28.86-66.62 1.75-6.9 3.8-13.9 5.85-20.9 14.65-50.1 31.24-106.87-54.5-145.4-18.2-8.16-34.75-14.68-49.38-20.42-59.85-23.47-95.97-37.66-136.75-123.74-7.9-16.66-14.86-32.44-21.6-47.72-32.15-72.86-56.48-127.97-122.92-127.98z"/></clipPath><linearGradient x1="3128.72" y1="1453.235" x2="3687.206" y2="1453.235" spreadMethod="pad" id="F" xlink:href="#O"><stop offset="0" stop-color="#40d5e6"/><stop offset="1" stop-color="#57f"/></linearGradient><clipPath id="G"><path d="M2600.97 1636.9l-11.8.6c.6 11.07 15.46 272.17 120.3 348.57 115 83.83 151.26 173.93 168.53 234.4 20.35 71.25 123.92 90.3 128.32 91.07l2.05-11.64c-1-.17-100.7-18.55-119.02-82.68-17.74-62.14-54.98-154.7-172.93-240.7-100.33-73.1-115.3-336.98-115.45-339.63z"/></clipPath><linearGradient x1="3176.45" y1="1372.025" x2="3595.639" y2="1372.025" spreadMethod="pad" id="H" xlink:href="#O"><stop offset="0" stop-color="#40d5e6"/><stop offset="1" stop-color="#57f"/></linearGradient><clipPath id="I"><path d="M2840.65 2952.66c-74.5 25.55-59.02-118.05-90.5-224.3-31.47-106.26-350.24-46.36-216.43-312.42 133.8-266.07-169.22-89-78.7-321.17 90.5-232.17 7.87-480.5 106.25-417.34 98.37 63.17 55.28 355.55 157.58 390.28 102.32 34.75 119.02 75.26 17.72 169.7-101.3 94.45 265.45 188.22 174.93 378.93-90.5 190.7 15.25 306.8-70.83 336.3z"/></clipPath><linearGradient x1="3025.08" y1="1709.335" x2="3513.254" y2="1709.335" spreadMethod="pad" id="J" xlink:href="#O"><stop offset="0" stop-color="#40d5e6"/><stop offset="1" stop-color="#57f"/></linearGradient><clipPath id="K"><path d="M2776.26 1813.12l-106.36-403.6h-237.74l-106.37 403.6z"/></clipPath><linearGradient x1="2913.06" y1="1009.115" x2="3363.539" y2="1009.115" spreadMethod="pad" id="L" xlink:href="#O"><stop offset="0" stop-color="#ff9340"/><stop offset="1" stop-color="#ffce45"/></linearGradient><clipPath id="M"><path d="M2776.26 1813.12s-234.18-43.98-234.18-403.6h-109.92l-106.37 403.6z"/></clipPath><linearGradient x1="2913.06" y1="1009.115" x2="3363.539" y2="1009.115" spreadMethod="pad" id="N" xlink:href="#O"><stop offset="0" stop-color="#c97332"/><stop offset="1" stop-color="#ffce45"/></linearGradient><linearGradient id="O" gradientUnits="userSpaceOnUse"/></defs><g transform="matrix(1.333333 0 0 -1.333333 -78.302665 586.37131)"><g clip-path="url(#A)" transform="scale(.1)"><path d="M907.887 1536H7295.2s502.94 24.62 242.92-235.12c-260-259.75-1260.95-197.76-1881.38-569.67S5136.04 906.84 4321.7 937.81c-814.36 31.01-3300.5 82.7-3322.963 309.96-22.454 227.25-361.555 282.95-90.84 288.23" fill="url(#B)"/></g><path d="M755.132 378.246l-63.128-.29.254-55.393 9.595 9.682 53.5.246-.21 45.756" fill="#78c2ff"/><path d="M728.5 353.408c.01-2.663-2.145-4.828-4.808-4.837s-4.828 2.144-4.837 4.807 2.146 4.828 4.808 4.837 4.828-2.143 4.837-4.807m15.835.052c.01-2.663-2.144-4.83-4.807-4.838s-4.83 2.145-4.837 4.807 2.144 4.828 4.807 4.836 4.828-2.143 4.837-4.805m-31.307-.1a4.82 4.82 0 0 0-4.805-4.837c-2.662-.008-4.83 2.144-4.837 4.807s2.144 4.828 4.807 4.837a4.82 4.82 0 0 0 4.835-4.807" class="C"/><path d="M675.607 414.664l-9.095 3.952c-.746.323-1.088 1.192-.764 1.937a1.47 1.47 0 0 0 1.938.763l6.43-2.795 4.644 10.293c.337.743 1.208 1.073 1.95.737a1.47 1.47 0 0 0 .737-1.947l-5.84-12.94m-9.51 19.568c-7.188-5.052-8.926-15-3.875-22.2s15.008-8.928 22.2-3.877 8.927 15 3.876 22.2-15 8.928-22.2 3.877zm19.85-28.248c-8.387-5.894-20.006-3.865-25.9 4.522s-3.864 20.006 4.523 25.898 20.005 3.866 25.898-4.522 3.865-20.005-4.522-25.898M637.74 340.25c-6.34.065-8.52-5.643-8.52-5.643s-5.276 3.085-10.176-.934-2.383-7.957-2.383-7.957c3.458-8.436 20.158-12.705 20.158-12.705s10.348 13.787 7.762 22.53c0 0-.504 4.645-6.84 4.7" class="E"/><path d="M750.664 239.17c-.025-63.338-1.8-75.736-17.704-89.927-6.23-5.557-17.684-17.102-50.736-22.85-9.922-1.727-21.788-2.93-36.04-3.293-5.816-.148-11.153.063-16.036.595-4.094.442-7.87 1.113-11.335 1.98-36.327 9.102-39.04 40.226-23.152 66.408 4.208 6.934 9.017 13.308 14.057 19.25 7.78 9.178 16.123 17.33 23.677 24.94 6.962 7.012 13.258 13.564 17.834 20.032 1.93 2.725 3.553 5.435 4.793 8.16l.9 1.914c.98 2.058 1.984 4.037 3 5.93a141.21 141.21 0 0 0 5.726 9.711c1.494 2.322 2.945 4.425 4.295 6.292 4.638 6.412 8.084 10.01 8.084 10.01a31.19 31.19 0 0 0 1.224.531c.42.177.95.4 1.572.627l.79.298.87.316.868.3 1.1.368.686.218.418.13.16.05c4.716 1.445 11.184 2.952 18.225 3.203 20.875.745 46.758-9.55 46.733-65.195" class="D"/><path d="M666.16 143.816s.52-4.245 1.21-6.117 4.437-6.195 2.854-10.348c-1.716-4.503-9.204-.164-12.26 1.21s-2.358 3.866-2.684 6.92-1.817 3.135-1.266 5.283 3.9 6.256 3.9 6.256l8.258-3.205" fill="#b7ceff"/><path d="M659.345 149.243l-1.864-2.757c.053-.072 8.212-5.04 8.78-3.43.45 1.28.64 3.134.64 3.134l-7.557 3.052" class="B"/><path d="M631.686 140.814s-2.49-2.18-4.725-5.534-8.17-3.53-8.423-8.108 8.067-4.717 12.436-3.227 5.03 5.96 7.67 7.078 4.015 2.022 3.81 4.204-1.665 5.724-1.665 5.724-1.643-.523-2.606-.63-4.213-.144-6.5.494" fill="#b7ceff"/><path d="M661.633 264.82l-3.024-16.535-1.348-5.443c-.387-.837-3.53-4.21-7.375-8.173l-15.667-15.697-3.488 6.618 13.29 15.48 4.78 5.4c1.122 1.004 2.426 10.9 4.258 19.053s5.5 12.66 5.5 12.66l3.072-13.354" class="F"/><path d="M649.886 234.67l-15.667-15.697-3.488 6.618 13.3 15.48c1.647-.807 4.667-2.733 5.864-6.402m-17.808-90.804l-.4-3.05s4.333-1.53 9.105.137l.098 2.7-8.812.203" class="B"/><path d="M693.574 220.318c.25-.886-45.885 0-45.885 0s12.762 9.29 13.59 11.77-3.25 17.37-3.78 22.215c-.425 3.877-1.49 21.22 1.064 23.87 2.67 2.77 12.288 5.672 12.288 5.672l14.024-.522s2.314-.482 3.968-1.25 11.115-4.137 12.65-8.864-9.44-19.924-9.44-19.924l-.054-1.803-.163-6.22-.137-9.257c0-6.027 1.63-14.8 1.876-15.686" class="F"/><path d="M693.576 220.316s6.276-9.216 6.363-15.507-11.136-27.368-12.834-30.382c-5.107-9.064-19.11-28.614-19.11-28.614s-2.414.062-9.946 2.987l10.496 28.504c5.008 11.37 7.804 19.434 6.12 21.384s-6.275 3.906-7.604 5.058-24.488-4.377-26.915-5.006c-6.283-1.63-3.418-12.562-2.03-17.465 2.326-8.2 4.36-37.812 4.36-37.812s-4.476-1.908-11.974-.297l-15.19 58.79c-.472 5.317-.706 14.086 35.57 20.75l42.695-2.4" class="H"/><g class="B"><path d="M674.697 314.312s-12.173 2.746-9.39-12.573 5.71-16.522 13.05-13.352 6.688 12.984 7.056 17.797-6.83 7.96-10.715 8.128"/><path d="M671.477 279.913s5.39-5.715 13.9-.52c0 0-1.906 12.386-.902 18.418s-11.116-9.347-11.116-9.347c.158-.084.264-.66.288-1.48a16.11 16.11 0 0 0-.126-2.454c-.25-2.005-.874-4.124-2.054-4.617"/></g><path d="M684.82 298.323s-.313 4.827-2.076 4.978-2.033-1.793-2.033-1.793l-1.78-.336s.562 4.23-1.2 4.97-11.405-2.33-12.817-1.086-.75 9.822 1.808 10.996 9.612 3.805 14.78.305c0 0 4.032.46 4.63-2.793s-.217-12.82-1.313-15.24" fill="#3a3f47"/><path d="M673.53 284.53c8.79 2.7 9.45 8.003 9.46 8.085-2.894-4.972-9.335-5.63-9.335-5.63a16.11 16.11 0 0 0-.126-2.454" class="G"/><path d="M688.985 282.006s-6.437-12.813-16.836-11.986-1.772 13.707-1.3 13.826c.52.13 10.666 2.658 18.136-1.84" class="B"/><path d="M642.41 220.967s31.86-3.928 51.165-.65l-36.883 4.6s-.22-.94-14.282-3.96" class="F"/><path d="M666.242 226.377l-2.373-1.203s.54-3.77 1.84-4.912l2.664.68s-.556 4.135-2.13 5.436" class="B"/><path d="M703.1 234.098c-.474-.55-6.738-3.07-13.815-5.795l-.001-.001c-9.666-3.724-20.57-7.247-20.57-7.247l-2.482 5.322 19.135 10.557c3.645 2.054 6.463 3.697 6.862 4.076 1.24 1.18 1.563 3.076.65 6.38s-3.016 18.494-3.25 20.266.6 6.5 5.02 6.736 6.688-1.016 6.688-1.016 1.112-.462 1.94-11.215.944-26.766-.177-28.064" class="F"/><path d="M691.998 251.482l-.163-6.22c-4.324 10.6-1.825 19.06-1.783 19.204-.467-2.877 1.913-12.842 1.946-12.983m-33.388-3.198l-1.348-5.443c-1.477 7.148-.148 16.3-.148 16.3.2-4.372 1.496-10.858 1.496-10.858" fill="#b0b0b0"/><path d="M689.295 228.303l-.001-.001c-9.666-3.724-20.92-7.36-20.92-7.36l-2.13 5.436 19.135 10.557s2.808-1.37 3.918-8.63" class="B"/><path d="M665.555 220.625l-45.286.667 22.863-11.608z" fill="#444c94"/><path d="M643.132 209.684l22.423 8.684v2.257l-24.195-8.727 1.772-2.214" class="H"/><g class="B"><path d="M664.38 225.092l-4.783.895c-1.514.353-5.276-.133-6.234-1.103s-4.007-7.738-4.583-8.15.296-1.37 1.308-.888c0 0 .93-2.96 3.223-1.853s3.85 3.528 5.052 3.954l8.197 2.576s-.378 5.29-2.18 4.57"/><path d="M654.055 225.327s-1.82-.878-2.29-1.268l-2.865-2.17c-.464-.338.704-1.3 4.14.187s1.015 3.25 1.015 3.25"/></g><path d="M643.132 209.684l-13.468 36.777-43.425-.71 12.836-33.893 44.057-2.175" class="H"/><path d="M615.77 230.2c1.324-2.65.923-5.534-.895-6.444s-4.367.5-5.693 3.15-.924 5.534.894 6.444 4.367-.5 5.694-3.15" fill="#518afa"/><path d="M680.747 303.553c.16 1.35 2.83 1.847 3.046-.18s-1.213-5.583-2.23-5.233-1.038 3.548-.817 5.412" class="B"/><path d="M462.595 306.613l-50.462-.232.204-44.278 7.67 7.74 42.758.196-.17 36.574" class="E"/><path d="M441.307 286.76c.006-2.128-1.713-3.86-3.842-3.865s-3.86 1.712-3.866 3.84 1.713 3.86 3.842 3.867 3.86-1.713 3.866-3.842m12.657.04c.007-2.13-1.714-3.862-3.84-3.867s-3.86 1.712-3.867 3.84 1.714 3.86 3.842 3.867 3.86-1.714 3.866-3.84m-25.025-.08c.007-2.128-1.714-3.86-3.842-3.866s-3.86 1.713-3.865 3.84a3.85 3.85 0 0 0 3.841 3.866c2.128.007 3.86-1.713 3.866-3.84" class="C"/><path d="M367.55 300.882c-2.597.958-3.926 3.84-2.97 6.44s3.84 3.93 6.44 2.97 3.927-3.842 2.97-6.44-3.84-3.93-6.44-2.97zm9.287 1.92a8.05 8.05 0 0 1-4.766 10.336 8.05 8.05 0 0 1-10.336-4.766s-.167-.322-.327-1.135l-.126-.8c-.318-2.466-.35-7.64 1.884-17.443 8.062 6.004 11.397 9.957 12.757 12.04.154.223.294.453.425.694.406.72.49 1.074.49 1.074" class="E"/><path d="M346.466 330.592l-24.2 4.94 3.383 16.57 24.198-4.942-3.382-16.568" fill="#ffc655"/><path d="M322.267 335.533l14 6.79 10.21-11.732z" fill="#ffbc55"/><path d="M349.848 347.16l-14.206-7.85-9.992 12.793z" fill="#ffa655"/><g class="I"><path d="M459.436 157.027c-.308-2.153-13.244-11.213-15.79-13.023-2.045-1.453-3.822-2.12-6.913-3.28-7.026-1.847-51.095-14.997-51.095-14.997-.116.447-.18.835-.437 1.34-1.646-.656-3.34-1.082-4.414-1.418-1.64-.51-14.663-.92-17.33-1.435s-7.998-1.332-10.152.72 1.334 6.46 4.308 7.588 13.843 1.435 15.79 1.64 4.512.923 5.743.514c.388-.13 2.106.374 4.275 1.124l-.065 1.302 11.57 3.336-2.142 20.488s5.034 18.97 25.147 4.498l6.026-1.73c.108-.03.28-.033.514-.015 3.07.23 16.254 4.218 21.02 4.218 5.128 0 6.768.31 8.614-.615s5.64-8.1 5.332-10.254"/><path d="M438.832 124.932c-2.155-2.05-7.487-1.23-10.152-.72s-15.69.924-17.33 1.435-4.717 1.23-6.87 2.668c-.174.116-.57.288-1.15.504l-3.26-2.35-45.28 14.413c-2.713.744-4.867 1.875-6.3 3.12-2.36 2.05-15.485 10.87-15.792 13.023s3.485 9.332 5.33 10.254 3.487.615 8.614.615 19.996-4.614 21.534-4.203c.7.187 2.148.924 3.52 1.672a115.06 115.06 0 0 1 3.179 1.814c22.023 9.83 24.475-6.255 24.475-6.255l-1.305-19.86 4.224-2.044 10.915-3.084-1.43-1.032c.617-.2 1.055-.29 1.233-.23 1.23.41 3.794-.31 5.742-.514s12.817-.513 15.792-1.64 6.46-5.538 4.307-7.588"/></g><path d="M371.7 165.365c1.518-.105 11.78-6.05 14.215-7.47-3.7 1.932-17.735 5.797-17.735 5.797.7.187 2.148.924 3.52 1.672m52.772-1.686s-17.68-4.3-20.913-6.086c.147.107 9.316 7.075 14.13 8.004l6.268-1.903c.108-.03.28-.033.514-.015" fill="#5478b3"/><path d="M438.832 124.932c-2.155-2.05-7.487-1.23-10.152-.72s-15.69.924-17.33 1.435c-.473.15-1.06.313-1.715.506-1.62.48-3.622 1.14-5.155 2.162-.174.116-.57.288-1.15.504l8.43 6.084c.617-.2 1.055-.29 1.233-.23 1.23.41 3.794-.31 5.742-.514s12.817-.513 15.792-1.64 6.46-5.538 4.307-7.588" class="B"/><path d="M438.832 124.932c-2.155-2.05-7.487-1.23-10.152-.72s-15.69.924-17.33 1.435c-.473.15-1.06.313-1.715.506-.003.002 3.582 3.548 1.888 8.58l.235.17c.617-.2 1.055-.29 1.233-.23 1.23.41 3.794-.31 5.742-.514s12.817-.513 15.792-1.64 6.46-5.538 4.307-7.588" class="C"/><path d="M376.194 160.84c.023-.055.018-.096-.017-.12-.204-.154-.17-.088.017.12" fill="#e55353"/><path d="M420.33 176.562c-1.006-1.142-4.983-3.67-8.56-5.75-.27 2.48-.684 6.38-.728 7.784-.068 2.12.82 8.203 1.914 10.527s1.846 8.683 1.846 8.683 9.057-12.306 10.493-13.605-1.568-3.78-4.965-7.64zm-52.894-1.468c-2.564 3.076-6.093 4.937-5.205 6.304s8.41 14.357 8.41 14.357 3.897-8.545 4.99-12.99 1.008-6.48.546-7.862c-.414-1.24-.746-2.082-1.118-5.774-3.065 2.095-6.45 4.554-7.623 5.964zm68.022 9.722c-.17.346-9.512 15.04-12.042 21.74s-8.614 9.776-11.485 10.732l-4.775 1.56-7.256 2.338h-11.964l-8.547-2.932c-4.06-1.426-8.33-2.98-9.774-3.7-3.008-1.502-8.067-12.236-9.092-13.466s-8.91-15.847-10.05-21.466c-.884-4.363 25.013-17.144 25.72-18.78.82.9 4.592 4.525 4.592 4.525l-2.9 1.88c6.938-.318 23.89.28 26.322.158a12.45 12.45 0 0 1 1.566.035c.75-.55 5.604-4.837 5.604-4.837s11.964 4.966 17.465 10.526c7.814 7.895 7.486 9.946 6.625 11.7" fill="#5779d4"/><g class="B"><path d="M395.343 254.066s9.357-1.472 7.932-16.11-9.682-13.438-10.234-13.424-8.3-.267-8.892 17.606c0 0-.265 13.216 11.194 11.93"/><path d="M403.42 242.1s1.025 1.094 1.4-.014-1.398-6.05-1.462-6.28c0 0-.187-.43-.433-.193s.494 6.487.494 6.487m-19.02.174s-1.003 1.115-1.4.014 1.265-6.073 1.34-6.307c0 0 .18-.432.43-.202s-.37 6.495-.37 6.495"/></g><path d="M403.415 239.844l-1.34-1.79-.177 4.54c-.216.615-.545 2.496-.724 2.94s-8.034 2.646-14.97-.642c0 0 .304-2.824-.362-3.074s-.338-4.597-.338-4.597l-1.1 1.242s-1.686 11.262-1.27 12.435 1.743 8.23 15.977 4.04c0 0 4.437.94 5.328-2.123s-1.023-12.972-1.023-12.972" fill="#434343"/><path d="M381.578 146.24s-14.322 8.583-20.578 9.932c-5.9 1.277-8.066 3.488-8.066 3.488s9.4 0 15.655-4.444l13-8.976m12.72-5.984s24.9 13.08 35.08 15.916c5.825 1.626 8.067 3.488 8.067 3.488s-15.4-1.505-24.766-7.144c-4.464-2.688-18.382-12.26-18.382-12.26" fill="#b57433"/><path d="M385.2 127.066c-1.646-.656-3.34-1.082-4.414-1.418-1.64-.51-14.663-.92-17.33-1.435s-7.998-1.332-10.152.72 1.334 6.46 4.308 7.588 13.843 1.435 15.79 1.64 4.512.923 5.743.514c.388-.13 2.106.374 4.275 1.124.067-1.302 1.78-8.732 1.78-8.732" class="B"/><path d="M394.3 128.307l24.49 7.246-4.842 1.478s-19.57-7.094-19.647-8.724" class="I"/><path d="M394.3 128.307l11.46 3.495-7.945-4.615z" fill="#b57433"/><path d="M386.43 157.592l-.515.304c.206-.108.378-.21.515-.304" fill="#525252"/><path d="M380.786 125.648c-1.64-.51-14.663-.92-17.33-1.435s-7.998-1.332-10.152.72 1.334 6.46 4.308 7.588 13.843 1.435 15.79 1.64 4.512.923 5.743.514c0 0-3.288-5.026 1.64-9.026" class="C"/><path d="M372.69 159.66l-3.774 21.465 48.79 1.127-3.143-21.123s-15.573-5.7-20.86-9.025c0 0-13.36 5.488-21.015 7.556" fill="#525252"/><path d="M396.58 168.18c0-1.774-1.225-3.213-2.736-3.213s-2.733 1.44-2.733 3.213 1.224 3.213 2.733 3.213 2.736-1.44 2.736-3.213" fill="#6e6e6e"/><path d="M400.022 221.146l-.013.04c-.584 1.303-.298 7.658-.298 7.658s-11.917 3.033-11.576.714-1.027-8.65-1.027-8.65l-6.112-2.092s6.512-17.488 14-15.232 10.31 15.863 10.31 15.863l-5.284 1.7" class="B"/><path d="M388.358 226.925s1.868-2.423 5.2-2.423c2.192 0 3.688.54 5.87 2.668 0 0-.868-3.97-5.856-4.344 0 0-3.566-.515-5.215 4.1" class="G"/><path d="M609.218 416.63l-71.746-.33.29-62.957 10.902 11.004 60.793.28-.238 52.002" class="E"/><path d="M578.948 388.402c.012-3.027-2.435-5.486-5.46-5.496a5.48 5.48 0 0 0-5.497 5.462 5.48 5.48 0 0 0 5.463 5.496c3.026.01 5.488-2.435 5.495-5.462m17.998.058a5.48 5.48 0 1 0-5.499 5.463c3.03.01 5.5-2.438 5.5-5.463m-35.58-.113c.007-3.027-2.436-5.488-5.465-5.497a5.48 5.48 0 0 0-5.496 5.462 5.48 5.48 0 1 0 10.961.035" class="C"/><path d="M517.048 358.89s6.925.724 9.42-5.963 4.844-8.877 5.137-12.39c1.19-14.21 7.826-10.995 5.958-19.185s-3.158-9.432-3.158-9.432l-15.863 3.11-16.073-.052s6.288 3.14 4.89 9.828-4.89 17.648-2.92 25.115 8.47 8.397 12.608 8.97" class="J"/><path d="M512.666 139.325s-4.974-6.83-4.268-7.932 6.137-1.258 9.438 0 3.383 9.4 4.877 12.897c.626 1.465-.714 5.787-2.595 6.1s-4.09-.674-4.09-.674 1.928-4.977-3.36-10.392" class="D"/><path d="M516.027 149.717s-.392-3.225-1.02-5.506-4-7.47-3.854-8.1 4.405-1.198 6.134.423 3.067 6.32 3.225 9.16-.393 4.696-.393 4.696-2.438 1.056-4.09-.674" class="B"/><path d="M522.713 144.3v-7.272h-.944v5.62l.944 1.65m2.97-4.973s-4.973-6.83-4.267-7.932 6.136-1.258 9.438 0 3.38 9.4 4.876 12.897c.625 1.465-.714 5.787-2.596 6.1s-4.1-.674-4.1-.674 1.926-4.977-3.362-10.392" class="D"/><path d="M529.044 149.717s-.393-3.225-1.022-5.506-4.01-7.47-3.854-8.1 4.405-1.198 6.134.423 3.067 6.32 3.225 9.16-.394 4.696-.394 4.696-2.44 1.056-4.09-.674" class="B"/><path d="M535.73 144.3v-7.272h-.944v5.62l.944 1.65" class="D"/><path d="M503.523 262.94l-4.78-25.916c-1.016-5.187-3.863-30.302-4.168-34.574s9.277-24.813 9.876-26.23c10.027-23.72 11.184-29.088 11.184-29.088s3.292-2.063 4.813.398c.462.75-6.172 27.95-7.264 35.496-1.017 7.018-3.663 17.855-2.95 20.32s7.22 36.404 8.442 37.828 3.05-.814 3.762-3.967 2.237-30.404 3.15-33.86.205-15.153.713-21.05l2.627-33.43s4.095-.732 4.502-.077 3.954 30.577 4.056 37.593l.407 19.728c1.883 29.077 5.443 32.88-.778 53.807-15.22 51.205-33.594 3.023-33.594 3.023" class="B"/><path d="M503.523 262.94l-4.78-25.916c-1.016-5.187-3.863-30.302-4.168-34.574s8.947-24.812 9.152-26.338 7.824-23.36 7.824-23.36 7.697.132 9.796 2.127c.42.4-7.07 20.6-8.163 28.146-1.017 7.018-3.663 17.855-2.95 20.32s7.22 36.404 8.442 37.828 3.05-.814 3.762-3.967 2.237-30.404 3.15-33.86.205-15.153.713-21.05-.564-26.855-.564-26.855 10.084-.528 10.5.127 1.157 23.8 1.26 30.815l.407 19.728c1.883 29.077 5.443 32.88-.778 53.807-15.22 51.205-33.594 3.023-33.594 3.023" class="I"/><path d="M538.628 255.963c.587.237-4.12 15.805-5.055 20.458-.842 4.196-3.7 8.04-.908 15.19 1.604 4.094 1.496 8.933 1.496 8.933s4.286-9.455 4.693-11.897-14.814 2-15.024 1.663c-.402-.643-.846-4.762-.846-6.186 0-1.177 22.094-6.397 24.71-1.77.743 1.312-4.057 26.42-7.153 29.765-5.084 5.49-18.44 10.17-18.44 10.17s-3.662 1.965-10.103-.068-15.455-8.27-17.016-9.898-7.796-26.145-8.34-29.32c-.51-2.986-.3-9.27 6.51-8.467l18.406 4.215-1.143 5.6-13.796-1.09c-2.816-.48-1.466 1.99-1.106 3.365l3.813 13.825c-.2-3.457 2.407-14.81 3.764-18.74s-1.643-24.973-1.846-27.277c0 0 11.08-9.1 37.386 1.524" class="D"/><path d="M525.105 321.136s-4.54-9.37-8.333-12.116c0 0-6.827 10.23-6.478 12.6 0 0 7.562 3.354 14.8-.473m.166-31.594s-2.104.848-2.663 1.6-2.423 1.22-3.803.8-.616-6.342-.616-6.342l7.283-.943-.2 4.865m-13.186-4.53s.7 3.832.532 4.54 1.244 1.416 1.44-.332l.3-2.86-2.274-1.347" class="B"/><path d="M515.113 282.354l5.302.216c.68.028 1.217.58 1.226 1.26l.14 11.61c.01.727-.6 1.315-1.317 1.29l-6.348-.207c-.728-.025-1.29-.65-1.232-1.375l.903-11.617c.052-.685.64-1.205 1.325-1.177" fill="#51578c"/><path d="M511.968 284.702s-.1 1.09 1.992 2.085c2.775 1.324 6.478 2.67 7.1 2.322.91-.5.442-1.193-1.312-1.77l-2.332-.763s3.43.327 4.2-.083.812-1.36.25-1.515-1.89-.25-1.89-.25 1.455-.056 1.602-.64c.107-.434.16-1.053-1.217-1.31 0 0 .935-1.037-.467-1.702s-3.938-1.27-5.213-1.48c-2.65-.435-8.632-.112-8.632-.112l2.457 4.16s1.368-.107 2.308.212c1.27.434 1.142.845 1.142.845" class="B"/><path d="M510.413 284.358l1.143-5.6-11.73-2.686-.453 7.423 11.04.873m13.417 5.942s-.967-2.075-.846-6.186c0 0 7.274-2.656 12.923-3.273v7.135L523.83 290.3" class="D"/><path d="M511.556 278.748l-8.222-4.572.117 2.715 8.105 1.857m21.614-.608c-6.597 2.62-9.237 4.985-9.963 5.735-.155.16-.222.248-.222.248l9.368-2.732c.234-1.134.54-2.2.817-3.25" fill="#b33636"/><g class="B"><path d="M517.96 354.98s9.172-1.325 7.83-14.862-9.437-12.466-9.978-12.454-8.122-.282-8.777 16.24c0 0-.305 12.217 10.925 11.077"/><path d="M522.035 330.064s-.566-7.043.79-9.152-1.16-4.975-6.345-3.994-4.882 3.918-4.882 3.918 1.45 4.348 1.026 7.826 9.412 1.402 9.412 1.402"/></g><path d="M516.91 350.07l6.277-6.786c1.99-2.28 2.218-6.687 2.218-6.687s3.355 4.095 1.95 8.865-4.72 14.05-13.118 11.2-8.71-15.398-7.724-21.62c0 0 3.77 13.733 10.396 15.028" class="J"/><path d="M513.298 328.276s3.907-1.846 7.7.882c0 0-1.056-2.182-3.856-2.492s-3.854 1.6-3.854 1.6" class="G"/><path d="M511.966 325.82s-12.618-11.226-9.344-18.23c2.794-5.978 12.705-2.312 11.07 3.952s-1.726 14.28-1.726 14.28" class="J"/><path d="M515.402 294.285a.79.79 0 0 0-.788-.789.79.79 0 0 0-.79.789.79.79 0 0 0 .79.789.79.79 0 0 0 .788-.789" fill="#48484d"/><g clip-path="url(#C)" transform="scale(.1)"><path d="M2142.36 3216.14c53.25 25.46 106.25-144.06 106.25-144.06 90.52-119.6 217 39.5 204.64-139.3-21.65-312.85 360.1-98.38 183.98-425-176.1-326.64 155.5-184.7 46.07-448.06-109.46-263.36 32.4-577.5-132.27-448.4 0 0-145 317.97-294.55 416.35-149.53 98.38 89.6 215.12 42.8 348.75-67.96 194.08-231.7 186.45-113.64 395.03 118.06 208.56-224.32 358.1-43.3 444.68" fill="url(#D)"/></g><path d="M260.318 173.1c-7.14 5.02-15.492 40.004-15.99 60.84-.256 10.674-3.4 15.12-6.195 19.045-2.66 3.75-4.96 6.99-3.62 14.425 2.56 14.214-4.167 20.35-4.235 20.407l.778.89c.3-.262 7.304-6.6 4.62-21.505-1.252-6.948.81-9.854 3.42-13.533 2.738-3.86 6.15-8.665 6.41-19.698.536-22.364 9.077-55.395 15.49-59.907l-.68-.964" class="C"/><g transform="scale(.1)"><g clip-path="url(#E)"><path d="M2974.73 2373.2c-13.1-7.15-24.06-18.63-36.76-31.92-31.72-33.22-71.22-74.56-171.23-75.05-49.8-.23-77.7-6.72-90.44-21.03-13.93-15.67-10.9-42.8-6.7-80.38 1.6-14.18 3.4-30.25 4.5-47.73 6.76-107.45-54.82-182.53-57.44-185.66-35.84-42.66-76.4-127.55-59.44-176.06 6.6-18.85 21.66-30.78 44.82-35.47 80.73-16.3 103 34.2 139.95 117.9l21.73 48.02c42.78 90.3 82.7 105.98 143.1 129.67 14.5 5.7 30.93 12.15 48.86 20.2 76.35 34.32 62.58 81.44 48 131.32l-5.97 21.3c-9.2 35.9 8.94 54.4 31.86 77.8 16.52 16.84 35.22 35.92 50 66.84 7.76 16.2 14.16 38.22.6 51.07-17.84 16.92-63.18 12.27-105.46-10.82zm-344.85-668.14c-9.2 0-19.2 1.05-30.18 3.28-27.5 5.55-45.55 20.07-53.6 43.14-19.25 55.02 25.34 144.42 61.52 187.52.6.72 61.17 74.75 54.7 177.35-1.08 17.2-2.86 33.12-4.44 47.15-4.55 40.6-7.85 69.95 9.6 89.54 15.37 17.27 45.04 24.75 99.2 25 95 .45 132.57 39.78 162.75 71.38 12.82 13.42 24.93 26.1 39.64 34.13 47.34 25.85 97.5 29.64 119.24 9.04 10.33-9.8 19.05-28.98 1.94-64.75-15.64-32.68-35.9-53.38-52.22-70-21.92-22.38-36.4-37.16-28.86-66.62 1.75-6.9 3.8-13.9 5.85-20.9 14.65-50.1 31.24-106.87-54.5-145.4-18.2-8.16-34.75-14.68-49.38-20.42-59.85-23.47-95.97-37.66-136.75-123.74-7.9-16.66-14.86-32.44-21.6-47.72-32.15-72.86-56.48-127.97-122.92-127.98" fill="url(#F)"/></g><g clip-path="url(#G)"><path d="M2600.97 1636.9l-11.8.6c.6 11.07 15.46 272.17 120.3 348.57 115 83.83 151.26 173.93 168.53 234.4 20.35 71.25 123.92 90.3 128.32 91.07l2.05-11.64c-1-.17-100.7-18.55-119.02-82.68-17.74-62.14-54.98-154.7-172.93-240.7-100.33-73.1-115.3-336.98-115.45-339.63" fill="url(#H)"/></g><g clip-path="url(#I)"><path d="M2840.65 2952.66c-74.5 25.55-59.02-118.05-90.5-224.3-31.47-106.26-350.24-46.36-216.43-312.42 133.8-266.07-169.22-89-78.7-321.17 90.5-232.17 7.87-480.5 106.25-417.34 98.37 63.17 55.28 355.55 157.58 390.28 102.32 34.75 119.02 75.26 17.72 169.7-101.3 94.45 265.45 188.22 174.93 378.93-90.5 190.7 15.25 306.8-70.83 336.3" fill="url(#J)"/></g></g><path d="M260.7 168.855c-.938 3.976-8.94 38.956-1.474 43.183 6.582 3.727 6.42 18.222 5.393 31.908-.908 12.116 14.652 17.78 15.315 18.015l.395-1.113c-.153-.055-15.374-5.598-14.532-16.814 1.054-14.055 1.167-28.972-5.988-33.022-5.67-3.212-.45-31.324 2.04-41.885l-1.15-.272" class="C"/><g transform="scale(.1)"><g clip-path="url(#K)"><path d="M2776.26 1813.12l-106.36-403.6h-237.74l-106.37 403.6h450.47" fill="url(#L)"/></g><g clip-path="url(#M)"><path d="M2776.26 1813.12s-234.18-43.98-234.18-403.6h-109.92l-106.37 403.6h450.47" fill="url(#N)"/></g></g><path d="M58.98 378.42l75.76-.35-.306-66.478-11.513 11.62-64.194.295.252 54.913" fill="#78c2ff"/><path d="M90.94 348.6a5.79 5.79 0 0 1 5.769-5.804c3.195-.01 5.793 2.572 5.803 5.767a5.79 5.79 0 0 1-5.767 5.805 5.79 5.79 0 0 1-5.805-5.768m-19.002.062a5.79 5.79 0 0 1 5.768-5.805 5.79 5.79 0 0 1 5.804 5.768c.01 3.196-2.572 5.795-5.768 5.804s-5.795-2.572-5.804-5.767m37.57-.12a5.79 5.79 0 0 1 5.769-5.805 5.79 5.79 0 0 1 5.805 5.768 5.79 5.79 0 0 1-5.77 5.805 5.79 5.79 0 0 1-5.804-5.768" class="C"/><g fill="#ffd255"><path d="M196.66 371.703a10.32 10.32 0 0 1-6.636-12.974 10.29 10.29 0 0 1 7.034-6.754l.127-.036.1-.097c1.255-1.373 2.987-3.492 4.118-5.785l.014-.032c.35-.874 1.087-1.536 2.076-1.866 1.016-.34 2.168-.286 3.246.147 2.2.882 3.393 3.1 2.658 4.923l-.007.015-.004.017c-.592 1.874-.934 4.132-1.015 6.707l-.006.145.08.12a10.26 10.26 0 0 1 1.2 8.834c-1.748 5.407-7.567 8.383-12.973 6.635zm10-28.394c-1.163-.375-2.384-.385-3.48-.02-1.242.413-2.176 1.258-2.63 2.377-1.057 2.14-2.673 4.134-3.877 5.46a11.21 11.21 0 0 0-7.532 7.32 11.24 11.24 0 0 0 7.225 14.13c5.9 1.903 12.228-1.337 14.13-7.225 1.037-3.206.6-6.66-1.224-9.498.087-2.424.4-4.543.963-6.3.9-2.298-.5-5.032-3.174-6.1-.133-.054-.267-.102-.4-.145m-3.366 2.755l-5.992 10.763 3.16-.986.8 2.222 1.9-1.005 1.44 2.77 3.298-11.886-.885-.246-2.673 9.64-.793-1.524-1.77.942-.737-2.053-1.806.565 4.875-8.754-.803-.447"/><path d="M211.535 342.996l-7.387-2.965-1.195 2.977 7.387 2.965 1.195-2.977"/><path d="M212.23 344.698l-9.764-3.92-1.923 4.792 9.763 3.92 1.924-4.792"/></g><path d="M204.135 138.348l-9.207 61.232 1.773.272 9.207-61.23-1.773-.273m-11.243-.001l-9.207 61.232 1.774.272 9.207-61.23-1.774-.273m-55.376-.001l-1.773.273 9.207 61.23 1.772-.272-9.206-61.232" fill="#5c5049"/><g fill="#fab46c"><path d="M197.81 198.955l7.212 75.88s-12.613 1.65-20.235 1.243l-11.456-77.122h24.48"/><path d="M197.8 202.812h-24.48v-3.857h24.48v3.857m-40.495-.765l-3.827 72.308s31.925 3.467 51.533.48l-47.706-72.787"/></g><path d="M182.808 297.77s4.93 14.456-4.477 18.937-17.395-1.997-18.903-5.502-1.1-9.88.177-14.324 1.1-11.213-1.696-13.475-6.26-6.02-6.1-13.673c.106-4.746 18.677 12.142 18.677 12.142l12.312 15.895" fill="#fccca2"/><path d="M170.256 142.21s-.293-10.217 1.166-10.83 6.98 2.937 9.415 6.45-3.05 11.69-3.952 16.2c-.377 1.89-4.667 5.287-6.76 4.315s-3.62-3.47-3.62-3.47 5.324-3.648 3.75-12.666" fill="#d4c3bd"/><path d="M166.507 154.877s1.812-3.486 2.743-6.19 1.106-10.197 1.693-10.717 5.214 1.814 5.83 4.615-1.26 8.4-3.045 11.344-3.603 4.418-3.603 4.418-3.155-.614-3.62-3.47" fill="#de9673"/><path d="M176.885 154.03l4.973-7.256-.942-.644-3.843 5.608-.188 2.292" fill="#d4c3bd"/><path d="M158.99 234.26s2.43-4.105 0-7.094-18.778-11.2-18.658-15.942 3.114-12.166 4.2-14.05 5.046-9.697 7.108-14.272 13.99-26.45 16.32-31.383.896 19.726.896 19.726L156.92 206.22l27.866 27.146s-3.374 7.507-25.797.896" fill="#de9673"/><path d="M169.59 280.573s-7.73-1.714-10.8-3.51-9.884-10.043-9.884-13.59 29.803-6.862 29.803-6.862l5.65-20.625s15.064 3.678 16.858 6.727-5.932 24.748-7.01 29.322-6.71 7.656-12.987 8.536-11.632 0-11.632 0" fill="#2f4563"/><path d="M187.864 233.583s-.538-3.526.896-5.02 8.044-10.2 4.544-18.772c-3.214-7.862-9.446-7.712-9.446-7.712h-9.645s2.8-14.152 1.897-23.476-5.16-30.623-5.248-31.698-4.078-4.44-5.244-2.737c0 0-.108 12.823-.737 17.665s-3.298 24.21-4.106 27.08-5.56 11.568-5.56 12.465-4.642 14.935 5.492 18.52 13.713 13.6 27.156 13.685" class="B"/><path d="M160.816 134.277s-6.652-7.758-5.904-9.154 7.274-2.105 11.378-.905 4.978 11.01 7.115 15.082c.895 1.704-.305 7.045-2.543 7.604s-4.995-.422-4.995-.422 1.844-6.183-5.05-12.205" fill="#e6d3cc"/><path d="M165.867 146.482s-.784-3.85-1.762-6.54-5.55-8.622-5.422-9.395 5.194-1.868 7.436-.08 4.303 7.322 4.766 10.735-.023 5.7-.023 5.7-2.84 1.506-4.995-.422" class="B"/><path d="M173.405 139.3l-.697-8.77-1.138.09.54 6.776 1.296 1.902" fill="#e6d3cc"/><path d="M193.304 209.8c-3.034-7.966-9.446-7.712-9.446-7.712h-9.644s-4.024 6.375-13.876 7.47c-2.183.242-4.654.226-7.43-.177l-.1-.015c-13.1-1.94-10.56-6.744-10.522-6.87-1.087 2.657-2.23 6.88-1.955 9.156 1.255 10.36 16.226 12.534 18.658 15.523s0 7.094 0 7.094c22.424 6.61 25.797-.896 25.797-.896.982.136 3.502 1.587 4.573 1.594 0 0 1.122-2.45 1.912-4.664.697-1.95 5.325-11.86 2.033-20.505" fill="#2f4563"/><g fill="#ded1c5"><path d="M184 266.836l3.318-30.848h-43.67l-3.318 30.848H184"/><path d="M190.793 238.764H183.5v-2.776h7.293v2.776"/></g><path d="M233.837 231.8H113.553v4.198h120.284V231.8" fill="#bc8551"/><g class="B"><path d="M174.422 314.242s9.784-2.894 8.386-16.472-7.788-12.88-8.386-12.98-8.186-.6-10.583 15.873 10.583 13.578 10.583 13.578"/><path d="M179.084 287.288s-.517-4.495.348-7.29-11.396-2.872-11.39-.573c.007 2.61 1.254 4.793.08 9.267s10.96-1.403 10.96-1.403"/></g><path d="M171.896 308.187s5.317-8.457 10.912-10.417c0 0 3.055 14.19-9.563 17.164s-10.643-14.334-9.7-18.95c0 0 2.627 6.79 8.352 12.202" fill="#fccca2"/><path d="M169.574 286.715s3.87-4.033 8.822-.42c0 0-.41-2.578-3.97-2.912s-4.852 3.332-4.852 3.332" class="G"/><path d="M164.766 309.462s2.8 5.42 7.524 5.66 7.535-3.857 7.535-3.857-1.845 4.615-7.53 4.615-7.53-6.42-7.53-6.42" fill="#23344a"/><path d="M180.684 280.645s-.174-9.4-7.626-9.678-5.902 9.013-5.902 9.013 5.452 2.21 13.528.665" class="B"/><path d="M230.748 135.342h3.1V231.8h-3.1v-96.448m-117.195-.01h3.1V231.8h-3.1v-96.448" fill="#807066"/></g></svg>