<svg xmlns="http://www.w3.org/2000/svg" xmlns:xlink="http://www.w3.org/1999/xlink" width="1024" height="809" viewBox="0 0 1024 808.75"><style><![CDATA[.B{fill:#5960a3}.C{fill:#f1a498}.D{fill:#fcd6cb}.E{fill:#c2baef}.F{fill:#33624b}.G{fill:#1d274a}.H{fill:#545454}.I{fill:#fff}.J{fill:#ef888b}.K{opacity:.5}.L{fill:#d6d8d9}.M{fill:#3a4774}.N{fill:#9780da}.O{fill:#34416b}.P{fill:#224031}]]></style><defs><clipPath id="A"><path d="M0 1815.42h2280V0H0z"/></clipPath><clipPath id="B"><path d="M1427.8 598.914h7.28v-7.287h-7.28z"/></clipPath><clipPath id="C"><path d="M1425.28 595.824h1.2v-4.104h-1.2z"/></clipPath><clipPath id="D"><path d="M1450.94 650.386h13.76V622h-13.76z"/></clipPath><clipPath id="E"><path d="M1368.5 299.395h605.62V154.3H1368.5z"/></clipPath><clipPath id="F"><path d="M1023.95 369.892h369.76v-68.896h-369.76z"/></clipPath><clipPath id="G"><path d="M1869.7 310.297h174.3v-26.24h-174.3z"/></clipPath><clipPath id="H"><path d="M187.16 359.988h695.807V230.343H187.16z"/></clipPath><clipPath id="I"><path d="M505.817 659.016H577.5V642.73h-71.684z"/></clipPath><clipPath id="J"><path d="M1743.77 458.52h147.44V430.7h-147.44z"/></clipPath><clipPath id="K"><path d="M1789.14 758.643h22.73v-59.46h-22.73z"/></clipPath><clipPath id="L"><path d="M1642.23 713.66h22.1v-17.094h-22.1z"/></clipPath><clipPath id="M"><path d="M1656.27 574.794h63.94v-11.422h-63.94z"/></clipPath><clipPath id="N"><path d="M1759.18 764.268H1785v-42.82h-25.83z"/></clipPath><path id="O" d="M1408.695 1483.727c-7.615 0-13.812-6.196-13.812-13.812s6.197-13.812 13.812-13.812 13.813 6.196 13.813 13.812-6.197 13.812-13.813 13.812m0-30.22a16.43 16.43 0 0 0-16.407 16.407 16.43 16.43 0 0 0 16.407 16.407c9.048 0 16.407-7.36 16.407-16.407s-7.36-16.407-16.407-16.407"/><path id="P" d="M342.053 1622.737c0-4.083-3.3-7.393-7.393-7.393s-7.393 3.3-7.393 7.393 3.3 7.393 7.393 7.393 7.393-3.3 7.393-7.393"/></defs><g clip-path="url(#A)" transform="matrix(.534599 0 0 -.534599 -100.055987 891.23862)"><path d="M1419.834 603.02c-.124.29-.3 23.177-6.123 34.028 0 0-1.085 2.558 0 2.015s5.34-5.62 6.58-10.58 2.798-5.697 4.813-9.03 2.326-24.338 2.248-24.65-3.1-.388-3.255 0-4.264 8.216-4.264 8.216" class="F"/><path d="M1427.342 594.803c-.02-.08-.237-.144-.553-.2l-5.9 23.52c-.795 6.263-2.16 13.19-4.528 18.08 1.52-2.042 3.204-4.904 3.91-7.732 1.24-4.96 2.798-5.697 4.814-9.03s2.325-24.338 2.246-24.648" class="P"/><path d="M1428.63 627.185s-1.587 12.11-1.587 15.753-.465 11.316 0 11.704.683.388.69-1.317 5.2-25.735 6.44-28.137-.62-4.884 1.163-11.627 7.868-14.96 3.47-14.185-12.072 3.954-10.833 10.697.657 17.112.657 17.112" class="F"/><path d="M1434.885 603.02c.142.62-1.873 15.192-.866 19.766s2.403 6.51 1.86 13.022.543 13.486 1.163 13.642 1.162-5.814 1.162-9.07 1.008-14.96 1.32-16.82-4.638-20.54-4.638-20.54" class="P"/><path d="M1434.885 603.02s.297 13.875 3.553 21.16 4.495 17.362 4.495 21.16 1.783 16.172 1.783 17 .388.828.93-.567 0-19.688 0-25.656-.85-12.167-1.28-15.966-7.092-26.183-8.953-25.6-4.262 3.595-3.565 4.37 3.036 4.107 3.036 4.107m36.496 59.21s-.542.388-1.123-.35-16.627-24.566-19.572-31.757l.467-8.122 5.734 11.472z" class="F"/><g fill="#448465"><path d="M1427.354 591.548l-.867.172-1.207.302c-1.89.53-2.857-.918-3.417-.302-.775.853-5.205 9.903-6.833 12.152s-2.325 5.814-2.8 7.285-3.024 8.218-2.79 9.534c.195 1.097-.102 2.393-.235 3.48-.188 1.565-.427 3.125-.655 4.686-.057.385-.245.974-.136 1.2.057.107.187.123.448-.03.727-.423 1.253-2.07 1.586-2.816.308-.698 1.006-2.867 1.783-3.798s1.47-2.248 1.78-3.254 1.24-3.412 2.093-4.807a361.05 361.05 0 0 0 5.115-8.913c.628-1.158 2.844-6.632 4.43-10.606l.168-.42 1.527-3.857"/><path d="M1435.3 596.52l-5.146-4.97-4.213.296s-.554 18.075-2.007 24.644-5 24-7.732 28.95-6.918 12.905-8.72 14.823c0 0-2.617 2.384-1 2.56s6.5-6.046 7.848-7.2 6.802-11.336 8.14-13.952 3.72-6.452 4.244-7.848 2.8-9.94 3.138-11.278.465-3.023 1.28-4 .522-1.86.348-2.85 1-2.44 1.22-2.906 0-1.105 0-2.5 1.686-2.44 1.396-3.662.057-1.977.58-2.85-.233-1.57 0-2.907l.293-1.934.104-.768.214-1.628m15.966 27.35s1.115 1.627 1.27 2.8.387.93 1.395 2.17 1.008 1.938 1.008 2.48.077.62.697 1.318.853 1.783.93 2.326 0-.543.697.774.697 2.946 1.396 3.333 1.317.853 1.394 1.396-.542 1.24 0 1.705 1.008.3 1.24.853.465 1.627.543 2.092.775 1.473 1.008 1.628.465.93.542 1.396 1.288.232 1.303 1.008-.247 1.317 0 1.705.713.387.945.93-.3 1.008 0 1.55.93.542 1.085 1.085.233 1.085.698 1.705-.155-.775.93 1.008 2.093 4.728 3.022 5.115c0 0 .08-.465-.386-1.162s-1.88-3.72-2.695-6.57-10.017-18.778-12.42-25.83-5.968-15.348-6.588-16.045z"/></g><path d="M1464.698 637.57s-1.976.192-4.36-4.4-7.75-16.102-9.37-18.835-3.54-16.57-6.097-18.545-.116-2.267 1.976-.524 6.29 12.848 7.4 16.22c.72 2.21 3.477 11.73 6.273 18.69 1.47 3.664 2.748 6.787 4.19 7.395" class="F"/><g fill="#448465"><path d="M1463.317 635.496c-2.71-2.714-6.51-20.463-9.146-30.77s-9.3-12.256-9.534-12.325c-.47-.143-4.34-.852-4.34-.852h-.043l.483.187c.007.005.014.008.02.01 6.628 3.072 11.632 16.39 12.176 17.475s0 1.006 0 1.62.775.473 1.162 1.248.3 1.86.234 2.897.385.824.773 1.367.698 2.712.62 3.566.154 1.162.93 1.627.774 1.628.774 2.867.388 1.396 1.162 2.093 3.332 8.37 4.418 9.923 3.024 1.783.3-.93"/><path d="M1450.76 612.166c-.458-2.21-.914-16.27-10.004-20.42-.007-.002-.014-.005-.02-.01l-.44-.187h-10.134l.004.004c.09.114 1.582 1.98 3.266 4.272l1.662 2.322c1.156 1.67 2.22 3.335 2.795 4.563 1.71 3.644 1.323 4.263 1.476 5.04s.622.3 1.164 1.316.387 2.637.387 3.334 1.163 1.782 1.473 2.326.544 3.565 1.55 4.883l.427.544v.002c.684.845.977 1.1 1.433 2.09.542 1.162 4.03 7.906 3.72 12.48s.387 9.534 1.007 9.3.62-6.434.776-9.07-.08-20.542-.544-22.788"/></g><g clip-path="url(#B)" opacity=".8" class="F"><path d="M1435.095 598.147s-2.677-4.07-6.066-6.52l-1.214.086c2.473 1.748 5.854 4.49 7.176 7.202l.104-.768"/></g><g clip-path="url(#C)" opacity=".8" class="F"><path d="M1426.486 591.72l-1.207.302c-.027 1.25.38 3.802.38 3.802l.168-.418.66-3.686"/></g><path d="M1447.74 599.325s-1.258-1.91-2.855-3.636c-1.86-2-4.13-3.89-4.588-4.14 0 0 5.59 3.298 8.727 9.5z" class="F"/><g clip-path="url(#D)" opacity=".6" class="P"><path d="M1464.59 650.386c.007-.33.116-.737.107-1.247-.016-.776-1.225-.544-1.304-1.01s-.3-1.24-.542-1.395-.93-1.162-1.007-1.627-.312-1.55-.544-2.094-.698-.386-1.24-.85.076-1.163 0-1.707-.7-1.007-1.396-1.394-.697-2.015-1.395-3.333-.62-.233-.698-.775-.31-1.627-.93-2.325-.698-.776-.698-1.318 0-1.24-1.006-2.482-1.242-1.006-1.396-2.17-1.27-2.8-1.27-2.8l-.33-1.87c.002 1.41.383 5.07.41 5.186.018.084 7.44 13.06 13.24 23.2"/></g><path d="M1454.023 590.373v-4.778c0-.326-.266-.59-.594-.59h-.046c-.288 0-.535-.21-.584-.495l-2.128-12.7c-.988-5.887-5.94-10.257-11.847-10.552a9.85 9.85 0 0 0-.644-.019h-6.387a12.67 12.67 0 0 0-12.518 10.734l-1.933 12.52a.58.58 0 0 1-.199.357c-.102.09-.237.145-.384.145a.59.59 0 0 0-.592.591v4.778a2.16 2.16 0 0 0 2.162 2.16h33.53c1.193 0 2.163-.967 2.163-2.16" fill="#f4d892"/><path d="M1453.384 585.004c-.288 0-.535-.21-.584-.495l-2.128-12.7c-.988-5.887-5.94-10.256-11.848-10.552 6.94 6.207 6.588 15.633 5.524 19.428s-9.04 4.31-9.04 4.31z" fill="#efc764"/><g clip-path="url(#E)" opacity=".2" class="B"><path d="M1969.343 217.632s36.872-67.007-94.468-63.173-122.014 33.854-247.93 26.898-310.942-27.697-244.442 60.045 556.367 72.806 586.84-23.77"/></g><path d="M1773.22 247.98l-59.913 311.395c-.22 1.13-1.325 1.888-2.5 1.685a2.13 2.13 0 0 1-1.686-2.489l12.048-62.62c-.335.735-1.072 1.25-1.932 1.25h-241.18l11.808 61.372c.22 1.15-.537 2.265-1.713 2.492-1.137.2-2.245-.562-2.464-1.69l-59.914-311.396a2.13 2.13 0 0 1 1.683-2.486 2.01 2.01 0 0 1 .407-.039 2.13 2.13 0 0 1 2.087 1.724l47.287 245.772h241.998c1.143 0 2.07.908 2.118 2.04l47.68-247.813a2.13 2.13 0 0 1 2.087-1.723 2 2 0 0 1 .403.038 2.13 2.13 0 0 1 1.686 2.489" class="C"/><path d="M1642.438 1402.425c-131.707 194.854-173.175 133.046-427.844 122.695s-211.885 43.1-460.442 88.132c-62.516 11.326-129.322 5.89-181.06-34.246-49.097-38.088-52.44-104.224-88.486-144.5a98.81 98.81 0 0 0-8.592-8.513c-13.32-11.648-29.55-19.262-44.95-27.933-50.918-28.672-110.587-83.168-113.994-146.422-3.423-63.54 54.567-108.957 78.608-162.5 34.594-77.033-72.015-236.5.524-294.058l.014-.01c15.704-12.445 45.754-21.547 65.416-25.232 36.138-6.77 84.417 30.604 119.727 22.17 36.208-8.65 72.557-30.405 106.736-45.484 75.73-33.4 154.265-78.287 233.747-99.76 82.273-22.228 162.86-17.97 247.573-11.588 53.863 4.057 108.498 8.346 157.533 29.08 47.19 19.954 96.934 41.803 150.842 47.06 68.43 6.673 141.482-30.315 203.685-4.796 119.632 49.082 117.01 225.854 103.095 318.862-19.635 131.225-65.933 264.304-142.13 377.036" class="B"/><g clip-path="url(#F)" opacity=".2" class="B"><path d="M1026.857 339.82s-22.513 31.817 57.678 29.997 74.497-16.075 151.378-12.772 189.848 13.15 149.246-28.512-339.697-34.57-358.302 11.287"/></g><path d="M1671.302 570.123v-1.815c0-1.737-1.408-3.145-3.145-3.145h-163.685l35.052 5.48z" class="H"/><path d="M1539.43 570.643l-38.72 91.728-42.133 6.724 45.896-103.93z" class="L"/><path d="M1498.875 659.423c1.223-2.6 34.646-83.36 34.646-83.36l-27.214-1.538-38.968 90.236z" class="H"/><path d="M1539.523 570.643l131.778-.52-10.076-3.28c-3.416-1.112-6.986-1.678-10.58-1.678h-146.254z" class="L"/><path d="M1556.282 567.523h51.05l-17.832 1.8h-41.13zm61.748 0h3.566l-17.628 1.8h-6.724z" class="H"/><g clip-path="url(#G)" opacity=".2" class="B"><path d="M2043.982 297.177c0-7.246-39.016-13.12-87.145-13.12s-87.144 5.874-87.144 13.12 39.016 13.12 87.144 13.12 87.145-5.874 87.145-13.12"/></g><path d="M1908.137 609.414c7.966-12.46 9.63-27.912 15.967-41.273 5.32-11.214 14.014-20.785 24.605-27.242 2.918-1.78 4.71-2.706 5.853-4.047 1.033-1.215 1.533-2.77 1.85-5.61 1.094-9.792 1.233-19.74 1.53-29.58 1.035-34.378 1.168-68.788 1.263-103.18l.036-25.924h4.326c-.074 16.56-1.006 33.208-1.388 49.56-1.02 43.767-4.694 88.112-2.936 131.778.46 11.43-.154 23.4-5.774 33.374-3.453 6.124-8.586 11.1-13.645 15.98-12.367 11.93-24.925 24.006-39.98 32.287a24.28 24.28 0 0 1 1.709-15.874c1.752-3.67 4.397-6.826 6.587-10.252" fill="#ffc52d"/><g class="M"><path d="M1955.44 372.562h6.998c3.398 52.503 12.33 168.936 25.793 189.13 2.913 0 37.88 19.565 39.303 25.55s1.492 17.327 4.406 25.143c3.392 9.1 5.812 17.823 6.81 27.48.595 5.75 8.524 14.112 6.51 19.652-1.665 4.58-14.985-7.493-19.98-12.488s-12.905-15.82-20.815-20.398-18.316-27.057-20.77-36.215 0-26.18 0-26.18-21.725-93.693-24.99-145.318l-3.266-46.354"/><path d="M1955.76 413.08l-.283-40.518h9.054c1.67 33.39-.944 102.522-45.96 139.315 0 0 6.588.85 4.126 11.94s-18.548 23.853-18.002 29.96c.506 5.664-4.696 10.6-7.215 15.822-5.284 10.956-14.025 9.227-21.324 17.524-1.944 2.21-9.385 15.16-13.106 13.216-3.703-1.934-2.44-19.252-2.146-21.24.92-6.2 2.932-14.31 8.685-17.825 7.493-4.58 9.158-25.392 14.986-29.555s27.474-21.23 32.053-21.647 39.547-37.465 39.13-96.993"/></g><path d="M2086.695 571.02a80.76 80.76 0 0 0-14.047-4.395c-3.303-.71-6.76-1.253-9.565-3.135-2.722-1.824-4.553-4.733-7.203-6.66-3.032-2.206-6.872-2.95-10.195-4.684-5.397-2.818-9.122-8.106-11.563-13.686s-3.79-11.562-5.735-17.333c-.586-1.74-1.248-3.5-2.434-4.9-1.28-1.508-3.06-2.48-4.776-3.464-21.23-12.195-38.316-31.575-49.438-53.248-9.294-18.1-14.77-38.05-17.19-58.216-1.14-9.523-1.634-19.148-1.326-28.737h8.904c-.972 15.452-.7 31.02 1.53 46.354 1.896 13.092 5.23 26.025 10.488 38.185 4.083 9.443 9.33 18.393 15.77 26.425 4.992 6.224 10.686 11.88 16.963 16.808 4.433 3.48 9.15 6.578 14.065 9.337 3.426 1.924 8.937 6.008 12.588 5.566 4.912-.595 9.783-2.423 14.728-.917 3.53 1.075 6.37 3.64 9.115 6.106 8.928 8.026 18.15 15.773 26.25 24.634s15.113 18.97 18.796 30.396c.12.37.236.754.182 1.138-.123.88-1.123 1.41-2.008 1.343s-1.67-.56-2.425-1.026a80.67 80.67 0 0 0-11.476-5.892" fill="#ffc52d"/><path d="M1924.902 455.627c13.134-6.75 20.43-28.64 24.627-40.68 3.576-10.263 3.972-35.24 4-42.385h4.144c.092 65.587-31.505 86.167-31.505 86.167-.73 23.896-20.066 24.99-29.37 24.99s-18.8 4.196-24.992 6.02-9.303 1.826-9.303-1.093 15.942-7.292 23.167-11.675c.91-.552 26.45-17.696 29.825-19.064s9.396-2.28 9.396-2.28" class="M"/><g class="N"><path d="M2055.667 506.534c-7.076-2.082-17.9-6.87-28.515-6.87s-32.677-1.25-33.5-28.515c0 0-36.14-23.538-35.946-98.59h4.727c.035 7.77.45 36.8 4.577 48.636 4.787 13.736 13.112 38.714 28.1 46.415 0 0 6.868 1.04 10.718 2.602s32.994 21.12 34.032 21.75c8.244 5 26.433 9.99 26.433 13.32s-3.538 3.33-10.615 1.25"/><path d="M1939.94 488.565c4.084.545 22.048-81.943 16.448-116.003h4.43c.297 11.47.82 71.634-18.934 117.39-.707 1.638-.193 5.73-.465 7.624-.926 6.45-1.63 13.48-7.068 17.81-7.094 5.645-14.966 11.515-23.806 13.986-9.023 2.522-18.625 2.39-27.495 5.54-8.603 3.052-19.704 13.598-20.536 8.88 0 0 14.986-28.585 21.924-31.083s22.756-9.713 27.474-14.43 23.867-10.268 28.03-9.713"/><path d="M2060.287 601.137c-.075.084-.158.164-.252.24-15.468-12.82-37.738-13.07-55.642-22.18-8.917-4.538-16.556-11.183-24.096-17.76-3.256-2.84-6.594-5.784-8.505-9.657-2.79-5.657-2.098-12.425-.32-18.477.44-1.5.945-3.005.978-4.566.025-1.25-.254-2.485-.532-3.704-8.612-37.77-14.924-75.92-17.52-114.6-.844-12.6-1.364-25.24-1.244-37.87l7.14.001c-3.642 35.76.303 72.4 5.51 107.812 2.178 14.815 4.976 29.523 7.7 44.24.148.797.305 1.618.75 2.295 1.318 1.998 4.458 1.704 6.5 2.167 3.43.78 6.623 2.535 9.706 4.163 10.45 5.516 20.96 11.072 30.29 18.33 15.576 12.12 27.22 28.468 38.62 44.578 1.054 1.5 2.035 3.7.903 4.99"/></g><path d="M1997.9 379.778h-84.92s-2.405-69.768 24.265-85.738c.932-.56 2.002-.848 3.09-.848h30.213c1.087 0 2.158.29 3.09.848 26.67 15.97 24.265 85.738 24.265 85.738" class="D"/><path d="M1973.64 294.04a6.02 6.02 0 0 0-3.089-.85h-13.712a6 6 0 0 1 3.089.85c26.675 15.968 24.27 85.736 24.27 85.736h13.704s2.406-69.768-24.26-85.736" class="C"/><path d="M1862.77 489.86c5.937-.95 11.79-2.394 17.53-4.174 2.864-.92 5.678-1.98 8.507-2.984l8.446-3.148c2.808-1.075 5.57-2.282 8.26-3.636 1.356-.66 2.67-1.397 3.997-2.118 1.3-.766 2.59-1.552 3.834-2.41 2.506-1.685 4.877-3.594 6.98-5.78 2.1-2.185 3.872-4.724 4.928-7.553l-.077-.032c-1.292 2.71-3.177 5.068-5.315 7.128-2.136 2.07-4.53 3.856-6.994 5.526-4.96 3.308-10.328 5.996-15.79 8.456-2.74 1.215-5.52 2.35-8.366 3.296-2.833.983-5.727 1.78-8.6 2.597l-17.347 4.753z" class="N"/><path d="M1864.837 543.903c.563-1.917 1.507-3.702 2.628-5.338l.88-1.2.953-1.143 2.13-2.07c.713-.7 1.55-1.23 2.33-1.84l1.258-.8 1.285-.743 2.675-1.292 1.37-.58c.46-.188.94-.317 1.4-.48 1.865-.672 3.822-1.164 5.746-1.72l5.802-1.603c3.866-1.083 7.717-2.227 11.5-3.597 3.798-1.336 7.438-3.097 10.957-5.07 1.694-1.094 3.472-2.068 5.063-3.316l2.43-1.8 2.283-2c6.066-5.346 10.943-11.946 14.62-19.08l-.07-.04-3.26 5.05-3.586 4.805-1.955 2.27c-.668.74-1.262 1.548-2 2.222l-2.112 2.117c-.357.348-.7.72-1.064 1.05l-3.394 2.926-2.393 1.79c-1.553 1.253-3.294 2.238-4.953 3.343-3.454 1.988-7.004 3.837-10.727 5.313-3.715 1.485-7.53 2.74-11.412 3.74-3.873 1.056-7.813 1.782-11.685 2.954-3.848 1.22-7.557 3.12-10.536 5.9-1.52 1.348-2.824 2.933-3.902 4.646s-1.928 3.58-2.35 5.556z" class="E"/><path d="M1899.137 531.56c-.59 3.09-1.64 6.077-2.798 8.99-1.257 3.098-2.705 6.112-4.304 9.042-1.565 2.955-3.38 5.77-5.294 8.51a53.1 53.1 0 0 1-6.437 7.685c-1.174 1.198-2.464 2.264-3.796 3.28-1.357.982-2.798 1.806-3.963 2.997-2.373 2.314-3.913 5.32-5.13 8.367-2.423 6.145-3.637 12.73-4.32 19.332h-.084c.017-3.34.375-6.67.966-9.958.625-3.288 1.473-6.552 2.798-9.64 1.34-3.072 3.146-5.986 5.57-8.308 1.216-1.166 2.68-2.04 3.988-3.023.7-.458 1.266-1.074 1.9-1.606.633-.533 1.183-1.166 1.757-1.757 4.496-4.87 8.06-10.515 11.298-16.285 1.582-2.914 3.122-5.86 4.463-8.892 1.256-2.838 2.447-5.71 3.262-8.716z" class="N"/><path d="M1899.677 633.995c.182-.505.562-1.01.868-1.495l.992-1.456 2.06-2.864 4.253-5.627c2.88-3.717 5.87-7.345 8.975-10.866 1.55-1.763 3.14-3.493 4.816-5.134.832-.83 1.7-1.616 2.585-2.387.89-.75 1.86-1.457 2.68-2.312 3.323-3.377 6.01-7.283 8.585-11.23 2.562-3.962 4.892-8.072 7.043-12.27s4.166-8.47 5.942-12.845c1.814-4.358 3.4-8.813 4.714-13.35 1.248-4.54 2.36-9.2 2.29-13.938h-.083c-.07 2.352-.48 4.672-.983 6.962-.51 2.29-1.16 4.546-1.848 6.8-1.4 4.478-3.088 8.87-4.884 13.208-3.64 8.658-7.766 17.127-12.578 25.204-1.213 2.01-2.48 3.995-3.865 5.892-1.38 1.898-2.838 3.755-4.534 5.37-.826.83-1.773 1.51-2.7 2.256-.917.745-1.82 1.508-2.685 2.313-1.742 1.597-3.407 3.275-5 5.008-3.195 3.48-6.14 7.172-8.97 10.942-1.418 1.884-2.768 3.818-4.102 5.762a92.28 92.28 0 0 0-1.938 2.959l-.922 1.5a21.57 21.57 0 0 0-.434.773c-.128.272-.292.502-.35.84z" class="M"/><path d="M2060.07 600.78c-.597-1.06-1.337-2.022-2.113-2.95l-2.47-2.662c-1.736-1.686-3.552-3.297-5.483-4.756-3.84-2.95-7.93-5.557-12.16-7.9-4.26-2.288-8.638-4.333-13.05-6.28-2.2-.972-4.373-2.023-6.553-3.05-1.085-.52-2.13-1.124-3.19-1.694-1.047-.593-2.133-1.117-3.147-1.767-2.048-1.266-4.122-2.484-6.09-3.87-.987-.685-2.01-1.32-2.967-2.046l-2.89-2.153c-.983-.693-1.87-1.506-2.81-2.254-.927-.764-1.866-1.513-2.737-2.34l-2.667-2.417-2.56-2.532c-3.324-3.455-6.443-7.12-9.138-11.093-2.7-3.965-5.018-8.215-6.51-12.8l-.08.022c1.245 4.675 3.434 9.066 6.047 13.138 2.63 4.07 5.7 7.848 9.066 11.332 6.744 6.97 14.657 12.732 23.105 17.407 1.036.624 2.14 1.12 3.206 1.687l3.228 1.64 9.84 4.578c1.09.512 2.144 1.096 3.218 1.64 2.155 1.074 4.235 2.288 6.34 3.452 4.16 2.41 8.258 4.934 12.11 7.806 1.932 1.424 3.802 2.936 5.568 4.562 1.755 1.63 3.467 3.347 4.812 5.336z" class="E"/><path d="M2043.91 659.924c-6.11-6.9-11.964-14.028-17.676-21.264-2.863-3.613-5.727-7.234-8.367-11.006-2.672-3.763-5.18-7.634-7.543-11.597-2.33-3.972-4.562-8-6.66-12.097-2.057-4.113-3.94-8.317-5.628-12.59-1.64-4.287-3.03-8.675-4.005-13.163-.44-2.072-.808-4.162-1.04-6.268-.158-.117-.308-.234-.457-.35a53.74 53.74 0 0 0 .865 6.744c.874 4.554 2.165 9.025 3.838 13.346 3.314 8.658 7.743 16.834 12.705 24.618 2.473 3.897 5.08 7.7 7.685 11.522 2.63 3.79 5.278 7.578 8.067 11.257s5.73 7.243 8.742 10.748c3.03 3.49 6.127 6.91 9.416 10.158z" class="N"/><path d="M2100.605 577.403c.063-.02.082-.07.076-.12l-.034-.098a1.35 1.35 0 0 0-.095-.162c-.067-.103-.14-.2-.218-.295l-.473-.552-1.002-1.045-2.085-2.007-4.334-3.828c-2.953-2.478-5.97-4.884-9.128-7.103-3.18-2.18-6.43-4.3-9.98-5.86-.913-.36-1.817-.632-2.68-1.058-.86-.42-1.71-.867-2.542-1.345-1.673-.94-3.282-1.995-4.874-3.07-6.334-4.35-12.376-9.116-18.095-14.228a129.9 129.9 0 0 1-4.177-3.952c-1.367-1.34-2.696-2.723-3.946-4.173s-2.476-2.922-3.523-4.522c-1.044-1.594-2.008-3.272-2.506-5.132l-.08.02c.39 1.897 1.238 3.678 2.23 5.338 1 1.663 2.156 3.222 3.383 4.717 2.456 2.995 5.19 5.74 8.044 8.34 2.85 2.607 5.838 5.057 8.914 7.385 3.067 2.34 6.238 4.543 9.508 6.59 1.627 1.035 3.298 2 4.98 2.943a45.33 45.33 0 0 0 2.578 1.322c.873.412 1.802.736 2.676 1.1 1.755.756 3.396 1.77 4.993 2.826s3.156 2.185 4.697 3.33c3.086 2.282 6.137 4.618 9.125 7.035l4.45 3.662 2.18 1.885a37.41 37.41 0 0 1 1.056.976c.17.168.344.333.506.508a3.63 3.63 0 0 1 .233.268c.068.07.16.237.13.233z" class="M"/><path d="M2065.41 507.328l-18.534-6.902-9.274-3.424-4.543-1.95-4.526-2c-6.013-2.698-12.018-5.42-17.65-8.783-1.412-.832-2.772-1.747-4.116-2.678s-2.64-1.933-3.855-3.025c-2.433-2.166-4.638-4.66-6.06-7.64l-.077.032c1.2 3.104 3.303 5.793 5.697 8.087 2.415 2.295 5.132 4.243 7.968 5.96 2.826 1.738 5.79 3.226 8.79 4.617s6.057 2.646 9.128 3.85c3.076 1.197 6.11 2.467 9.135 3.795l9.142 3.804a237.68 237.68 0 0 0 18.751 6.335z" class="E"/><path d="M1441.925 907.272h-732.94c-19.083 0-34.697 15.614-34.697 34.697v444.068c0 19.084 15.614 34.697 34.697 34.697h732.94c19.083 0 34.697-15.613 34.697-34.697V941.97c0-19.083-15.614-34.697-34.697-34.697" class="I"/><g class="B"><path d="M993.893 1113.654h-71.3c-1.438 0-2.604 1.166-2.604 2.604v3.144c0 1.438 1.166 2.604 2.604 2.604h71.3c1.438 0 2.604-1.166 2.604-2.604v-3.144c0-1.438-1.166-2.604-2.604-2.604M783.53 990.5H769.5v129.424h14.04z"/><path d="M808.154 990.5h-14.042v123.167h14.042zm24.623 0h-14.042v54.944h14.042zm24.623 0h-14.042v101.646H857.4zm-107.14-1.45h-2.9v145.26h2.9z"/><path d="M883.832 989.05H747.36v2.9h136.473z"/><path d="M893.442 990.5l-15.712 9.07v-18.14zM748.8 1147.157l-9.07-15.7h18.142z"/></g><path d="M1398.747 1036.706h-261.97c-1.44 0-2.604 1.166-2.604 2.604v11.594c0 1.44 1.165 2.604 2.604 2.604h261.97c1.438 0 2.604-1.165 2.604-2.604V1039.3c0-1.438-1.166-2.604-2.604-2.604m-72.59-37.46h-189.38c-1.44 0-2.604 1.166-2.604 2.604v11.595c0 1.438 1.165 2.604 2.604 2.604h189.38c1.438 0 2.604-1.166 2.604-2.604v-11.595c0-1.438-1.166-2.604-2.604-2.604m28.138 187.706h-167.118c-1.44 0-2.605 1.166-2.605 2.604v5.02c0 1.44 1.166 2.604 2.605 2.604h167.118c1.437 0 2.604-1.165 2.604-2.604v-5.02c0-1.438-1.167-2.604-2.604-2.604m-5.95-22.806h-161.17c-1.438 0-2.604 1.166-2.604 2.604v5.02c0 1.438 1.166 2.604 2.604 2.604h161.17c1.438 0 2.604-1.166 2.604-2.604v-5.02c0-1.438-1.166-2.604-2.604-2.604m51.16-22.807h-212.33c-1.44 0-2.605 1.166-2.605 2.604v5.02c0 1.438 1.166 2.604 2.605 2.604h212.33c1.438 0 2.604-1.166 2.604-2.604v-5.02c0-1.438-1.166-2.604-2.604-2.604m-92.435-22.804h-119.895c-1.438 0-2.604 1.166-2.604 2.604v5.02c0 1.438 1.166 2.604 2.604 2.604h119.895c1.438 0 2.604-1.166 2.604-2.604v-5.02c0-1.438-1.166-2.604-2.604-2.604" class="E"/><path d="M1336.39 1282.835c0-31.135-25.24-56.375-56.374-56.375s-56.374 25.24-56.374 56.375 25.24 56.374 56.374 56.374v-56.374z" class="B"/><path d="M1287.495 1347.555v-56.623h56.624m0 0c0 31.27-25.353 56.623-56.624 56.623m-218.18-154.602H739.796c-4.724 0-8.553 3.83-8.553 8.553v147.443c0 4.724 3.83 8.553 8.553 8.553h329.518c4.723 0 8.552-3.83 8.552-8.553v-147.443c0-4.724-3.83-8.553-8.552-8.553" class="E"/><path d="M1057.557 1318.526H850c-1.44 0-2.604 1.166-2.604 2.604v3.144c0 1.438 1.165 2.604 2.604 2.604h207.547c1.438 0 2.604-1.166 2.604-2.604v-3.144c0-1.438-1.166-2.604-2.604-2.604m-75.504-18.624H850c-1.44 0-2.604 1.166-2.604 2.604v3.144c0 1.438 1.165 2.604 2.604 2.604h132.033c1.438 0 2.604-1.166 2.604-2.604v-3.144c0-1.438-1.166-2.604-2.604-2.604m42.21-18.624H850c-1.44 0-2.604 1.166-2.604 2.604v3.144c0 1.438 1.165 2.604 2.604 2.604h174.234c1.438 0 2.604-1.166 2.604-2.604v-3.144c0-1.438-1.166-2.604-2.604-2.604m-123.864-18.625H850c-1.44 0-2.604 1.166-2.604 2.604v3.144c0 1.438 1.165 2.604 2.604 2.604h50.36c1.438 0 2.604-1.166 2.604-2.604v-3.144c0-1.438-1.166-2.604-2.604-2.604m157.197-29.613h-296.68c-1.438 0-2.604 1.166-2.604 2.604v3.144c0 1.438 1.166 2.604 2.604 2.604h296.68c1.438 0 2.604-1.166 2.604-2.604v-3.144c0-1.438-1.166-2.604-2.604-2.604m-9.457-18.624H760.878c-1.438 0-2.604 1.166-2.604 2.604v3.144c0 1.438 1.166 2.604 2.604 2.604H1048.1c1.438 0 2.604-1.166 2.604-2.604v-3.144c0-1.438-1.166-2.604-2.604-2.604" class="I"/><path d="M818.255 1296.887c0-16.563-13.427-30-29.99-30s-30 13.427-30 30 13.427 29.99 30 29.99 29.99-13.428 29.99-29.99" class="B"/><g class="E"><path d="M781.87 1484.727c-7.616 0-13.813-6.196-13.813-13.812s6.197-13.812 13.813-13.812 13.812 6.196 13.812 13.812-6.197 13.812-13.812 13.812m0-30.22a16.43 16.43 0 0 0-16.407 16.407 16.43 16.43 0 0 0 16.407 16.407 16.43 16.43 0 0 0 16.407-16.407 16.43 16.43 0 0 0-16.407-16.407"/><path d="M781.87 1484.727a1.3 1.3 0 0 0-1.298 1.298v137.014H459.583c-.717 0-1.297.58-1.297 1.297s.58 1.298 1.297 1.298H781.87c.717 0 1.297-.58 1.297-1.298v-138.31c0-.717-.58-1.298-1.297-1.298"/><use xlink:href="#O"/><path d="M1408.695 1483.726c-.717 0-1.297.58-1.297 1.298v90.117c0 .717.58 1.297 1.297 1.297h245.44c.717 0 1.297-.58 1.297-1.297s-.58-1.298-1.297-1.298h-244.14v-88.82c0-.717-.58-1.298-1.298-1.298"/><use xlink:href="#O" x="126.613" y="-298.167"/><path d="M1828.162 1170.45h-277.666c-.762 0-1.377.58-1.377 1.298s.615 1.297 1.377 1.297h277.666c.76 0 1.377-.58 1.377-1.297s-.616-1.298-1.377-1.298"/></g><path d="M1805.904 1524.84H1682.4c-4.257 0-7.706 3.45-7.706 7.706v85.19c0 4.256 3.45 7.706 7.706 7.706h123.514c4.256 0 7.705-3.45 7.705-7.706v-85.19c0-4.257-3.45-7.706-7.705-7.706" class="B"/><path d="M1784.866 1596.697c0-7.938-6.434-14.372-14.37-14.372s-14.372 6.434-14.372 14.372 6.43 14.372 14.372 14.372 14.37-6.434 14.37-14.372" class="E"/><path d="M1801.633 1596.697c0-7.938-6.434-14.372-14.37-14.372s-14.37 6.434-14.37 14.372 6.433 14.372 14.37 14.372 14.37-6.434 14.37-14.372m-93.413 11.977h-21.558c-1.324 0-2.395-1.073-2.395-2.395s1.07-2.396 2.395-2.396h21.558c1.324 0 2.395 1.074 2.395 2.396s-1.07 2.395-2.395 2.395m31.136-11.294h-52.695c-1.325 0-2.396-1.073-2.396-2.396s1.07-2.395 2.396-2.395h52.695c1.325 0 2.396 1.074 2.396 2.395s-1.07 2.396-2.396 2.396m2.396 8.898c0 1.322-1.07 2.395-2.396 2.395H1717.8c-1.324 0-2.395-1.073-2.395-2.395s1.07-2.396 2.395-2.396h21.557c1.326 0 2.396 1.074 2.396 2.396" class="I"/><path d="M1686.66 1555.978h21.558v-14.372h-21.558zm31.14 0h21.558v-14.372H1717.8zm31.138 0h21.558v-14.372h-21.558zm31.138 0h21.557v-14.372h-21.557z" class="E"/><path d="M1878.193 1242.226c9.413-2.322 15.188-11.878 12.866-21.292a17.62 17.62 0 0 0-21.29-12.867c-9.412 2.32-15.2 11.878-12.867 21.292s11.878 15.2 21.292 12.867m-44.322-18.715c.13-3.117.616-6.2 1.456-9.207l-5.56-4.302a4.52 4.52 0 0 1-1.105-5.895l5.502-9.104a4.5 4.5 0 0 1 5.733-1.762l6.35 2.895a39.66 39.66 0 0 1 7.764-5.807l-.9-7.032a4.51 4.51 0 0 1 3.387-4.947l10.33-2.548a4.51 4.51 0 0 1 5.299 2.805l2.388 6.405a40.18 40.18 0 0 1 10.22 1.464l4.136-5.334a4.52 4.52 0 0 1 5.895-1.106l9.103 5.502a4.5 4.5 0 0 1 1.763 5.733l-2.746 6.056c2.37 2.463 4.423 5.206 6.077 8.193l6.336-.8a4.51 4.51 0 0 1 4.947 3.388l2.548 10.33a4.51 4.51 0 0 1-2.805 5.299l-5.9 2.207a39.58 39.58 0 0 1-1.44 9.938l4.902 3.802a4.52 4.52 0 0 1 1.106 5.896l-5.5 9.082a4.5 4.5 0 0 1-5.733 1.762l-5.482-2.502c-2.545 2.48-5.4 4.6-8.518 6.322l.77 6.107c.287 2.28-1.172 4.4-3.387 4.947l-10.33 2.548a4.51 4.51 0 0 1-5.299-2.805l-2.156-5.765a39.48 39.48 0 0 1-10.758-1.716l-3.828 4.946a4.52 4.52 0 0 1-5.896 1.105l-9.103-5.5a4.5 4.5 0 0 1-1.763-5.733l2.738-6.017c-2.3-2.48-4.267-5.244-5.848-8.232l-6.547.844c-2.28.286-4.402-1.173-4.95-3.387l-2.547-10.33a4.51 4.51 0 0 1 2.805-5.3zm110.81-72.33c-7.846 1.237-13.217 8.638-11.962 16.48 1.237 7.845 8.64 13.216 16.48 11.96 7.845-1.237 13.216-8.638 11.962-16.48-1.238-7.845-8.64-13.215-16.48-11.96m36.944 34.504l-4.316 5.948a4.44 4.44 0 0 1-5.783 1.261l-3.706-2.078c-2.242 1.856-4.727 3.386-7.4 4.576l.177 4.362c.096 2.252-1.527 4.23-3.75 4.596l-7.26 1.148c-2.227.348-4.38-1.012-5-3.192l-1.18-4.2a32.18 32.18 0 0 1-8.66-2.14l-3 3.275a4.45 4.45 0 0 1-5.893.591l-5.956-4.35c-1.833-1.33-2.374-3.82-1.262-5.783l2.322-4.134a33.31 33.31 0 0 1-4.214-7.11l-4.725.192c-2.252.097-4.232-1.526-4.596-3.75l-1.148-7.262c-.348-2.227 1.012-4.38 3.193-5l4.823-1.355a32.83 32.83 0 0 1 1.822-7.425l-3.728-3.43a4.45 4.45 0 0 1-.59-5.893l4.317-5.948a4.44 4.44 0 0 1 5.783-1.261l4.388 2.46c2.068-1.667 4.324-3.086 6.73-4.194l-.217-5.123c-.097-2.252 1.526-4.23 3.75-4.596l7.262-1.148c2.227-.348 4.38 1.012 5 3.193l1.334 4.738c2.82.277 5.586.916 8.232 1.897l3.3-3.564a4.45 4.45 0 0 1 5.893-.591l5.947 4.316c1.833 1.328 2.374 3.82 1.262 5.783l-2.34 4.138c1.766 2.17 3.254 4.558 4.396 7.103l4.544-.184c2.253-.097 4.23 1.527 4.595 3.75l1.15 7.26c.347 2.227-1.012 4.38-3.193 5l-4.3 1.2a32.37 32.37 0 0 1-1.859 8.021l3.25 2.98a4.43 4.43 0 0 1 .63 5.902m-109.37-39.307c6.265-1.62 10.023-8.035 8.405-14.3s-8.034-10.024-14.3-8.406-10.023 8.035-8.405 14.3 8.034 10.023 14.3 8.405m-29.48 2.02a4.45 4.45 0 0 1-4.925-3.301l-1.132-4.365c-.577-2.2.6-4.46 2.7-5.274l3.116-1.2c.054-2.088.355-4.144.906-6.153l-2.708-2.05c-1.807-1.37-2.3-3.854-1.158-5.8l2.3-3.887a4.45 4.45 0 0 1 5.648-1.815l3.068 1.354a26.09 26.09 0 0 1 5.127-3.926l-.474-3.408c-.312-2.236 1.108-4.366 3.3-4.926l4.365-1.13a4.44 4.44 0 0 1 5.274 2.701l1.175 3.05a26.8 26.8 0 0 1 6.827.886l1.94-2.553c1.372-1.807 3.855-2.3 5.8-1.157l3.888 2.3a4.45 4.45 0 0 1 1.814 5.647l-1.26 2.862a25.85 25.85 0 0 1 4.125 5.408l2.945-.414c2.236-.313 4.367 1.107 4.926 3.3l1.13 4.365c.577 2.2-.6 4.46-2.7 5.274l-2.714 1.054a26.81 26.81 0 0 1-.876 6.642l2.277 1.714c1.806 1.372 2.3 3.855 1.157 5.8l-2.3 3.888a4.45 4.45 0 0 1-5.647 1.815l-2.5-1.093a26.19 26.19 0 0 1-5.624 4.287l.393 2.786c.312 2.236-1.108 4.366-3.3 4.926l-4.365 1.13a4.44 4.44 0 0 1-5.275-2.7l-1.012-2.614c-2.428-.025-4.848-.383-7.18-1.056l-1.728 2.298c-1.372 1.808-3.854 2.3-5.8 1.158l-3.9-2.304a4.45 4.45 0 0 1-1.814-5.647l1.263-2.844c-1.543-1.64-2.9-3.454-3.97-5.447z" class="B"/><path d="M268.244 1638.648h84.07c5.044 0 9.08-4.147 9.08-9.08v-52.234c0-5.045-4.148-9.08-9.08-9.08H294.36l-13.115-13.227c-.56-.56-1.232-.897-2.017-.897-1.57 0-2.915 1.233-2.915 2.914v11.2h-8.07c-5.044 0-9.08 4.147-9.08 9.08v52.234c0 5.044 4.148 9.08 9.08 9.08" class="E"/><path d="M429.504 1667.118h-112.39c-6.743 0-12.138-5.544-12.138-12.138v-69.83c0-6.743 5.545-12.138 12.138-12.138h77.473l17.533-17.682c.75-.75 1.65-1.2 2.697-1.2 2.1 0 3.897 1.648 3.897 3.896v14.985h10.79c6.743 0 12.138 5.545 12.138 12.138v69.83c0 6.743-5.544 12.138-12.138 12.138" class="B"/><g class="I"><use xlink:href="#P"/><path d="M380.702 1622.737c0-4.083-3.3-7.393-7.393-7.393s-7.392 3.3-7.392 7.393 3.31 7.393 7.392 7.393 7.393-3.3 7.393-7.393"/><use xlink:href="#P" x="77.299"/></g><g clip-path="url(#H)" opacity=".2" class="B"><path d="M192.638 303.4s-42.364 59.87 108.536 56.446 140.185-30.25 284.854-24.033 357.247 24.747 280.844-53.652-639.222-65.054-674.234 21.24"/></g><path d="M766.497 611.96c-.22 1.15-1.354 1.918-2.55 1.727-1.178-.228-1.95-1.37-1.726-2.55l11.458-59.553H539.26c-.67 0-1.263-.31-1.662-.787l11.6 60.342c.224 1.177-.55 2.32-1.774 2.555-1.183.187-2.28-.573-2.504-1.735l-58.267-302.835c-.224-1.178.55-2.32 1.723-2.547.14-.028.278-.04.417-.04a2.18 2.18 0 0 1 2.137 1.767l46.26 240.427a2.17 2.17 0 0 1 2.059-1.501h235.256l45.97-238.927a2.18 2.18 0 0 1 2.137-1.766 2.12 2.12 0 0 1 .414.039c1.177.228 1.95 1.37 1.726 2.55z" class="C"/><path d="M365.896 860.452s7.51 25.264 7.51 37.554c0 8.908 7.856 18.143 14.086 23.63 11.785 10.377 27.462 14.07 42.83 11.6 9.345-1.503 22.404-4.522 28.242-12.497 7.452-10.18 14.57-24.207 10.435-37.07-1.38-4.29-2.613-9.612-5.297-13.353-.317-.442-.85-.835-1.132-1.26-2.267-3.445.3-10.183.607-14.017.192-2.394 1.376-10.34-2.03-11.314-4.78-1.365-2.73 2.4-4.78-1.367-1.73-3.173-3.32-6.432-5.3-9.463-1.967-3.01-5.15-4.962-6.274-8.44-1.36-4.218-.167-19.13-7.885-17.942-8.877 1.366-21.51 19.8-32.092 12.973s-11.95-11.607-11.95-11.607z" class="D"/><path d="M493.44 623.385v-2.13c0-2.036 1.65-3.686 3.687-3.686h191.95l-41.105 6.425z" class="H"/><path d="M648.086 623.995l45.406 107.566 49.41 7.886L689.08 617.57z" class="L"/><path d="M695.643 728.106c-1.434-3.05-40.628-97.755-40.628-97.755l31.913-1.804 45.697 105.82z" class="H"/><path d="M647.975 623.995l-154.533-.6 11.815-3.847c4.006-1.305 8.193-1.97 12.406-1.97h171.5z" class="L"/><path d="M628.323 620.336H568.46l20.9 2.112h48.24zm-72.41 0h-4.182l20.672 2.112h7.886z" class="H"/><path d="M693.89 617.57h159.793c-.793-14.27-22.197-11.892-22.197-11.892H454.438s-21.404-2.378-22.196 11.892z" class="J"/><path d="M234.83 531.243s-1.353-15.563 5.794-17.29 34.08 4.85 33.093 17.29-.683 23.997-10.925 25.362-28.064-21.463-28.064-21.463" class="C"/><path d="M440.74 502.113v.177l-1.517-.07-1.517.07v-.177C418.598 500.566 315.637 485.56 317 341.864h8.317c3.594 5.465 1.41 143.154 113.915 148.613 112.504-5.46 110.32-143.148 113.915-148.613h8.317c1.353 143.696-101.608 158.702-120.715 160.25" class="J"/><path d="M350.243 461.345v.176l-1.517-.07-1.517.07v-.176c-19.107-1.547-122.068-16.553-120.716-160.25h8.318c3.594 5.465 1.41 143.155 113.915 148.614 112.504-5.46 110.32-143.15 113.915-148.614h8.317c1.353 143.697-101.608 158.703-120.715 160.25" class="C"/><path d="M221.922 491.154s-9.656-18.33 7.414-23.21 213.955-15.807 225.102-13.758 23.816 22.438 23.813 22.52-252.33 14.45-252.33 14.45z" class="J"/><path d="M187.17 795.633l10.857-255.186c.42-9.66 9.57-16.545 18.962-14.246 25.708 6.296 51.028 15.74 66.286 36.66 17.987 24.663 16.585 58.15 12.328 88.376-6.137 43.567-16.7 86.78-35.008 126.783-6.57 14.35-14.844 29-28.646 36.668-17.247 9.572-32.383 1.6-44.78-10.838M486.464 471.2s-213.313 17.788-254.397 14.404 51.528 69.054 95.932 79.204 208.168 13.535 199.414-4.5-10.697-81.203-40.95-89.098" class="C"/><g class="D"><path d="M509.276 665.675l53.68-8.06c9.622-1.444 29.423-17.87 33.638-20.84s-7.712-9.98-14.815-5.548-7.582 8.13-20.775 6.484-26.488-7.416-36.236-3.363-18.952 8.283-18.952 8.283l3.003 20.004"/><path d="M506.87 648.784h54.283c9.73 0 31.75-13.306 36.36-15.614s-6.145-11.016-13.827-7.687-8.706 6.913-21.508 3.328-25.093-11.265-35.335-8.705-19.972 5.377-19.972 5.377v20.228"/></g><g clip-path="url(#I)" opacity=".7" class="C"><path d="M577.5 642.73c-6.76 3.257-13.806 6.054-18.27 6.054h-53.413l1.086 7.2.45 3.03 53.678-8.06c4.25-.635 10.478-4.19 16.47-8.225"/></g><path d="M520.2 365.988V348.56c0-.986 24.004-13.48 25.978-13.8s3.65 16.877 3.65 16.877l2.927 20.28z" class="D"/><path d="M519.565 351.627s-10.522-19.73-8.55-40.117 12.495-14.47 23.017-15.784 9.21 3.942 9.21 3.942c.233-.933 5.522-2.453 6.3-2.754 5.48-2.12 11.167-3.74 16.942-4.826 7.315-1.375 14.806-1.727 22.23-1.27 6.052.372 15.893.418 21.103 3.716 8.242 5.215 7 15.13-.73 19.83-15.126 9.208-37.668 5.698-45.18 17.536s-14.1 19.73-14.1 19.73-23.018-3.946-30.252 0" class="B"/><path d="M464.22 335.72v-18.094c0-1.024 24.922-13.998 26.97-14.34s3.79 17.522 3.79 17.522l3.04 21.057z" class="D"/><path d="M563.496 475.06c0-23.905-7.784-114.64-9.146-116.688-.635-.953-7.026-1.167-14.298-.92-8.378.287-17.924 1.187-21.21 2.284-1.2.4-1.915 3.85-2.325 9.074a74.49 74.49 0 0 0-.154 2.387c-1.085 19.746 1.332 58.39.594 62.312-.112.604-.296.4-.573-.79-2.725-11.604-9.833-90.734-13.93-99.613-1.035-2.244-3.165-3.708-5.92-4.62-8.142-2.694-21.754-.665-28.903-.154-9.556.676-7.784 7.805-7.098 17.36l.266 3.195c1.22 13.99 5.11 54.63-.113 77.963l-.245 1.096c-6.105 25.257-1.414 66.224-.04 74.746 1.362 8.52-32.1 9.238-55.48 3.093s-120.006-2.735-128.15 6.82c-4.506 5.295-6.34 22.532-7.077 36.85-.593 11.543-.49 26.034-.49 26.034s.008-4.842 4.105-2.794 110.614 32.09 135.88 35.51c25.258 3.41 88.758-9.566 113.34-13.663s34.147-15.7 36.195-27.99 4.773-67.597 4.773-91.492" fill="#34406b"/><path d="M367.513 865.403s-3.637 32.263 0 40.97 3.117 9.218 9.872 18.948 13.508 22.532 33.772 23.044 20.782-4.61 28.576-4.61 35.326-9.047 39.483-19.8 2.577-27.163-4.178-30.747-22.306 10.092-30.62 14.19-6.245-1.537-5.725-6.145-3.118-14.852-6.755-16.388-8.9.513-8.346-4.608-6.72-21.51-6.72-27.654 6.235-19.46 10.91-16.9 14.013 11.158 20.783 10.242c6.74-.913 8.704-2.026 8.704-2.026s-1.014-11.654-6.903-11.995c0 0-11.846 4.973-14.964.536 0 0 5.196-4.78 10.392-5.463s2.424-37.896-20.09-25.947-33.598 31.4-26.324 43.7 10.045 11.95 12.123 17.753 5.542 18.777.346 22.19-13.508 7.17-18.01-3.073-9.352-24.24-19.05-20.485-7.274 4.268-7.274 4.268" class="O"/><path d="M314.962 717.55l-5.02 10.426c2.274-1.3 3.893-5.1 5.02-10.426" class="B"/><path d="M519.803 664.372c-4.404 1.403-28.35 9.136-37.906 13.775-10.55 5.12-29.835 11.605-38.03 22.36s-13.314 4.384-16.9 17.043c-3.554 12.536-16.643 54.344-18.886 59.128a2.12 2.12 0 0 1-.062.133c-.952 1.904-5.1 6.76-9.3 11.42l-6.234 6.822c-9.707 17.115-38.734 52.087-45.518 48.332 0 0-47.626-21.51-57.868-74.768s-30.054-195.153-17.763-200.274c3.246-1.352 14.113-3.882 28.452-6.83 40.016-8.235 106.398-14.09 110.167-12.586 5.12 2.05 7.68 58.89 8.194 66.573.02.267.03.646.03 1.137l.016 1.948c16.316-.823 90.062-4.47 93.095-3.26 2.57 1.034.092 22.112-1.864 33.84-.635 3.8-1.21 6.637-1.547 7.477.328 1.638 6.022 9.27 11.922 7.732" class="E"/><path d="M363.867 863.866s-18.436-20.483-16.9-20.483 43.016-27.142 44.553-58.893l14.85 17.412s-30.214 57.867-42.505 61.964" class="I"/><path d="M416.065 582.378c-1.352-16.224-3.34-32.375-6.022-33.45-3.77-1.506-71.632 4.224-111.638 12.9.226 6.893 2.14 18.595 3.584 24.156 4.097 15.7-12.3 42.33-10.242 50.524s21.17-5.46 23.22 8.88c1.618 11.307 4.3 52.316.082 72.176 11.184-22.676 38.254-74.746 53.177-79.008 19.1-5.46 46.427-21.846 49.838-21.846.06 0 .122-.02.204-.06 0-.492-.01-.87-.03-1.137l-1.392-22.84zM426.98 698.97c3.585-12.66 8.706-6.3 16.9-17.043 7.292-9.565 53.125-20.433 64.003-25.287l-84.333 13.14c-3.88.5-27.95 113.5-24.827 118.448 4.2-4.66 2.923-10.54 3.875-12.444" class="B"/><path d="M496.533 328.485c-8.142-2.693-21.754-.665-28.903-.153-9.556.675-7.784 7.804-7.098 17.36l.267 3.195c1.218 13.992 5.1 54.63-.113 77.963l-.246 1.096c-6.104 25.257-1.413 66.225-.04 74.746 1.363 8.522-32.098 9.238-55.48 3.093s-120.006-2.735-128.148 6.82c-4.507 5.295-6.34 22.532-7.078 36.85.113-2.202 4.108-7.087 5.255-8.993 3.533-5.858 7.64-11 12.638-15.68 15.876-14.8 44.84-11.38 64.986-11.174l96.1 1.342c18.948 0 34.065-10.898 37.65-10.898s-3.585-7.68-3.585-11.266 6.412-3.585 7.303-5.12-14.472-2.048-11.4-13.827 6.657-18.435 3.073-39.432-9.218-79.232-4.097-89.986c3.595-7.558 17.422-10.56 18.907-15.937m43.518 28.966c-8.378.287-17.924 1.187-21.2 2.284-1.2.4-1.915 3.85-2.325 9.074.092 1.117.07 1.977-.154 2.387-1.085 19.746 1.332 58.4.594 62.313l9.064 99.542s5.12-46.602 5.633-67.598-3.072-73.742 6.146-99.348c1.3-3.585 2.007-6.43 2.253-8.654m-13.336 179.744c.02 6.055-4.185 11.312-8.833 15.2-14.67 12.248-36.673 15.008-54.777 19.316-3.32.8-47.194 9.872-47.127 10.675l.78 10.282c18.578-3.513 63.93-12.618 85.347-21.713 14.656-6.23 24.204-17.753 24.6-33.75" class="G"/><path d="M561.468 265.63c-.953-1.525-2.345-2.93-4.2-4.097-5.408-3.42-15.62-3.47-21.908-3.86-7.702-.47-15.486-.102-23.075 1.32-6.002 1.127-11.9 2.807-17.596 5.01-.8.317-6.3 1.895-6.535 2.867 0-.01 1.363-5.458-9.565-4.096-10.918 1.362-21.847-4.784-23.895 16.387-.185 1.906-.267 3.8-.256 5.664.082 19.01 9.136 35.98 9.136 35.98 7.507-4.097 31.402 0 31.402 0s6.83-8.194 14.636-20.484c7.794-12.29 31.197-8.644 46.908-18.2 6.28-3.82 8.43-10.97 4.947-16.5" class="B"/><path d="M561.468 265.63c-.953-1.525-2.345-2.93-4.2-4.097-5.408-3.42-15.62-3.47-21.908-3.86-7.702-.47-15.486-.102-23.075 1.32-6.002 1.127-11.9 2.807-17.596 5-.8.317-6.3 1.895-6.535 2.867 0-.01 1.363-5.458-9.565-4.096-10.918 1.362-21.847-4.784-23.895 16.387-.185 1.906-.267 3.8-.256 5.664 9.596-3.677 54.2-20.525 68.5-21.14 13.673-.584 30.316-1.414 38.53 1.945m52.338 32.847c-.917-1.47-2.258-2.82-4.042-3.944-5.207-3.293-15.037-3.343-21.1-3.717-7.414-.454-14.908-.1-22.214 1.27a96.25 96.25 0 0 0-16.939 4.822c-.77.305-6.064 1.824-6.3 2.76 0-.01 1.312-5.254-9.2-3.943-10.5 1.312-21.03-4.604-23.003 15.775-.177 1.834-.256 3.66-.246 5.454 9.238-3.54 52.188-19.76 65.942-20.352 13.163-.562 29.186-1.36 37.093 1.874" class="O"/><path d="M1871.3 247.58l-29.317 177.864c-.093.567-.62.948-1.196.857a1.04 1.04 0 0 1-.856-1.196l29.262-177.525zm-104.617 0l29.262 177.525a1.04 1.04 0 0 1-.856 1.196 1.04 1.04 0 0 1-1.195-.857l-29.318-177.864z" class="C"/><g class="J"><path d="M1803.15 247.58l.812 180.685a1.04 1.04 0 0 1-1.036 1.044h-.005a1.04 1.04 0 0 1-1.04-1.035l-.8-180.694zm33.106 0l.8 176.1a1.04 1.04 0 0 1-1.035 1.045h-.005a1.04 1.04 0 0 1-1.04-1.036l-.8-176.1z"/><path d="M1903.795 443.65c0-4.17-5.087-8.058-13.842-11.31-11.016-4.107-27.84-7.213-47.66-8.643a55 55 0 0 0-2.091-.148l-3.154-.195-2.08-.1a352.47 352.47 0 0 0-17.485-.428 350.27 350.27 0 0 0-13.547.257l-2.08.086-6.175.33-2.068.134c-20.773 1.443-38.343 4.72-49.495 9.06-8.204 3.192-12.936 6.946-12.936 10.968 0 .196.01.392.024.562.086.77.343 1.53.77 2.263 2.347 2.8 9.867 5.343 20.958 7.35 15.797 2.885 38.857 4.695 64.547 4.695 27.61 0 52.173-2.09 67.97-5.344 9.22-1.907 15.455-4.193 17.546-6.7.43-.734.686-1.492.77-2.263.01-.17.024-.366.024-.562"/></g><g class="C"><path d="M1903.795 444.605c0-.122-.013-.27-.024-.392-.428-2.494-4.94-4.817-12.485-6.8-15.137-4.023-42.526-6.713-73.803-6.713-31.143 0-58.447 2.666-73.62 6.65-7.654 2.02-12.226 4.367-12.655 6.872-.013.122-.024.27-.024.392 0 .636.257 1.26.795 1.87 2.347 2.8 9.867 5.343 20.958 7.35 15.797 2.884 38.857 4.695 64.547 4.695 27.6 0 52.173-2.1 67.97-5.344 9.22-1.907 15.455-4.193 17.546-6.7.538-.612.795-1.235.795-1.87m-42.7-145.01c-.187 0-.378.062-.535.2l-76.685 62.268a.851.851 0 1 0 1.073 1.32l76.684-62.267a.85.85 0 0 0-.537-1.511"/><path d="M1774.39 299.606a.85.85 0 0 0-.537 1.511l76.684 62.267a.85.85 0 1 0 1.073-1.32l-76.685-62.268c-.157-.128-.348-.2-.535-.2"/></g><g clip-path="url(#J)" class="K"><path d="M1891.2 437.403c-15.138-4.022-42.527-6.713-73.804-6.713-31.143 0-58.447 2.666-73.62 6.65.28 5.82 2.848 11.642 9.072 16.484 15.798 2.885 38.858 4.695 64.548 4.695 27.61 0 52.174-2.09 67.97-5.344 3.13-4.414 6.14-10.185 5.833-15.773" fill="#bf7f79"/></g><path d="M1816.042 769.558c.22-3.46-1.6-7.19-4.17-10.9-4.67-6.8-11.78-13.48-13.35-18.22-2.45-7.34 3.98-21.6 3.98-21.6s-2.97-14.67-11.53-18.95c-.52-.26-1.1-.49-1.73-.69-9.64-2.9-33.43 2.57-30.06 12.7 1.04 3.12 1.22 6.42.98 9.56l-.98 14.28c-7.33-5.7-18.95-3.86-21.6-1.62-2.66 2.23-7.55 7.74-12.23 17.1-4.7 9.38-4.28 17.94-4.05 21.8.22 3.88 1.2 3.67 0 9.18-1.2 5.5-1.05 18.97 0 19.77.8 4.283 1.895 8.536 3.15 12.71s2.4 8.492 4.583 12.3c2.5 4.322 5.525 5.8 10.405 6.31 14.905 1.532 32.276 5.684 46.383-1.37 13.23-5.894 19.145-27.838 25.32-31.18 14.67-7.94 4.28-21.39 4.9-31.18" class="D"/><g clip-path="url(#K)" class="K C"><path d="M1802.504 718.82s-2.97-14.673-11.53-18.952c-.527-.257-1.1-.49-1.737-.686-.22.5-.073 1.114.514 1.87 7.336 9.55 5.306 9 3.117 28.98-2.14 19.674 18.048 27.88 19 28.61-4.67-6.785-11.774-13.473-13.35-18.218-2.446-7.336 3.985-21.605 3.985-21.605"/></g><g fill="#1b274a"><path d="M1796.44 838.904s5.986 11.672 19.953 9.96 23.884-20.833 21.89-29.67-8.892-15.68-20.863-8.803-20.98 26.15-20.98 26.15z"/><path d="M1723.02 823.523s9.92 31.63 49.54 24.218 50.167-26.51 52.732-42.756-9.12-33.065-9.12-33.065-1.7 21.95-18.097 7.697c-8.476-7.37-17.78 12.893-19.057 20.846s-49.954 28.772-55.997 23.06"/></g><path d="M1718.62 799.03s-8.767 33.888 25.153 37.31 35.345-37.625 35.345-37.625l-22.233.57-2.566 13.396-.617-13.58-19.62-.1-1.995 7.41-.57-7.126-2.28 3.135-.57-3.135z" fill="#192342"/><path d="M1666.05 718.574c0-.012-.013-.036-.013-.05l-.55-1.565-1.15-3.3c-1.968-6.725-.904-11.103-.66-14.232.282-3.62-14.745-2.776-14.745-2.776l-.93 3.888s-2.445 3.925-5.77 8.18c-1.517 1.956-3.216 3.973-4.977 5.71-.012.012-.012.025-.012.025-5.99 5.99-7.263 14.856-11.005 22.143-3.435 6.7-10.845 14.257-4.083 21.814 6.737 7.507 16.58-3.18 20.75-8.413 1.087-1.345 8.534-14.893 10.197-12.73 2.788 3.62 2.225 15.86 6.126 18.366s7.52 1.113 5.844-3.888c-1.674-5.013-3.62-8.913-1.944-13.364 1.125-3.008 3.4-7.8 3.68-13.254v-.026c.1-2.102-.086-4.292-.758-6.53" class="D"/><g clip-path="url(#L)" class="K C"><path d="M1664.336 713.66c-1.968-6.725-.904-11.103-.66-14.232.282-3.62-14.745-2.776-14.745-2.776l-.93 3.888s-2.445 3.925-5.77 8.18c2.983-2.153 7.384-3.73 13.437-2.128 4.378 1.162 7.043 3.876 8.67 7.067"/></g><path d="M1593.513 250.186c-2.37-2.112-7.963-17.48-13.942-31.075-4.858-11.082-10-20.985-13.856-21.632-7.23-1.207-14.014 8.365-19.073 12.16-10.392 7.776-23.083 9.602-34.338 15.667-7.675 4.125-32.584 25.47-13.007 29.897 6.74 1.523 13.194.617 19.446-1.395 8.093-2.587 15.84-7.028 23.443-10.464 3.68-1.667 7.49-3.866 11.428-1.624 2.514 1.438 7.976 16.602 8.278 16.602 0 0 35.933-4.313 31.62-8.136" class="D"/><path d="M1579.57 219.11c-4.857-11.082-9.99-20.984-13.855-21.632-7.23-1.207-14.014 8.365-19.074 12.16-10.39 7.777-23.083 9.602-34.338 15.667-7.674 4.125-32.584 25.47-13.006 29.897 6.74 1.523 13.193.617 19.446-1.395-1.94-16.485 14.402-18.483 34.036-29.02 12.505-6.712 21.517-6.626 26.79-5.678" class="G"/><path d="M1771.784 199.847c-5.004-5.003-15.688-1.316-21.786-1.178-12.514.263-23.5-5.42-35.713-6.984-7.98-1.026-37.266 1.47-28.354 14.412a17.03 17.03 0 0 0 1.373 1.732c4.433 4.975 10.004 7.886 16.033 9.812 7.802 2.522 16.367 3.382 24.253 4.962 3.824.748 8.037 1.164 9.866 5.14 1.18 2.537-3.063 17.5-2.813 17.656 0 0 30.585 16.782 29.352 11.363-.68-2.98 3.56-18.168 6.514-32.18v-.013c.013-.042.013-.07.027-.112 2.384-11.378 3.894-21.95 1.248-24.612" class="D"/><path d="M1771.784 199.847c-5.004-5.003-15.688-1.316-21.786-1.178-12.514.263-23.5-5.42-35.713-6.984-7.98-1.026-37.266 1.47-28.354 14.412a17.03 17.03 0 0 0 1.373 1.732c4.433 4.975 10.004 7.886 16.033 9.812 7.733-14.01 21.66-6.402 42.974-3.645 13.568 1.76 20.58 6.874 24.198 10.575.013-.042.013-.07.027-.112 2.384-11.378 3.894-21.95 1.248-24.612" class="G"/><path d="M1883.246 465.372c-14.746-26.117-56.967-23.354-82.4-27.695-2.213-.38-10.173-1.368-20.126-2.872-10.76-1.627-23.83-3.865-34.456-6.59-4.023-1.028-7.692-2.128-10.76-3.29-5.868-2.214-9.537-4.672-9.182-7.3 1.638-12.228 55.438-183.41 55.438-188.3 0-2.603-15.712-3.595-30.4-2.592-12.912.88-25.04 3.29-25.04 7.484.013 8.962-17.913 69.585-29.333 92.67-11.053 22.352-26.692 81.19-27.658 84.845-.012.025-.012.05-.012.06l-.037.122-.024-.036-77.423-171.964s-12.95 2.8-25.518 6.86c-11.862 3.827-23.39 8.78-23.39 13.524 0 9.78 17.937 36.143 25.273 52.71 7.336 16.58 43.2 129.744 59.5 145.297 16.3 15.565 90.483 51.427 105.962 57.945 15.492 6.53 25.897 12.227 27.218 48.91l95.3 5.832s.575-23.758 13.62-40.068c12.888-16.104 24.528-45.926 13.45-65.55" fill="#34406b"/><path d="M1775.97 509.1l-14.602-4.395c4.77 1.724 11.58 4.867 16.287 9.93 4.597 4.95-1.272 30.8-7.043 51.685l21.678 1.32.037-.428c.666-9.318.607-24.252.415-35.926-.168-10.26-6.947-19.23-16.772-22.185m107.276-43.73c-14.746-26.117-56.967-23.354-82.4-27.695-2.213-.38-10.173-1.368-20.126-2.872 5.184 3.3 21.764 5.477 61.332 30.9 45.656 29.344-6.518 95.372-6.518 101.914l1.273 2.176 19.367 1.186s.575-23.758 13.62-40.068c12.888-16.104 24.528-45.926 13.45-65.55m-222.5-11.52l-1.063-4.94c.378 2.762.905 4.5 1.063 4.94m8.51-41.964l-77.423-171.964s-12.95 2.8-25.518 6.86c-1.97 4.34.1 8.95 5.807 18.266 13.45 22 39.738 23.6 56.857 71.408 14.354 40.106 26.998 95.605 30.703 112.454-.966-7.116-.893-21.055 9.574-37.024m.073-.1v-.036c-.013.024-.013.05-.013.06 0-.01.013-.01.013-.024m112.442-182.444c.002-4.7-27.244-2.68-30.286-2.592 5.518.807 8.246 13.062 9.557 17.286 2.982 9.6 4.9 20.08 3.9 30.16-1.058 10.442-4.835 20.353-7.587 30.413-8.648 31.6-19.047 62.77-29.765 93.73-.162.466-3.128 8.162-2.898 8.3-.006-.004-8.14-4.9-4.07 1.626s.818 6.932-8.963 7.337-19.98 2.848-7.752 5.294 17.533-3.252 13.865 0c-3.668 3.264-11.42 11.005 2.03 5.7 5.72-2.25 11.223-2.335 15.723-1.662-5.868-2.214-9.537-4.672-9.182-7.3 1.638-12.228 55.435-183.4 55.438-188.3" class="G"/><path d="M1866.892 660.948c-3.25-26.5-2.03-90.08-11-94.15-8.97-4.08-135.3-2.04-137.76 0-2.1 1.76-.57 12.38-.1 15.2a1.17 1.17 0 0 0 .78.92l29.9 10.36s-.1.13-.27.35c-2.16 2.75-16.85 21.6-16.85 25.75 0 0-30.16-58.5-52.17-54.94-22 3.58-34.64 136.44-34.64 136.44s20.37 6.94 22.82 2.05c2.44-4.9 20.78-74.2 20.78-74.2s15.34 32.09 26.9 50.21c3.53 5.5 6.7 9.73 9 11.34 9.78 6.93 35.3 22.8 35.3 22.8s0-.01.01-.02c.1-.1.75-.64 1.88-1.35.01-.01.02-.02.04-.03l.66-.39c5.91-3.44 21.36-9.25 40.35 7.53l20.04-5.34c9.96-2.78 21.2-6.13 27.49-8.7 1.66-.68 2.96-1.3 3.83-1.84 7.74-4.9 16.3-15.5 13.03-41.98" fill="#fbcd2a"/><path d="M1715.264 678.946c-.942-4.255-2.532-9.94-4.378-18-3.962-17.338-17.926-52.577-17.926-45.24s-4.585 13.035-4.585 13.035 15.333 32.084 26.9 50.205m33.44-85.666l75.9 9.786s1.63 36.58 5.706 43.764c0 0-7.907-23.943-28.466-39.28-12.598-9.4-29.945-12.103-53.14-14.27m-.268.344c-2.164 2.75-16.85 21.594-16.85 25.75 0 0 10.394-15.5 24.602-16.714 11.48-1 3.56-7.3-7.752-9.036m118.458 67.323c-3.253-26.496-2.03-90.078-11.005-94.15-8.963-4.083-135.307-2.04-137.753 0 0 0 111.77-1.638 123.582 9.366 11.823 11.005 19.98 41.988 19.564 61.137-.404 19.16 3.998 46.878-11.238 67.458 1.652-.673 2.948-1.285 3.815-1.834 7.74-4.892 16.3-15.493 13.035-41.977m-44.352 52.53c-7.36-6.42-29.04-15.2-42.98-11.57-15.2 3.95-18 9.36-18.1 9.8.01-.01.02-.02.04-.03.1-.08.32-.2.66-.4 5.9-3.44 21.36-9.25 40.35 7.53l20.04-5.34" fill="#e2b31e"/><path d="M1720.207 566.443l-10.86-2.714c-5.695-1.345-12.257 1.37-19.194 3.852-2.277.82-4.594 1.6-6.937 2.224-7.183 1.91-9.345.917-12.463-.684-.997-.5-2.07-1.075-3.443-1.638-4.84-1.98-11.312 2.128-11.027 4.4.038.392.297.722.802.966 1.36.636 4.75 2.495 8.788 4.5 6.135 3.032 13.758 6.407 18.094 6.407 3.727 0 14.055-.575 23.31-1.137l11.015-.66c-.22-1.32-.687-4.23-.906-7.165-.26-3.498-.182-7.043 1.035-7.998.155-.122.764-.244 1.786-.354" class="D"/><g clip-path="url(#M)" class="K C"><path d="M1720.207 566.443l-10.86-2.714c-5.695-1.345-12.257 1.37-19.194 3.852-2.277.82-4.594 1.6-6.937 2.224-7.183 1.91-9.345.917-12.463-.684-.997-.5-2.07-1.075-3.443-1.638-4.84-1.98-11.312 2.128-11.027 4.4 1.398-1.467 3.69-2.763 9.085-.892 7.598 2.63 10.523 5.38 19.737 1.858 9.216-3.51 23.62-5.147 30.338.7.647.563 1.294.966 1.942 1.235-.26-3.498-.182-7.043 1.035-7.998.155-.122.764-.244 1.786-.354"/></g><path d="M1666.05 718.574c.513 2.286.696 4.573.758 6.53.1-2.102-.086-4.292-.758-6.53" class="C"/><path d="M1830.736 808.496v-.01c-1.722-.775-3.706-1.083-5.975-.787-2.44 11.458-9.268 23.91-27.568 32.484.707 1.037 1.903 2.576 3.637 4.08 13.1-6.5 29.575-18.106 29.906-35.767" fill="#192342"/><g clip-path="url(#N)" class="K C"><path d="M1782.222 746.118c-3.87-4.16-14.85-17.09-22.06-24.67l-.98 14.28s21.81 9.99 23.23 18.34c1.43 8.37 1.23 10.2 1.23 10.2s3.87-12.44-1.42-18.15"/></g><path d="M1723.02 790.82c-6.7 0-12.15-5.45-12.15-12.15s5.45-12.15 12.15-12.15 12.15 5.45 12.15 12.15-5.45 12.15-12.15 12.15m0-25.452c-7.335 0-13.303 5.968-13.303 13.303a13.32 13.32 0 0 0 13.303 13.302c7.335 0 13.304-5.966 13.304-13.302s-5.97-13.303-13.304-13.303m33.18 26.187c-7.105 0-12.886-5.78-12.886-12.886s5.78-12.885 12.886-12.885 12.886 5.78 12.886 12.885-5.78 12.886-12.886 12.886m0-26.994c-7.78 0-14.108 6.33-14.108 14.108s6.33 14.1 14.108 14.1a14.13 14.13 0 0 0 14.108-14.11c0-7.78-6.33-14.108-14.108-14.108" class="I"/><path d="M1560.25 565.163h-194.413c.814-14.673 22.824-12.228 22.824-12.228h402.482s22.008-2.445 22.823 12.228z" class="J"/><path d="M1291.3 1108.66c-4.923 13.592-15.943 23.5-29.442 28.314-8.208 2.922-20.087 6.263-28.33 2.408-10.52-4.92-22.472-13.095-24.826-25.3-.784-4.074-2.143-8.915-1.63-13.122.06-.498.318-1.05.356-1.52.306-3.783-4.748-8.087-6.7-11.046-1.214-1.848-5.687-7.74-3.368-10.032 3.254-3.216 3.263.72 3.254-3.218-.007-3.328-.167-6.66.092-9.984.256-3.3 1.963-6.284 1.33-9.6-.767-4.006-8.33-15.516-1.572-17.973 7.77-2.825 26.124 6.468 31.646-3.726s4.5-14.658 4.5-14.658l4.03 2.578c4.958-7.34 13.432-14.215 15.28-14.215 3.28 0 26.365 10.4 26.13 17.738-.292 9.13 2.34 19.608 3.584 28.798 1.125 8.338 1.727 16.97 4.64 24.894.548 1.5 1.16 2.963 1.923 4.356 3.94 7.2 1.685 18.122-.917 25.307m-254.528-11.92l-.01-.4c-.35-12.56 8.58-20.98 11.28-13.56.85 2.34 1.54 4.76 2.17 6.88 1.34 4.6 2.36 7.76 4 5.43.83-1.18.72-4.03.3-7.7v-.01c-.78-6.94-2.62-16.8-1.2-23.9 1.94-9.62 23.36-39.07 28.3-45.78l1.03-1.38-26.84-37.57-3.98 18.9c-4.23 19.07-10.93 46.4-15.58 51.33-7.28 7.7-19 22.7-19.4 38.53-.38 15.83 3.56 20.2 11.2 25.82 6.07 4.45 8.2-.94 8.63-9.62" class="D"/><g class="G"><path d="M1237.132 379.384s18.43-31.908 18.43-37.735-28.302-19.978-33.296-19.145-4.52 10.6-9.988 6.66c-5.732-4.128-7.34-12.486-34.525-15.815-8.6-1.055-20.007 3.134-21.506 10.505-.623 3.065.784 4.62 5.25 8.5 7.1 6.17 16.77 5.99 25.028 10.974 5 3.013 14.426 10.192 12.872 17.2-1.665 7.49 32.74 15.554 37.735 18.867"/><path d="M1312.997 373.296c0-2.513 7.49-30.814 6.66-35.81s-32.58-5.272-32.58-2.775-.277 3.607-6.936 3.607-27.075-9.45-38.728-6.806-34.96 6.823-22.475 13.473 30.798 6.652 36.625 12.48 11.98 19.144 11.98 19.144z"/></g><path d="M1325.642 694.868c-6.66-31.08-13.12-7.77-6.56-77.7 6.56-69.92-10.09-74.36-7.86-109.87 2.2-35.5 11.07-59.93 7.76-88.8-3.33-28.86.7-43.28-7.98-45.5-7.8-2-37.3-12.05-45.58-.35-.93 1.32-1.6 2.9-1.93 4.8-1.02 5.75-2.13 14.3-3.3 23.94l-7.8 63.78c-3.32 19.95-13.31 82.1-13.31 99.86v77.68s-26.64-72.14-32.18-95.45c-.61-2.56-.9-5.34-.9-8.3a40.36 40.36 0 0 1 .04-1.891 27.24 27.24 0 0 1 .08-1.549v-.02c.01-.22.03-.45.05-.68l.14-1.66v-.02l.24-2c.08-.67.18-1.34.28-2.02l.43-2.53.27-1.44c2-10.17 5.66-21.53 9.39-33.15l.95-2.96.67-2.11 1.2-3.84.92-2.97c.03-.1.06-.19.08-.28l.75-2.47c.03-.07.05-.15.07-.23l1.3-4.45c.03-.08.05-.16.07-.25l1.34-4.9.57-2.2c.02-.08.04-.15.05-.22l.49-1.98.46-1.97.43-1.96c.43-1.97.8-3.92 1.12-5.84a46.82 46.82 0 0 0 .26-1.55l.32-2.22c4.43-33.3 4.43-28.85 11.09-42.17s8.89-29.97 3.33-31.08c-.24-.05-.5-.1-.76-.18l-.4-.12c-.43-.12-.9-.27-1.38-.45a50.79 50.79 0 0 1-1.64-.601c-.37-.14-.76-.3-1.15-.46-.32-.12-.64-.26-.97-.39l-1.13-.47-.87-.36c-.1-.04-.19-.08-.3-.13l-1.88-.8-1.77-.74-3.76-1.52c-.4-.17-.83-.32-1.24-.48-4.1-1.55-7.94-2.72-10.5-2.57-6.66.39-16.65-11.82-22.2 4.83-5.54 16.65-27.73 64.44-33.3 93.26-5.55 28.82-19.98 51-24.41 63.23-4.44 12.2 5.54 84.34 8.87 106.55 3.33 22.19 19.98 71.02 29.97 89.9 10 18.86 13.32 54.15 13.32 54.15h124.31s21.07-53.05 14.42-84.12" fill="#fbcc27"/><g fill="#e2b31e"><path d="M1242.402 376.328l-.76-.18-.4-.12-1.38-.45-1.64-.6-2.12-.85-1.13-.47-1.16-.5-1.88-.8-1.77-.74-3.76-1.52-1.24-.48c2.35 5.36 4.34 10.75 5.13 15.58 3.43 21.08-7.86 19.98-17.85 48.83s-10 36.62-16.65 81.02c-6.66 44.39-26.63 21.08 0 69.92 26.64 48.83 17.76 61.04 34.5 66.6 16.74 5.54 11.42-11.78 11.42-11.78l-2.63-6.28v9.17s-26.64-72.14-32.18-95.45c-.61-2.56-.89-5.34-.89-8.3a39.04 39.04 0 0 1 .04-1.891c.01-.51.04-1.03.08-1.55v-.02c.01-.23.03-.45.05-.68l.14-1.66v-.02l.24-2c.08-.66.18-1.34.28-2.02l.43-2.53.27-1.44c2-10.17 5.66-21.53 9.4-33.15l.95-2.96.67-2.11 1.2-3.84.92-2.97c.03-.1.06-.19.08-.28l.75-2.47c.03-.07.05-.15.07-.23l1.3-4.45c.03-.08.05-.16.07-.25l1.34-4.9.57-2.2c.02-.08.04-.15.05-.22l.49-1.98.46-1.97.43-1.96c.43-1.97.8-3.92 1.12-5.84a42.1 42.1 0 0 0 .26-1.55l.32-2.22c4.43-33.3 4.43-28.85 11.09-42.17s8.9-29.97 3.33-31.08"/><path d="M1239.068 565.015c0-17.764 10-79.9 13.318-99.854 2.314-13.87 5.178-41.737 7.808-63.78 1.165-9.655 2.28-18.196 3.297-23.94.333-1.9 1-3.48 1.93-4.795 8.3-11.704 37.8-1.65 45.582.35 8.673 2.23 4.645 16.65 7.974 45.516 3.313 28.85-5.544 53.274-7.758 88.783-2.23 35.5 14.417 39.955 7.858 109.877s-.1 46.614 6.56 77.696c6.66 31.065-14.417 84.123-14.417 84.123h-36.66c.65-26.637 16.4-99.4-30.698-130.738-2.72-1.8-3.314-6.093-4.795-9.87zm-14.168-99.92c1.498-32.947 4.646-65.094 9.2-91.798 3.43 1.433 6.427 2.664 8.3 3.03 5.56 1.116 3.33 17.763-3.33 31.08s-6.66 8.874-11.088 42.17c-.666 5.028-1.747 10.222-3.08 15.516"/></g><path d="M1049.514 992.984c.733-6.76 12.236-29.25 22.89-47.43l4.578-7.607c11.654-18.93 90.732 6.875 98.223-1.732 4.162-4.76 7.542-48.445 9.44-89.315 1.548-32.83.975-64.596.226-72.254-1.665-17.198 6.15-5.26 15.306-5.893s22.475-1.1 28.3 0 21.643 1.482 30.8 1.83c4.63.184 10.1 1.4 15.334 1.948 5.16.55 10.09.433 13.8-1.948 7.492-4.81 22.475.517 28.302 8.258s3.33 23.224 3.33 33.545c0 1.5.232 2.897.7 4.196 2.214 6.16 9.756 10.305 23.457 14.384 3.246.966 6.842 1.93 10.804 2.913 24.14 6.026 11.654 19.777 10.82 45.582s-7.49 78.262-10.82 96.326c-3.33 18.046-55.77 36.11-65.76 39.554-9.99 3.43-5.827 17.198-5.827 17.198-3.28-2.414-15.282-2.114-26.47-1.398l-20.144 1.398c-7.492 0-2.498-8.607-11.654-17.198-9.156-8.606-15.815 0-32.464 0s-84.072-26.67-90.73-25.804-16.648 30.1-16.648 30.1-36.626-18.912-35.793-26.653" class="O"/><path d="M1255.65 870.307c26.637-22.575 50.776-21.742 36.626-47.547-12.17-22.2-28.65-36.376-17.663-50.243 5.16.55 10.1.433 13.8-1.948 7.492-4.812 22.474.516 28.3 8.258s3.33 23.223 3.33 33.544c0 1.5.232 2.898.7 4.197 2.214 6.16 9.756 10.304 23.457 14.383 3.246.965 6.842 1.93 10.803 2.914 24.14 6.026 11.655 19.777 10.822 45.582s-7.5 78.262-10.822 96.325c-3.33 18.046-55.77 36.1-65.758 39.555-10 3.43-5.827 17.198-5.827 17.198-3.28-2.415-15.283-2.115-26.47-1.4 6.6-7.558 24.622-33.962 15.35-71.853-10-40.787-43.285-66.408-16.648-88.966m-25.365-14.236s21.5-12.485 25.276-27.47-21.134-24.14-20.337-36.626 8.33 18.314 7.893 32.048-14.407 26.22-12.832 32.047m-157.88 89.484l4.578-7.607c11.653-18.93 90.732 6.875 98.223-1.732 4.162-4.76 7.542-48.446 9.44-89.316 3.43 18.28 6.6 29.925 9.822 53.732 4.163 30.798-.065 52.404-22.124 50.74-22.042-1.665-53.7-13.724-79.495-12.06-11.037.717-16.448 2.947-20.444 6.243" class="G"/><path d="M1283.917 1054.793c1.185.444 2.126 1.364 2.568 2.55 3.205 8.57 16.54 44.94 16.015 55.438-.596 11.93-12.524 9.543-16.7 17.893s-2.983 14.91-17.297 16.7-46.476 3.22-56.668-20.92c-5.475-12.968 9.3-9.33 8.703-15.892s5.338-8.195 2.356-9.984-7.06-12.706-7.06-19.864 3.02-20.76-7.12-22.548-4.575 1.76-6.96 3.548c-1.988 1.492-6.437-19.04-5.942-21.32 2.512-11.563 16.05-8.754 24.145-5.64 15.518 5.97 9.225 12.884 5.006 25.54-1.194 3.58-6.26 28.94 1.276 32.386 10.272 4.7 13.258.17 12.88-6.826-.188-3.498-1.14-7.612-1.804-11.51-.856-5.018-1.24-9.675 1.1-12.183 7.57-8.152 19.95-16.948 45.51-7.37" class="O"/><path d="M993.122 1119.145l32-11.667s-.5-4.785 0-6.893c-.116.5-3.308 1.56-3.743 1.763l-8.844 4.187-16.2 7.63c-1.718.823-5.297 1.635-5.716 3.786-.367 1.88.95 1.76 2.504 1.195m67.25-23.668s-.65-10.9-3.25-9.5l-2.6 1.38v.01l-17.74 9.37-.06 6.95.01.03z" class="G"/><path d="M1045.712 1103.678l.06-6.95" class="D"/></g></svg>