<svg xmlns="http://www.w3.org/2000/svg" xmlns:xlink="http://www.w3.org/1999/xlink" width="28" height="28"><path d="M10.5 1.5h5v5h-5z" fill="#eef2fa"/><path d="M12 4V1.5h-1.5v5h5V5H13a.94.94 0 0 1-1-1z" fill="#d5e5f2"/><path d="M10.5 11.5h5v5h-5z" fill="#eef2fa"/><path d="M12 14v-2.5h-1.5v5h5V15H13a.94.94 0 0 1-1-1z" fill="#d5e5f2"/><path d="M10.5 21.5h5v5h-5z" fill="#eef2fa"/><path d="M12 24v-2.5h-1.5v5h5V25H13a.94.94 0 0 1-1-1z" fill="#d5e5f2"/><circle cx="4" cy="4" r="3.5" fill="#91ca60"/><circle cx="4" cy="14" r="3.5" fill="#fecb5b"/><circle cx="4" cy="24" r="3.5" fill="#ef4a4c"/><path d="M2.5 4C2.5 2.4 3.6 1.1 5 .7 4.7.6 4.3.5 4 .5 2.1.5.5 2.1.5 4S2.1 7.5 4 7.5c.3 0 .7-.1 1-.2C3.6 6.9 2.5 5.6 2.5 4z" fill="#70bb57"/><path d="M2.5 14c0-1.6 1.1-2.9 2.5-3.3-.3-.1-.7-.2-1-.2C2.1 10.5.5 12.1.5 14s1.6 3.5 3.5 3.5c.3 0 .7-.1 1-.2-1.4-.4-2.5-1.7-2.5-3.3z" fill="#f8b545"/><path d="M2.5 24c0-1.6 1.1-2.9 2.5-3.3-.3-.1-.7-.2-1-.2C2.1 20.5.5 22.1.5 24s1.6 3.5 3.5 3.5c.3 0 .7-.1 1-.2-1.4-.4-2.5-1.7-2.5-3.3z" fill="#e0313f"/><g fill="#004463"><path d="M4 8C1.8 8 0 6.2 0 4s1.8-4 4-4 4 1.8 4 4-1.8 4-4 4zm0-7C2.3 1 1 2.3 1 4s1.3 3 3 3 3-1.3 3-3-1.3-3-3-3zm0 5c-.5 0-1-.2-1.4-.6-.2-.2-.2-.5 0-.7s.5-.2.7 0c.4.4 1 .4 1.4 0 .2-.2.5-.2.7 0s.2.5 0 .7C5 5.8 4.5 6 4 6z"/><circle cx="2.8" cy="3" r=".5"/><circle cx="5.3" cy="3" r=".5"/><use xlink:href="#B"/><path d="M5.1 15.5H2.9a.47.47 0 0 1-.5-.5.47.47 0 0 1 .5-.5H5a.47.47 0 0 1 .5.5c0 .3-.2.5-.4.5z"/><circle cx="2.8" cy="13" r=".5"/><circle cx="5.3" cy="13" r=".5"/><use xlink:href="#B" y="10"/><path d="M5.1 26c-.1 0-.3 0-.4-.1-.4-.4-1-.4-1.4 0-.2.2-.5.2-.7 0s-.2-.5 0-.7c.7-.7 2.1-.7 2.8 0 .2.2.2.5 0 .7-.1.1-.2.1-.3.1z"/><circle cx="2.8" cy="23" r=".5"/><circle cx="5.3" cy="23" r=".5"/><path d="M15.5 7h-5a.47.47 0 0 1-.5-.5v-5a.47.47 0 0 1 .5-.5h5a.47.47 0 0 1 .5.5v5a.47.47 0 0 1-.5.5zM11 6h4V2h-4z"/><path d="M13.4 5.5c-.1 0-.3 0-.4-.1L11.6 4c-.2-.2-.2-.5 0-.7s.5-.2.7 0l1.1 1.1 3.2-3.2c.2-.2.5-.2.7 0s.2.5 0 .7l-3.5 3.5c-.1 0-.2.1-.4.1zM15.5 17h-5a.47.47 0 0 1-.5-.5v-5a.47.47 0 0 1 .5-.5h5a.47.47 0 0 1 .5.5v5a.47.47 0 0 1-.5.5zM11 16h4v-4h-4zm4.5 11h-5a.47.47 0 0 1-.5-.5v-5a.47.47 0 0 1 .5-.5h5a.47.47 0 0 1 .5.5v5a.47.47 0 0 1-.5.5zM11 26h4v-4h-4zm16.5-3h-9a.47.47 0 0 1-.5-.5.47.47 0 0 1 .5-.5h9a.47.47 0 0 1 .5.5.47.47 0 0 1-.5.5zm-3 2h-6a.47.47 0 0 1-.5-.5.47.47 0 0 1 .5-.5h6a.47.47 0 0 1 .5.5.47.47 0 0 1-.5.5zm3-12h-9a.47.47 0 0 1-.5-.5.47.47 0 0 1 .5-.5h9a.47.47 0 0 1 .5.5.47.47 0 0 1-.5.5zm-3 2h-6a.47.47 0 0 1-.5-.5.47.47 0 0 1 .5-.5h6a.47.47 0 0 1 .5.5.47.47 0 0 1-.5.5zm3-12h-9a.47.47 0 0 1-.5-.5.47.47 0 0 1 .5-.5h9a.47.47 0 0 1 .5.5.47.47 0 0 1-.5.5zm-3 2h-6a.47.47 0 0 1-.5-.5.47.47 0 0 1 .5-.5h6a.47.47 0 0 1 .5.5.47.47 0 0 1-.5.5z"/></g><defs ><path id="B" d="M4 18c-2.2 0-4-1.8-4-4s1.8-4 4-4 4 1.8 4 4-1.8 4-4 4zm0-7c-1.7 0-3 1.3-3 3s1.3 3 3 3 3-1.3 3-3-1.3-3-3-3z"/></defs></svg>