<?xml version="1.0" encoding="UTF-8" standalone="no"?>
<!-- Created with Inkscape (http://www.inkscape.org/) -->

<svg
   xmlns:dc="http://purl.org/dc/elements/1.1/"
   xmlns:cc="http://creativecommons.org/ns#"
   xmlns:rdf="http://www.w3.org/1999/02/22-rdf-syntax-ns#"
   xmlns:svg="http://www.w3.org/2000/svg"
   xmlns="http://www.w3.org/2000/svg"
   xmlns:sodipodi="http://sodipodi.sourceforge.net/DTD/sodipodi-0.dtd"
   xmlns:inkscape="http://www.inkscape.org/namespaces/inkscape"
   width="71.710159mm"
   height="49.919319mm"
   viewBox="0 0 71.710159 49.919319"
   version="1.1"
   id="svg29959"
   inkscape:version="0.92.4 (unknown)"
   sodipodi:docname="island.svg">
  <defs
     id="defs29953" />
  <sodipodi:namedview
     id="base"
     pagecolor="#ffffff"
     bordercolor="#666666"
     borderopacity="1.0"
     inkscape:pageopacity="0.0"
     inkscape:pageshadow="2"
     inkscape:zoom="0.35"
     inkscape:cx="144.08669"
     inkscape:cy="-48.521406"
     inkscape:document-units="mm"
     inkscape:current-layer="layer1"
     showgrid="false"
     inkscape:window-width="1315"
     inkscape:window-height="713"
     inkscape:window-x="51"
     inkscape:window-y="27"
     inkscape:window-maximized="1"
     fit-margin-top="0"
     fit-margin-left="0"
     fit-margin-right="0"
     fit-margin-bottom="0" />
  <metadata
     id="metadata29956">
    <rdf:RDF>
      <cc:Work
         rdf:about="">
        <dc:format>image/svg+xml</dc:format>
        <dc:type
           rdf:resource="http://purl.org/dc/dcmitype/StillImage" />
        <dc:title></dc:title>
      </cc:Work>
    </rdf:RDF>
  </metadata>
  <g
     inkscape:label="Layer 1"
     inkscape:groupmode="layer"
     id="layer1"
     transform="translate(-67.710396,-86.07606)">
    <g
       id="g29910"
       transform="matrix(0.35277777,0,0,-0.35277777,-25.070016,215.20673)">
      <g
         transform="translate(325.9639,275.8511)"
         id="g28368">
        <path
           inkscape:connector-curvature="0"
           id="path28370"
           style="fill:#cfcfcf;fill-opacity:1;fill-rule:nonzero;stroke:none"
           d="m 0,0 h -8.097 c 0.672,0.315 1.138,0.996 1.138,1.787 0,1.09 -0.884,1.974 -1.975,1.974 h 18.996 c 1.09,0 1.974,0.885 1.974,1.975 0,1.091 -0.884,1.975 -1.974,1.975 H -1.034 c 1.091,0 1.974,0.884 1.974,1.975 0,1.09 -0.883,1.974 -1.974,1.974 h -13.635 c 1.09,0 1.975,0.884 1.975,1.975 0,1.091 -0.885,1.975 -1.975,1.975 h -25.484 c -1.09,0 -1.975,-0.884 -1.975,-1.975 0,-1.091 0.885,-1.975 1.975,-1.975 h -9.967 c -1.091,0 -1.976,-0.884 -1.976,-1.974 0,-1.091 0.885,-1.975 1.976,-1.975 h 11.096 c -1.091,0 -1.975,-0.884 -1.975,-1.975 0,-1.09 0.884,-1.975 1.975,-1.975 H -58.02 c -1.09,0 -1.974,-0.884 -1.974,-1.974 0,-1.091 0.884,-1.975 1.974,-1.975 h 12.705 c -0.672,-0.315 -1.138,-0.996 -1.138,-1.787 0,-1.09 0.884,-1.975 1.974,-1.975 L 0,-3.95 c 1.091,0 1.975,0.885 1.975,1.975 C 1.975,-0.884 1.091,0 0,0" />
      </g>
      <g
         transform="translate(336.8721,275.8511)"
         id="g28372">
        <path
           inkscape:connector-curvature="0"
           id="path28374"
           style="fill:#d8d8d8;fill-opacity:1;fill-rule:nonzero;stroke:none"
           d="m 0,0 h -4.231 c -1.091,0 -1.975,-0.884 -1.975,-1.975 0,-1.09 0.884,-1.975 1.975,-1.975 H 0 c 1.091,0 1.975,0.885 1.975,1.975 C 1.975,-0.884 1.091,0 0,0" />
      </g>
      <g
         transform="translate(272.1289,285.5366)"
         id="g28376">
        <path
           inkscape:connector-curvature="0"
           id="path28378"
           style="fill:#d9d9d9;fill-opacity:1;fill-rule:nonzero;stroke:none"
           d="m 0,0 c 0,1.091 -0.884,1.975 -1.975,1.975 h -4.231 c -1.091,0 -1.975,-0.884 -1.975,-1.975 0,-1.09 0.884,-1.975 1.975,-1.975 h 4.231 C -0.884,-1.975 0,-1.09 0,0" />
      </g>
      <g
         transform="translate(336.0254,283.562)"
         id="g28380">
        <path
           inkscape:connector-curvature="0"
           id="path28382"
           style="fill:#d9d9d9;fill-opacity:1;fill-rule:nonzero;stroke:none"
           d="m 0,0 h -11.096 c 1.091,0 1.975,0.884 1.975,1.975 0,1.09 -0.884,1.975 -1.975,1.975 h -13.635 c 1.09,0 1.975,0.883 1.975,1.974 0,1.091 -0.885,1.975 -1.975,1.975 h -25.484 c -1.09,0 -1.974,-0.884 -1.974,-1.975 0,-1.091 0.884,-1.974 1.974,-1.974 h -9.967 c -1.09,0 -1.975,-0.885 -1.975,-1.975 0,-1.091 0.885,-1.975 1.975,-1.975 h 11.096 c -1.091,0 -1.975,-0.884 -1.975,-1.975 0,-0.16 0.025,-0.313 0.06,-0.462 H 1.915 c 0.036,0.149 0.06,0.302 0.06,0.462 C 1.975,-0.884 1.091,0 0,0" />
      </g>
      <g
         transform="translate(433.8408,314.8364)"
         id="g28384">
        <path
           inkscape:connector-curvature="0"
           id="path28386"
           style="fill:#cfcfcf;fill-opacity:1;fill-rule:nonzero;stroke:none"
           d="m 0,0 h -8.096 c 0.671,0.315 1.138,0.996 1.138,1.787 0,1.09 -0.885,1.974 -1.975,1.974 h 18.995 c 1.09,0 1.975,0.885 1.975,1.975 0,1.091 -0.885,1.975 -1.975,1.975 H -1.034 c 1.091,0 1.974,0.884 1.974,1.975 0,1.09 -0.883,1.974 -1.974,1.974 h -13.635 c 1.09,0 1.975,0.884 1.975,1.975 0,1.091 -0.885,1.975 -1.975,1.975 h -25.483 c -1.091,0 -1.975,-0.884 -1.975,-1.975 0,-1.091 0.884,-1.975 1.975,-1.975 h -9.968 c -1.091,0 -1.975,-0.884 -1.975,-1.974 0,-1.091 0.884,-1.975 1.975,-1.975 h 11.096 c -1.091,0 -1.975,-0.884 -1.975,-1.975 0,-1.09 0.884,-1.975 1.975,-1.975 H -58.02 c -1.09,0 -1.974,-0.884 -1.974,-1.974 0,-1.091 0.884,-1.975 1.974,-1.975 h 12.705 c -0.672,-0.315 -1.138,-0.996 -1.138,-1.787 0,-1.09 0.885,-1.974 1.974,-1.974 H 0 c 1.091,0 1.975,0.884 1.975,1.974 C 1.975,-0.884 1.091,0 0,0" />
      </g>
      <g
         transform="translate(444.749,314.8364)"
         id="g28388">
        <path
           inkscape:connector-curvature="0"
           id="path28390"
           style="fill:#d8d8d8;fill-opacity:1;fill-rule:nonzero;stroke:none"
           d="m 0,0 h -4.231 c -1.091,0 -1.975,-0.884 -1.975,-1.975 0,-1.09 0.884,-1.974 1.975,-1.974 H 0 c 1.091,0 1.975,0.884 1.975,1.974 C 1.975,-0.884 1.091,0 0,0" />
      </g>
      <g
         transform="translate(380.0059,324.522)"
         id="g28392">
        <path
           inkscape:connector-curvature="0"
           id="path28394"
           style="fill:#d9d9d9;fill-opacity:1;fill-rule:nonzero;stroke:none"
           d="m 0,0 c 0,1.091 -0.884,1.975 -1.975,1.975 h -4.231 c -1.091,0 -1.975,-0.884 -1.975,-1.975 0,-1.09 0.884,-1.975 1.975,-1.975 h 4.231 C -0.884,-1.975 0,-1.09 0,0" />
      </g>
      <g
         transform="translate(443.9023,322.5474)"
         id="g28396">
        <path
           inkscape:connector-curvature="0"
           id="path28398"
           style="fill:#d9d9d9;fill-opacity:1;fill-rule:nonzero;stroke:none"
           d="m 0,0 h -11.096 c 1.091,0 1.975,0.884 1.975,1.975 0,1.09 -0.884,1.974 -1.975,1.974 H -24.73 c 1.089,0 1.974,0.884 1.974,1.975 0,1.091 -0.885,1.975 -1.974,1.975 h -25.484 c -1.091,0 -1.974,-0.884 -1.974,-1.975 0,-1.091 0.883,-1.975 1.974,-1.975 h -9.968 c -1.09,0 -1.974,-0.884 -1.974,-1.974 0,-1.091 0.884,-1.975 1.974,-1.975 h 11.096 c -1.091,0 -1.975,-0.884 -1.975,-1.975 0,-0.16 0.025,-0.313 0.061,-0.462 H 1.915 c 0.036,0.149 0.061,0.302 0.061,0.462 C 1.976,-0.884 1.091,0 0,0" />
      </g>
      <g
         transform="translate(358.0146,319.7671)"
         id="g28400">
        <path
           inkscape:connector-curvature="0"
           id="path28402"
           style="fill:#cfcfcf;fill-opacity:1;fill-rule:nonzero;stroke:none"
           d="m 0,0 h -8.097 c 0.672,0.315 1.138,0.996 1.138,1.787 0,1.09 -0.884,1.974 -1.975,1.974 h 18.996 c 1.09,0 1.974,0.885 1.974,1.975 0,1.091 -0.884,1.975 -1.974,1.975 H -1.034 c 1.091,0 1.974,0.884 1.974,1.975 0,1.09 -0.883,1.974 -1.974,1.974 h -13.635 c 1.09,0 1.975,0.884 1.975,1.975 0,1.091 -0.885,1.975 -1.975,1.975 h -25.484 c -1.09,0 -1.975,-0.884 -1.975,-1.975 0,-1.091 0.885,-1.975 1.975,-1.975 h -9.967 c -1.091,0 -1.976,-0.884 -1.976,-1.974 0,-1.091 0.885,-1.975 1.976,-1.975 h 11.096 c -1.091,0 -1.975,-0.884 -1.975,-1.975 0,-1.09 0.884,-1.975 1.975,-1.975 H -58.02 c -1.09,0 -1.974,-0.884 -1.974,-1.974 0,-1.091 0.884,-1.975 1.974,-1.975 h 12.705 c -0.672,-0.315 -1.138,-0.996 -1.138,-1.787 0,-1.09 0.884,-1.975 1.974,-1.975 L 0,-3.95 c 1.091,0 1.975,0.885 1.975,1.975 C 1.975,-0.884 1.091,0 0,0" />
      </g>
      <g
         transform="translate(368.9229,319.7671)"
         id="g28404">
        <path
           inkscape:connector-curvature="0"
           id="path28406"
           style="fill:#d8d8d8;fill-opacity:1;fill-rule:nonzero;stroke:none"
           d="m 0,0 h -4.231 c -1.091,0 -1.975,-0.884 -1.975,-1.975 0,-1.09 0.884,-1.975 1.975,-1.975 H 0 c 1.091,0 1.975,0.885 1.975,1.975 C 1.975,-0.884 1.091,0 0,0" />
      </g>
      <g
         transform="translate(304.1797,329.4526)"
         id="g28408">
        <path
           inkscape:connector-curvature="0"
           id="path28410"
           style="fill:#d9d9d9;fill-opacity:1;fill-rule:nonzero;stroke:none"
           d="M 0,0 C 0,1.09 -0.884,1.975 -1.975,1.975 H -6.206 C -7.297,1.975 -8.181,1.09 -8.181,0 c 0,-1.091 0.884,-1.975 1.975,-1.975 h 4.231 C -0.884,-1.975 0,-1.091 0,0" />
      </g>
      <g
         transform="translate(368.0762,327.478)"
         id="g28412">
        <path
           inkscape:connector-curvature="0"
           id="path28414"
           style="fill:#d9d9d9;fill-opacity:1;fill-rule:nonzero;stroke:none"
           d="m 0,0 h -11.096 c 1.091,0 1.975,0.884 1.975,1.975 0,1.09 -0.884,1.974 -1.975,1.974 H -24.73 c 1.089,0 1.974,0.884 1.974,1.975 0,1.091 -0.885,1.975 -1.974,1.975 h -25.485 c -1.09,0 -1.974,-0.884 -1.974,-1.975 0,-1.091 0.884,-1.975 1.974,-1.975 h -9.967 c -1.09,0 -1.975,-0.884 -1.975,-1.974 0,-1.091 0.885,-1.975 1.975,-1.975 h 11.096 c -1.091,0 -1.975,-0.884 -1.975,-1.975 0,-0.16 0.025,-0.313 0.06,-0.462 H 1.915 c 0.036,0.149 0.06,0.302 0.06,0.462 C 1.975,-0.884 1.091,0 0,0" />
      </g>
      <g
         transform="translate(440.8311,281.4722)"
         id="g28416">
        <path
           inkscape:connector-curvature="0"
           id="path28418"
           style="fill:#cfcfcf;fill-opacity:1;fill-rule:nonzero;stroke:none"
           d="m 0,0 h -8.097 c 0.672,0.315 1.138,0.996 1.138,1.787 0,1.09 -0.884,1.974 -1.975,1.974 h 18.996 c 1.09,0 1.974,0.885 1.974,1.975 0,1.091 -0.884,1.975 -1.974,1.975 H -1.034 c 1.09,0 1.974,0.884 1.974,1.975 0,1.09 -0.884,1.974 -1.974,1.974 H -14.67 c 1.091,0 1.975,0.884 1.975,1.975 0,1.091 -0.884,1.975 -1.975,1.975 h -25.483 c -1.091,0 -1.975,-0.884 -1.975,-1.975 0,-1.091 0.884,-1.975 1.975,-1.975 h -9.968 c -1.09,0 -1.975,-0.884 -1.975,-1.974 0,-1.091 0.885,-1.975 1.975,-1.975 h 11.097 c -1.091,0 -1.975,-0.884 -1.975,-1.975 0,-1.09 0.884,-1.975 1.975,-1.975 H -58.02 c -1.09,0 -1.974,-0.884 -1.974,-1.974 0,-1.091 0.884,-1.975 1.974,-1.975 h 12.705 c -0.672,-0.315 -1.138,-0.996 -1.138,-1.787 0,-1.09 0.884,-1.975 1.974,-1.975 L 0,-3.95 c 1.091,0 1.975,0.885 1.975,1.975 C 1.975,-0.884 1.091,0 0,0" />
      </g>
      <g
         transform="translate(451.7393,281.4722)"
         id="g28420">
        <path
           inkscape:connector-curvature="0"
           id="path28422"
           style="fill:#d8d8d8;fill-opacity:1;fill-rule:nonzero;stroke:none"
           d="m 0,0 h -4.231 c -1.091,0 -1.976,-0.884 -1.976,-1.975 0,-1.09 0.885,-1.975 1.976,-1.975 H 0 c 1.09,0 1.975,0.885 1.975,1.975 C 1.975,-0.884 1.09,0 0,0" />
      </g>
      <g
         transform="translate(386.9961,291.1577)"
         id="g28424">
        <path
           inkscape:connector-curvature="0"
           id="path28426"
           style="fill:#d9d9d9;fill-opacity:1;fill-rule:nonzero;stroke:none"
           d="m 0,0 c 0,1.091 -0.885,1.975 -1.975,1.975 h -4.231 c -1.091,0 -1.976,-0.884 -1.976,-1.975 0,-1.091 0.885,-1.975 1.976,-1.975 h 4.231 C -0.885,-1.975 0,-1.091 0,0" />
      </g>
      <g
         transform="translate(450.8926,289.1831)"
         id="g28428">
        <path
           inkscape:connector-curvature="0"
           id="path28430"
           style="fill:#d9d9d9;fill-opacity:1;fill-rule:nonzero;stroke:none"
           d="m 0,0 h -11.096 c 1.09,0 1.975,0.884 1.975,1.975 0,1.09 -0.885,1.974 -1.975,1.974 h -13.635 c 1.09,0 1.974,0.884 1.974,1.975 0,1.091 -0.884,1.975 -1.974,1.975 h -25.484 c -1.091,0 -1.974,-0.884 -1.974,-1.975 0,-1.091 0.883,-1.975 1.974,-1.975 h -9.968 c -1.089,0 -1.974,-0.884 -1.974,-1.974 0,-1.091 0.885,-1.975 1.974,-1.975 h 11.097 c -1.091,0 -1.975,-0.884 -1.975,-1.975 0,-0.16 0.024,-0.313 0.06,-0.462 H 1.915 c 0.035,0.149 0.06,0.302 0.06,0.462 C 1.975,-0.884 1.091,0 0,0" />
      </g>
      <g
         transform="translate(466.2725,244.7217)"
         id="g28432">
        <path
           inkscape:connector-curvature="0"
           id="path28434"
           style="fill:#f2cb5f;fill-opacity:1;fill-rule:nonzero;stroke:none"
           d="m 0,0 c -9.342,12.188 -49.323,21.349 -97.23,21.349 -47.909,0 -87.89,-9.161 -97.232,-21.349 l 8.532,-5.519 c 19.656,-12.714 43.439,-17.408 66.451,-13.115 l 14.397,2.687 c 10.773,2.009 21.82,2.067 32.613,0.17 18.769,-3.301 38.1,-0.656 55.291,7.564 z" />
      </g>
      <g
         transform="translate(450.543,254.5776)"
         id="g28436">
        <path
           inkscape:connector-curvature="0"
           id="path28438"
           style="fill:#f2d480;fill-opacity:1;fill-rule:nonzero;stroke:none"
           d="m 0,0 -1.448,-0.692 c -13.954,-6.672 -19.151,-4.694 -30.65,-1.948 -5.278,1.262 -10.708,-1.431 -12.912,-6.39 -1.855,-4.176 -6.045,-6.797 -10.613,-6.689 -10.353,0.243 -23.256,-1.667 -31.829,-3.266 h -25.249 c -21.139,-3.944 -33.974,7.573 -52.616,18.048 -6.333,-2.687 -10.946,-5.696 -13.415,-8.919 l 8.532,-5.519 c 19.655,-12.714 43.438,-17.408 66.45,-13.115 l 14.397,2.687 c 10.774,2.01 21.821,2.067 32.614,0.17 18.768,-3.301 38.099,-0.656 55.291,7.564 l 17.177,8.213 C 12.969,-6.253 7.528,-2.915 0,0" />
      </g>
      <g
         transform="translate(463.6191,247.4443)"
         id="g28440">
        <path
           inkscape:connector-curvature="0"
           id="path28442"
           style="fill:#88c2e2;fill-opacity:1;fill-rule:nonzero;stroke:none"
           d="m 0,0 -14.524,-6.944 c -17.193,-8.22 -36.523,-10.866 -55.291,-7.565 -10.793,1.898 -21.84,1.84 -32.614,-0.17 l -14.397,-2.686 c -23.012,-4.293 -46.795,0.4 -66.45,13.115 l -6.174,3.993 c -0.924,-0.806 -1.717,-1.628 -2.359,-2.466 l 8.533,-5.518 c 19.655,-12.714 43.438,-17.408 66.45,-13.115 l 14.397,2.686 c 10.774,2.01 21.821,2.067 32.614,0.17 18.768,-3.301 38.098,-0.655 55.291,7.564 L 2.653,-2.723 C 1.943,-1.796 1.054,-0.888 0,0" />
      </g>
      <g
         transform="translate(357.7295,335.043)"
         id="g28444">
        <path
           inkscape:connector-curvature="0"
           id="path28446"
           style="fill:#80b8c2;fill-opacity:1;fill-rule:nonzero;stroke:none"
           d="m 0,0 -17.906,-76.372 c 13.549,-5.883 29.347,-7.607 44.12,-4.813 l 7.308,1.383 c 7.609,1.44 15.565,1.693 23.407,0.746 l 11.894,-1.436 -28.057,78.619 -19.843,17.91 z" />
      </g>
      <g
         transform="translate(379.8066,328.4795)"
         id="g28448">
        <path
           inkscape:connector-curvature="0"
           id="path28450"
           style="fill:#7aafb8;fill-opacity:1;fill-rule:nonzero;stroke:none"
           d="M 0,0 12.916,9.9 -1.154,22.601 -22.077,6.563 -39.983,-69.808 c 6.977,-3.03 14.551,-4.947 22.274,-5.722 z" />
      </g>
      <g
         transform="translate(416.3018,264.2109)"
         id="g28452">
        <path
           inkscape:connector-curvature="0"
           id="path28454"
           style="fill:#74a516;fill-opacity:1;fill-rule:nonzero;stroke:none"
           d="m 0,0 c -1.914,0.377 -3.725,0.074 -5.275,-0.68 -1.019,1.854 -2.989,3.111 -5.253,3.111 -1.45,0 -2.779,-0.515 -3.815,-1.372 -1.795,1.073 -3.886,1.7 -6.13,1.7 -0.243,0 -0.48,-0.022 -0.72,-0.036 -1.195,5.44 -6.078,9.497 -11.898,9.402 -6.268,-0.104 -11.529,-5.244 -11.769,-11.509 -0.261,-6.831 5.199,-12.451 11.971,-12.451 0.243,0 0.482,0.022 0.721,0.036 1.181,-5.376 5.965,-9.402 11.695,-9.402 2.565,0 4.938,0.806 6.883,2.18 3.041,2.145 6.768,3.315 10.428,2.639 0.492,-0.091 1,-0.138 1.519,-0.138 4.896,0 8.806,4.218 8.296,9.218 C 6.287,-3.712 3.54,-0.697 0,0" />
      </g>
      <g
         transform="translate(422.9551,256.9092)"
         id="g28456">
        <path
           inkscape:connector-curvature="0"
           id="path28458"
           style="fill:#699c0e;fill-opacity:1;fill-rule:nonzero;stroke:none"
           d="m 0,0 c -0.366,3.589 -3.113,6.605 -6.653,7.302 -1.914,0.377 -3.725,0.073 -5.276,-0.68 -1.018,1.854 -2.988,3.111 -5.253,3.111 -1.449,0 -2.778,-0.515 -3.814,-1.372 -1.795,1.073 -3.887,1.7 -6.13,1.7 -0.243,0 -0.48,-0.022 -0.721,-0.036 -1.194,5.439 -6.077,9.497 -11.897,9.401 -6.269,-0.103 -11.529,-5.243 -11.77,-11.509 -0.008,-0.246 0.005,-0.486 0.01,-0.73 2.024,1.655 4.58,2.671 7.331,2.717 5.82,0.096 10.703,-3.962 11.898,-9.402 0.239,0.015 0.477,0.037 0.72,0.037 2.243,0 4.334,-0.628 6.129,-1.701 1.036,0.857 2.365,1.372 3.816,1.372 2.264,0 4.234,-1.256 5.253,-3.11 1.55,0.753 3.361,1.056 5.275,0.68 3.152,-0.621 5.664,-3.083 6.437,-6.148 C -1.627,-6.895 0.374,-3.661 0,0" />
      </g>
      <g
         transform="translate(349.2998,292.5054)"
         id="g28460">
        <path
           inkscape:connector-curvature="0"
           id="path28462"
           style="fill:#a0d4d9;fill-opacity:1;fill-rule:nonzero;stroke:none"
           d="M 0,0 23.42,34.337 20.83,17.389 27.53,30.417 37.804,3.133 35.633,36.661 40.102,27.165 43.896,32.632 56.24,1.742 53.822,22.026 58.548,14.459 49.195,40.665 29.353,58.575 8.43,42.538 6.097,32.585 l 8.267,5.523 z" />
      </g>
      <g
         transform="translate(392.7227,338.3799)"
         id="g28464">
        <path
           inkscape:connector-curvature="0"
           id="path28466"
           style="fill:#8ccad1;fill-opacity:1;fill-rule:nonzero;stroke:none"
           d="m 0,0 -14.07,12.7 -20.923,-16.037 -2.333,-9.953 8.267,5.524 -14.364,-38.109 23.42,34.337 -2.59,-16.947 6.7,13.027 1.032,-2.739 1.945,8.297 z" />
      </g>
      <g
         transform="translate(332.4639,326.6406)"
         id="g28468">
        <path
           inkscape:connector-curvature="0"
           id="path28470"
           style="fill:#93c2c9;fill-opacity:1;fill-rule:nonzero;stroke:none"
           d="m 0,0 -30.187,-72.643 c 13.086,-5.694 28.353,-7.344 42.635,-4.61 l 7.067,1.352 c 7.356,1.408 15.046,1.666 22.624,0.757 L 53.634,-76.521 26.637,-0.233 14.72,9.495 Z" />
      </g>
      <g
         transform="translate(355.3965,325.0903)"
         id="g28472">
        <path
           inkscape:connector-curvature="0"
           id="path28474"
           style="fill:#7aafb8;fill-opacity:1;fill-rule:nonzero;stroke:none"
           d="M 0,0 -8.213,11.045 -22.933,1.55 -53.119,-71.093 c 4.893,-2.129 10.093,-3.692 15.431,-4.673 l 32.036,74.368 z" />
      </g>
      <g
         transform="translate(333.6064,300.6753)"
         id="g28476">
        <path
           inkscape:connector-curvature="0"
           id="path28478"
           style="fill:#b0dce0;fill-opacity:1;fill-rule:nonzero;stroke:none"
           d="m 0,0 8.921,23.977 7.5,-14.254 0.72,13.546 L 29.049,-5.89 27.677,8.582 33.918,1.927 25.494,25.732 13.577,35.46 -1.143,25.965 -7.47,11.138 l 7.143,5.723 z" />
      </g>
      <g
         transform="translate(358.1094,327.2173)"
         id="g28480">
        <path
           inkscape:connector-curvature="0"
           id="path28482"
           style="fill:#8ccad1;fill-opacity:1;fill-rule:nonzero;stroke:none"
           d="m 0,0 -10.926,8.918 -14.72,-9.495 -6.079,-14.628 6.895,5.524 0.327,-16.861 8.921,23.977 4.195,-7.974 3.022,7.014 z" />
      </g>
      <g
         transform="translate(425.8906,253.4795)"
         id="g28484">
        <path
           inkscape:connector-curvature="0"
           id="path28486"
           style="fill:#7f4301;fill-opacity:1;fill-rule:nonzero;stroke:none"
           d="m 0,0 c -1.381,5.952 -1.944,13.049 -1.164,18.734 0.974,7.12 3.552,14.163 7.733,20.323 L 6.347,39.234 C 1.238,33.755 -2.591,26.941 -4.8,19.531 -7.008,12.123 -8.005,3.148 -6.638,-4.783 l 0.024,0.002 c 0.129,-0.466 0.78,-0.715 1.291,-0.811 0.75,-0.277 1.558,-0.314 2.426,-0.27 1.084,0.055 2.636,-0.095 3.704,0.361 0.028,0.006 0.054,0.008 0.085,0.019 0.631,0.22 0.622,0.904 0.356,1.397 C 0.923,-2.695 0.475,-1.343 0,0" />
      </g>
      <g
         transform="translate(422.9932,247.6172)"
         id="g28488">
        <path
           inkscape:connector-curvature="0"
           id="path28490"
           style="fill:#6b3200;fill-opacity:1;fill-rule:nonzero;stroke:none"
           d="M 0,0 C 1.084,0.056 2.637,-0.095 3.704,0.361 3.732,0.367 3.759,0.369 3.789,0.38 4.421,0.601 4.411,1.284 4.146,1.777 3.82,3.167 3.372,4.519 2.897,5.862 1.517,11.814 0.953,18.911 1.733,24.597 2.707,31.716 5.285,38.76 9.467,44.919 L 9.371,44.995 C 5.557,39.795 2.618,33.851 0.731,27.52 -1.764,19.15 -2.89,9.011 -1.345,0.05 l 0.027,0.002 C -1.315,0.041 -1.309,0.032 -1.306,0.022 -0.886,-0.021 -0.451,-0.023 0,0" />
      </g>
      <g
         transform="translate(441.1377,282.814)"
         id="g28492">
        <path
           inkscape:connector-curvature="0"
           id="path28494"
           style="fill:#4cbe9e;fill-opacity:1;fill-rule:nonzero;stroke:none"
           d="m 0,0 -0.012,3.621 c 3.609,-3.314 5.618,-8.295 5.321,-13.185 0.521,2.343 0.68,4.766 0.472,7.158 2.21,-4.18 3.099,-9.047 2.509,-13.739 2.164,7.563 1.001,16.387 -4.361,22.142 -2.49,2.672 -5.297,4.59 -8.941,4.342 C -7.513,10.169 -9.377,9.07 -9.377,9.07 -7.46,8.674 -1.25,3.017 0,0" />
      </g>
      <g
         transform="translate(445.0664,288.811)"
         id="g28496">
        <path
           inkscape:connector-curvature="0"
           id="path28498"
           style="fill:#33aa85;fill-opacity:1;fill-rule:nonzero;stroke:none"
           d="m 0,0 c -2.489,2.672 -5.297,4.59 -8.94,4.342 -2.501,-0.17 -4.366,-1.269 -4.366,-1.269 0.325,-0.067 0.775,-0.287 1.3,-0.618 0.529,0.128 1.117,0.23 1.745,0.272 3.644,0.249 6.452,-1.67 8.942,-4.342 3.173,-3.406 4.875,-7.886 5.288,-12.544 0.586,-2.613 0.726,-5.326 0.392,-7.983 C 6.525,-14.579 5.362,-5.755 0,0" />
      </g>
      <g
         transform="translate(430.4062,304.2197)"
         id="g28500">
        <path
           inkscape:connector-curvature="0"
           id="path28502"
           style="fill:#4cbe9e;fill-opacity:1;fill-rule:nonzero;stroke:none"
           d="M 0,0 C 0.87,-0.67 1.741,-1.341 2.612,-2.011 2.211,2.431 -0.279,6.64 -3.981,9.129 -1.998,8.21 -0.157,6.986 1.457,5.512 -0.344,9.422 -3.372,12.757 -7.091,14.925 -0.425,12.308 5.313,6.586 6.511,-0.475 7.065,-3.753 6.9,-6.845 4.705,-9.343 3.199,-11.058 1.373,-11.798 1.373,-11.798 2.147,-10.192 1.49,-2.572 0,0" />
      </g>
      <g
         transform="translate(436.917,303.7446)"
         id="g28504">
        <path
           inkscape:connector-curvature="0"
           id="path28506"
           style="fill:#33aa85;fill-opacity:1;fill-rule:nonzero;stroke:none"
           d="m 0,0 c 0.555,-3.278 0.39,-6.37 -1.806,-8.868 -1.506,-1.715 -3.332,-2.455 -3.332,-2.455 0.132,0.272 0.221,0.719 0.273,1.282 0.385,0.312 0.783,0.681 1.162,1.112 2.194,2.498 2.36,5.589 1.805,8.868 -0.708,4.178 -3.008,7.887 -6.148,10.762 -1.565,1.869 -3.449,3.471 -5.556,4.699 C -6.936,12.783 -1.197,7.061 0,0" />
      </g>
      <g
         transform="translate(421.5215,287.1943)"
         id="g28508">
        <path
           inkscape:connector-curvature="0"
           id="path28510"
           style="fill:#4cbe9e;fill-opacity:1;fill-rule:nonzero;stroke:none"
           d="m 0,0 c 0.394,1.026 0.787,2.052 1.181,3.078 -4.143,-1.654 -7.464,-5.244 -8.791,-9.502 0.313,2.163 0.961,4.277 1.912,6.245 -3.233,-2.844 -5.563,-6.698 -6.577,-10.883 0.603,7.137 4.445,14.271 10.869,17.437 C 1.577,7.844 4.587,8.569 7.607,7.18 9.682,6.227 10.913,4.689 10.913,4.689 9.153,4.972 2.039,2.164 0,0" />
      </g>
      <g
         transform="translate(420.1152,293.5693)"
         id="g28512">
        <path
           inkscape:connector-curvature="0"
           id="path28514"
           style="fill:#33aa85;fill-opacity:1;fill-rule:nonzero;stroke:none"
           d="m 0,0 c 2.983,1.469 5.993,2.194 9.014,0.805 2.074,-0.953 3.305,-2.491 3.305,-2.491 -0.298,0.048 -0.752,0.005 -1.306,-0.106 -0.409,0.28 -0.876,0.556 -1.398,0.796 -3.02,1.389 -6.031,0.664 -9.013,-0.806 -3.802,-1.872 -6.699,-5.136 -8.556,-8.967 -1.343,-2.035 -2.341,-4.298 -2.915,-6.668 C -10.266,-10.3 -6.424,-3.166 0,0" />
      </g>
      <g
         transform="translate(422.9834,299.2153)"
         id="g28516">
        <path
           inkscape:connector-curvature="0"
           id="path28518"
           style="fill:#4cbe9e;fill-opacity:1;fill-rule:nonzero;stroke:none"
           d="m 0,0 c 1.093,0.122 2.185,0.245 3.276,0.367 -3.374,2.918 -8.088,4.216 -12.48,3.436 2.064,0.716 4.24,1.114 6.425,1.175 C -6.791,6.54 -11.285,6.835 -15.468,5.812 -8.854,8.559 -0.751,8.429 5.015,4.18 7.691,2.207 9.719,-0.132 9.875,-3.454 9.982,-5.733 9.183,-7.534 9.183,-7.534 8.625,-5.841 2.859,-0.815 0,0" />
      </g>
      <g
         transform="translate(427.998,303.395)"
         id="g28520">
        <path
           inkscape:connector-curvature="0"
           id="path28522"
           style="fill:#33aa85;fill-opacity:1;fill-rule:nonzero;stroke:none"
           d="m 0,0 c 2.677,-1.973 4.704,-4.312 4.86,-7.633 0.108,-2.28 -0.691,-4.081 -0.691,-4.081 -0.095,0.287 -0.342,0.671 -0.695,1.112 0.06,0.491 0.09,1.034 0.063,1.606 -0.155,3.322 -2.183,5.661 -4.86,7.634 -3.411,2.514 -7.642,3.586 -11.899,3.473 -2.424,0.257 -4.892,0.101 -7.26,-0.478 C -13.868,4.379 -5.766,4.249 0,0" />
      </g>
      <g
         transform="translate(443.999,293.9634)"
         id="g28524">
        <path
           inkscape:connector-curvature="0"
           id="path28526"
           style="fill:#4cbe9e;fill-opacity:1;fill-rule:nonzero;stroke:none"
           d="M 0,0 C -0.882,0.656 -1.764,1.312 -2.645,1.968 1.739,2.789 6.467,1.533 9.867,-1.353 8.444,0.306 6.766,1.745 4.909,2.899 9.162,2.227 13.192,0.218 16.289,-2.773 11.96,2.932 4.896,6.902 -2.225,6.137 -5.53,5.782 -8.461,4.784 -10.27,1.993 -11.511,0.078 -11.729,-1.88 -11.729,-1.88 -10.393,-0.699 -2.881,0.737 0,0" />
      </g>
      <g
         transform="translate(441.7744,300.1006)"
         id="g28528">
        <path
           inkscape:connector-curvature="0"
           id="path28530"
           style="fill:#33aa85;fill-opacity:1;fill-rule:nonzero;stroke:none"
           d="m 0,0 c -3.306,-0.355 -6.236,-1.354 -8.045,-4.144 -1.241,-1.916 -1.459,-3.874 -1.459,-3.874 0.227,0.201 0.633,0.408 1.161,0.611 0.196,0.454 0.443,0.938 0.754,1.42 1.809,2.79 4.739,3.789 8.045,4.144 4.214,0.452 8.408,-0.754 12.027,-2.996 2.224,-0.999 4.278,-2.378 6.031,-4.071 C 14.185,-3.206 7.12,0.765 0,0" />
      </g>
      <g
         transform="translate(434.3105,292.5942)"
         id="g28532">
        <path
           inkscape:connector-curvature="0"
           id="path28534"
           style="fill:#599100;fill-opacity:1;fill-rule:nonzero;stroke:none"
           d="m 0,0 c 0.096,-1.398 -0.961,-2.609 -2.358,-2.704 -1.399,-0.095 -2.609,0.961 -2.704,2.359 -0.095,1.398 0.96,2.609 2.359,2.704 C -1.306,2.454 -0.095,1.398 0,0" />
      </g>
      <g
         transform="translate(432.2324,294.9155)"
         id="g28536">
        <path
           inkscape:connector-curvature="0"
           id="path28538"
           style="fill:#528100;fill-opacity:1;fill-rule:nonzero;stroke:none"
           d="M 0,0 C 0.096,-0.059 0.189,-0.124 0.276,-0.201 1.132,-0.947 1.221,-2.245 0.475,-3.1 -0.272,-3.956 -1.57,-4.044 -2.426,-3.298 c -0.258,0.226 -0.445,0.502 -0.561,0.8 0,-0.056 -10e-4,-0.111 0.003,-0.168 0.095,-1.398 1.305,-2.455 2.704,-2.359 1.397,0.095 2.454,1.305 2.358,2.704 C 1.998,-1.138 1.117,-0.202 0,0" />
      </g>
      <g
         transform="translate(431.6973,293.8398)"
         id="g28540">
        <path
           inkscape:connector-curvature="0"
           id="path28542"
           style="fill:#83b200;fill-opacity:1;fill-rule:nonzero;stroke:none"
           d="m 0,0 c 0.024,-0.359 -0.247,-0.671 -0.606,-0.695 -0.36,-0.025 -0.671,0.247 -0.696,0.606 -0.024,0.36 0.247,0.671 0.607,0.696 C -0.336,0.631 -0.024,0.359 0,0" />
      </g>
      <g
         transform="translate(431.1357,290.1235)"
         id="g28544">
        <path
           inkscape:connector-curvature="0"
           id="path28546"
           style="fill:#599100;fill-opacity:1;fill-rule:nonzero;stroke:none"
           d="m 0,0 c 0.096,-1.398 -0.961,-2.608 -2.358,-2.704 -1.399,-0.095 -2.61,0.961 -2.704,2.359 -0.096,1.398 0.96,2.609 2.358,2.704 C -1.306,2.454 -0.095,1.398 0,0" />
      </g>
      <g
         transform="translate(429.0576,292.4448)"
         id="g28548">
        <path
           inkscape:connector-curvature="0"
           id="path28550"
           style="fill:#528100;fill-opacity:1;fill-rule:nonzero;stroke:none"
           d="m 0,0 c 0.096,-0.059 0.189,-0.124 0.276,-0.2 0.856,-0.746 0.944,-2.045 0.198,-2.9 -0.746,-0.856 -2.044,-0.944 -2.9,-0.197 -0.258,0.225 -0.445,0.501 -0.561,0.799 0,-0.056 -10e-4,-0.111 0.003,-0.168 0.094,-1.398 1.305,-2.454 2.704,-2.359 1.397,0.095 2.454,1.306 2.358,2.704 C 1.998,-1.138 1.117,-0.202 0,0" />
      </g>
      <g
         transform="translate(428.5225,291.3691)"
         id="g28552">
        <path
           inkscape:connector-curvature="0"
           id="path28554"
           style="fill:#83b200;fill-opacity:1;fill-rule:nonzero;stroke:none"
           d="m 0,0 c 0.024,-0.359 -0.247,-0.671 -0.606,-0.695 -0.36,-0.025 -0.671,0.247 -0.696,0.607 -0.024,0.359 0.247,0.671 0.607,0.695 C -0.336,0.631 -0.024,0.36 0,0" />
      </g>
      <g
         transform="translate(434.998,288.6113)"
         id="g28556">
        <path
           inkscape:connector-curvature="0"
           id="path28558"
           style="fill:#599100;fill-opacity:1;fill-rule:nonzero;stroke:none"
           d="m 0,0 c 0.103,-1.504 -1.033,-2.807 -2.538,-2.909 -1.504,-0.102 -2.806,1.034 -2.908,2.538 -0.103,1.504 1.033,2.807 2.538,2.909 C -1.404,2.64 -0.103,1.504 0,0" />
      </g>
      <g
         transform="translate(432.7627,291.1089)"
         id="g28560">
        <path
           inkscape:connector-curvature="0"
           id="path28562"
           style="fill:#528100;fill-opacity:1;fill-rule:nonzero;stroke:none"
           d="m 0,0 c 0.103,-0.063 0.203,-0.134 0.297,-0.216 0.921,-0.803 1.015,-2.2 0.213,-3.119 -0.803,-0.92 -2.199,-1.016 -3.12,-0.213 -0.278,0.242 -0.479,0.54 -0.604,0.861 0,-0.061 -10e-4,-0.121 0.003,-0.182 0.103,-1.504 1.404,-2.64 2.908,-2.537 1.505,0.102 2.641,1.405 2.538,2.908 C 2.148,-1.224 1.201,-0.218 0,0" />
      </g>
      <g
         transform="translate(432.1865,289.9517)"
         id="g28564">
        <path
           inkscape:connector-curvature="0"
           id="path28566"
           style="fill:#83b200;fill-opacity:1;fill-rule:nonzero;stroke:none"
           d="M 0,0 C 0.026,-0.387 -0.266,-0.722 -0.652,-0.748 -1.039,-0.774 -1.374,-0.482 -1.4,-0.096 -1.427,0.292 -1.135,0.626 -0.748,0.653 -0.361,0.679 -0.026,0.387 0,0" />
      </g>
      <g
         transform="translate(349.5908,356.2163)"
         id="g28568">
        <path
           inkscape:connector-curvature="0"
           id="path28570"
           style="fill:#6b3200;fill-opacity:1;fill-rule:nonzero;stroke:none"
           d="m 0,0 c -0.001,0 -0.001,0.001 -0.001,0.001 -1.243,1.956 -4.564,1.088 -5.678,-0.921 -1.113,2.009 -4.434,2.877 -5.677,0.921 0,0 0,-0.001 -10e-4,-0.001 -0.174,-0.275 -0.313,-0.599 -0.393,-0.99 -0.051,-0.245 0.307,-0.435 0.43,-0.181 0.556,1.153 1.411,1.339 2.456,1.24 -0.009,-0.007 -0.02,-0.012 -0.029,-0.02 -0.17,-0.121 -0.136,-0.46 0.119,-0.438 1.003,0.09 2.025,0.035 2.688,-0.847 0.021,-0.027 0.045,-0.046 0.071,-0.062 0.033,-0.071 0.071,-0.139 0.096,-0.212 0.041,-0.117 0.143,-0.162 0.24,-0.158 0.098,-0.004 0.2,0.041 0.241,0.158 0.025,0.073 0.063,0.141 0.095,0.212 0.027,0.016 0.05,0.035 0.072,0.062 0.663,0.882 1.684,0.937 2.688,0.847 0.255,-0.022 0.288,0.317 0.118,0.438 -0.009,0.008 -0.019,0.013 -0.028,0.02 1.045,0.099 1.899,-0.087 2.456,-1.24 0.123,-0.254 0.479,-0.064 0.43,0.181 C 0.312,-0.599 0.174,-0.275 0,0" />
      </g>
      <g
         transform="translate(356.3447,365.2515)"
         id="g28572">
        <path
           inkscape:connector-curvature="0"
           id="path28574"
           style="fill:#6b3200;fill-opacity:1;fill-rule:nonzero;stroke:none"
           d="m 0,0 c 0,0 -0.001,0 -0.001,0.001 -1.534,1.737 -4.679,0.359 -5.463,-1.799 -1.414,1.81 -4.83,2.147 -5.752,0.021 0,0 -0.001,-0.001 -0.001,-0.001 -0.129,-0.299 -0.215,-0.641 -0.232,-1.04 -0.012,-0.25 0.371,-0.381 0.452,-0.111 0.369,1.226 1.184,1.543 2.231,1.609 -0.007,-0.008 -0.016,-0.015 -0.024,-0.024 -0.149,-0.146 -0.063,-0.476 0.186,-0.414 0.977,0.245 1.995,0.351 2.788,-0.416 0.024,-0.023 0.051,-0.038 0.079,-0.05 0.043,-0.065 0.091,-0.126 0.129,-0.194 0.058,-0.11 0.165,-0.139 0.261,-0.119 0.097,0.011 0.191,0.072 0.212,0.194 0.014,0.076 0.041,0.15 0.063,0.225 0.022,0.019 0.043,0.042 0.059,0.072 0.517,0.975 1.518,1.189 2.523,1.257 0.256,0.018 0.235,0.359 0.049,0.452 -0.01,0.005 -0.022,0.009 -0.032,0.015 1.017,0.261 1.89,0.211 2.62,-0.841 0.162,-0.231 0.484,0.012 0.396,0.246 C 0.402,-0.543 0.216,-0.244 0,0" />
      </g>
      <g
         transform="translate(365.2393,357.0718)"
         id="g28576">
        <path
           inkscape:connector-curvature="0"
           id="path28578"
           style="fill:#6b3200;fill-opacity:1;fill-rule:nonzero;stroke:none"
           d="m 0,0 v 0.001 c -1.243,1.956 -4.564,1.088 -5.678,-0.921 -1.113,2.009 -4.434,2.877 -5.677,0.921 0,0 -10e-4,-0.001 -10e-4,-0.001 -0.174,-0.275 -0.313,-0.599 -0.393,-0.99 -0.051,-0.245 0.307,-0.435 0.43,-0.181 0.556,1.153 1.411,1.339 2.456,1.24 -0.01,-0.007 -0.02,-0.012 -0.029,-0.02 -0.17,-0.121 -0.136,-0.461 0.119,-0.438 1.003,0.09 2.025,0.035 2.688,-0.847 0.021,-0.027 0.045,-0.046 0.07,-0.062 0.034,-0.071 0.072,-0.139 0.097,-0.212 0.041,-0.117 0.143,-0.162 0.24,-0.158 0.098,-0.004 0.199,0.041 0.241,0.158 0.025,0.073 0.063,0.141 0.095,0.212 0.027,0.016 0.05,0.035 0.071,0.062 0.664,0.882 1.685,0.937 2.689,0.847 0.255,-0.023 0.288,0.317 0.118,0.438 -0.009,0.008 -0.019,0.013 -0.028,0.02 1.045,0.099 1.899,-0.087 2.456,-1.24 0.123,-0.254 0.479,-0.064 0.43,0.181 C 0.313,-0.599 0.175,-0.275 0,0" />
      </g>
      <g
         transform="translate(418.8955,330.7646)"
         id="g28580">
        <path
           inkscape:connector-curvature="0"
           id="path28582"
           style="fill:#6b3200;fill-opacity:1;fill-rule:nonzero;stroke:none"
           d="m 0,0 c -0.001,0 -0.001,0.001 -0.001,0.001 -1.243,1.956 -4.564,1.088 -5.678,-0.921 -1.113,2.009 -4.434,2.877 -5.677,0.921 V 0 c -0.175,-0.275 -0.314,-0.599 -0.394,-0.99 -0.05,-0.245 0.307,-0.435 0.43,-0.181 0.556,1.153 1.411,1.339 2.456,1.24 -0.009,-0.007 -0.02,-0.012 -0.029,-0.02 -0.17,-0.121 -0.136,-0.46 0.119,-0.438 1.003,0.09 2.025,0.035 2.688,-0.847 0.022,-0.027 0.046,-0.046 0.071,-0.062 0.033,-0.071 0.071,-0.139 0.096,-0.212 0.041,-0.117 0.143,-0.162 0.24,-0.158 0.098,-0.004 0.2,0.041 0.241,0.158 0.025,0.073 0.063,0.141 0.096,0.212 0.026,0.016 0.05,0.035 0.071,0.062 0.663,0.882 1.684,0.937 2.688,0.847 0.255,-0.022 0.288,0.317 0.118,0.438 -0.009,0.008 -0.019,0.013 -0.028,0.02 1.045,0.099 1.899,-0.087 2.456,-1.24 0.123,-0.254 0.48,-0.064 0.43,0.181 C 0.312,-0.599 0.174,-0.275 0,0" />
      </g>
      <g
         transform="translate(357.1016,345.8848)"
         id="g28584">
        <path
           inkscape:connector-curvature="0"
           id="path28586"
           style="fill:#6b3200;fill-opacity:1;fill-rule:nonzero;stroke:none"
           d="m 0,0 c 0,0 -0.001,0.001 -0.001,0.001 -0.86,2.152 -4.285,1.912 -5.75,0.143 -0.723,2.18 -3.827,3.646 -5.41,1.954 0,-10e-4 0,-10e-4 -0.001,-0.002 -0.222,-0.238 -0.417,-0.531 -0.568,-0.9 -0.095,-0.232 0.22,-0.484 0.388,-0.258 0.76,1.031 1.634,1.056 2.643,0.766 C -8.709,1.699 -8.721,1.695 -8.73,1.689 -8.92,1.602 -8.949,1.262 -8.695,1.237 c 1.004,-0.097 1.997,-0.34 2.486,-1.328 0.016,-0.031 0.035,-0.055 0.058,-0.074 0.019,-0.076 0.044,-0.15 0.055,-0.227 0.019,-0.123 0.11,-0.186 0.207,-0.199 0.095,-0.023 0.203,0.003 0.265,0.11 0.039,0.067 0.089,0.128 0.134,0.191 0.028,0.011 0.055,0.025 0.081,0.048 0.814,0.744 1.829,0.61 2.799,0.337 0.246,-0.07 0.341,0.258 0.197,0.408 -0.008,0.009 -0.017,0.016 -0.025,0.025 1.045,-0.096 1.851,-0.436 2.186,-1.673 0.073,-0.272 0.459,-0.151 0.455,0.099 C 0.196,-0.646 0.12,-0.302 0,0" />
      </g>
      <g
         transform="translate(304.9863,311.5151)"
         id="g28588">
        <path
           inkscape:connector-curvature="0"
           id="path28590"
           style="fill:#6b3200;fill-opacity:1;fill-rule:nonzero;stroke:none"
           d="m 0,0 c 0,0 0,0 -0.001,0.001 -1.552,1.721 -4.682,0.312 -5.444,-1.855 -1.432,1.796 -4.852,2.098 -5.752,-0.037 v -0.002 c -0.127,-0.3 -0.209,-0.642 -0.223,-1.042 -0.009,-0.25 0.375,-0.377 0.453,-0.106 0.358,1.23 1.169,1.555 2.216,1.632 -0.008,-0.008 -0.018,-0.015 -0.024,-0.025 -0.148,-0.147 -0.059,-0.476 0.189,-0.411 0.975,0.255 1.991,0.371 2.792,-0.388 0.025,-0.023 0.052,-0.038 0.08,-0.049 0.044,-0.064 0.093,-0.126 0.13,-0.194 0.061,-0.108 0.168,-0.136 0.264,-0.115 0.096,0.012 0.189,0.073 0.21,0.195 0.013,0.077 0.039,0.151 0.059,0.226 0.023,0.02 0.043,0.043 0.06,0.073 0.507,0.98 1.505,1.204 2.51,1.283 0.254,0.021 0.231,0.361 0.043,0.452 -0.009,0.006 -0.021,0.009 -0.031,0.015 1.014,0.271 1.887,0.23 2.628,-0.814 0.164,-0.23 0.485,0.017 0.394,0.25 C 0.408,-0.539 0.218,-0.242 0,0" />
      </g>
      <g
         transform="translate(382.1973,259.8936)"
         id="g28592">
        <path
           inkscape:connector-curvature="0"
           id="path28594"
           style="fill:#7da530;fill-opacity:1;fill-rule:nonzero;stroke:none"
           d="m 0,0 c -3.702,0.577 -7.035,-1.243 -8.716,-4.14 -0.921,3.427 -4.041,5.953 -7.76,5.953 -3.676,0 -6.77,-2.47 -7.729,-5.839 -0.832,0.58 -1.842,0.923 -2.933,0.923 -1.687,0 -3.179,-0.817 -4.116,-2.073 -1.446,2.138 -3.893,3.545 -6.669,3.545 -0.71,0 -1.393,-0.101 -2.049,-0.274 -0.728,5.582 -5.49,9.895 -11.27,9.895 -6.283,0 -11.378,-5.094 -11.378,-11.378 0,-0.173 0.018,-0.341 0.026,-0.512 -0.284,0.031 -0.571,0.048 -0.863,0.048 -0.961,0 -1.877,-0.177 -2.731,-0.485 -0.822,5.187 -5.482,9.097 -10.987,8.697 -5.179,-0.376 -9.373,-4.725 -9.574,-9.915 -0.229,-5.906 4.492,-10.766 10.347,-10.766 0.818,0 1.614,0.096 2.376,0.278 1.791,0.426 3.611,-0.274 4.919,-1.57 1.451,-1.438 3.445,-2.326 5.65,-2.326 1.583,0 3.058,0.458 4.302,1.248 1.517,0.964 3.451,1.146 5.088,0.401 1.008,-0.458 2.128,-0.714 3.309,-0.714 1.697,0 3.269,0.527 4.565,1.426 1.51,1.049 3.488,1.185 5.184,0.475 0.95,-0.396 1.991,-0.616 3.086,-0.616 2.272,0 4.319,0.943 5.78,2.457 1.21,1.255 2.845,2.046 4.581,1.904 0.14,-0.012 0.282,-0.018 0.424,-0.018 0.711,0 1.389,0.145 2.005,0.406 1.608,0.683 3.427,0.394 4.977,-0.41 1.102,-0.571 2.353,-0.894 3.68,-0.894 1.136,0 2.215,0.236 3.194,0.661 2.046,0.89 4.484,0.549 6.11,-0.979 1.518,-1.428 3.56,-2.302 5.808,-2.302 5.013,0 9.013,4.341 8.446,9.47 C 6.669,-3.687 3.715,-0.579 0,0" />
      </g>
      <g
         transform="translate(305.0225,258.418)"
         id="g28596">
        <path
           inkscape:connector-curvature="0"
           id="path28598"
           style="fill:#729c28;fill-opacity:1;fill-rule:nonzero;stroke:none"
           d="m 0,0 c 5.505,0.4 10.165,-3.51 10.987,-8.698 0.854,0.309 1.77,0.486 2.73,0.486 0.292,0 0.58,-0.017 0.864,-0.048 -0.008,0.171 -0.026,0.339 -0.026,0.512 0,6.284 5.094,11.378 11.378,11.378 5.78,0 10.542,-4.314 11.27,-9.895 0.655,0.172 1.339,0.273 2.049,0.273 2.775,0 5.223,-1.406 6.669,-3.545 0.936,1.257 2.429,2.074 4.116,2.074 1.091,0 2.101,-0.343 2.933,-0.923 0.959,3.369 4.052,5.839 7.729,5.839 3.719,0 6.839,-2.526 7.76,-5.953 1.681,2.897 5.014,4.716 8.716,4.14 3.042,-0.474 5.57,-2.645 6.615,-5.466 0.435,1.192 0.619,2.504 0.467,3.878 -0.413,3.737 -3.367,6.845 -7.082,7.424 -3.702,0.576 -7.035,-1.243 -8.716,-4.141 -0.921,3.428 -4.041,5.954 -7.76,5.954 -3.677,0 -6.77,-2.47 -7.729,-5.839 -0.832,0.58 -1.842,0.923 -2.933,0.923 -1.687,0 -3.18,-0.818 -4.116,-2.074 -1.446,2.139 -3.894,3.545 -6.669,3.545 -0.71,0 -1.394,-0.101 -2.049,-0.273 -0.728,5.581 -5.49,9.895 -11.27,9.895 -6.284,0 -11.378,-5.094 -11.378,-11.378 0,-0.173 0.018,-0.341 0.026,-0.512 -0.284,0.03 -0.572,0.048 -0.864,0.048 -0.96,0 -1.876,-0.177 -2.73,-0.486 C 10.165,2.326 5.505,6.236 0,5.836 -5.18,5.46 -9.373,1.11 -9.574,-4.079 -9.619,-5.248 -9.464,-6.372 -9.151,-7.429 -7.951,-3.4 -4.324,-0.314 0,0" />
      </g>
      <g
         transform="translate(345.1221,291.522)"
         id="g28600">
        <path
           inkscape:connector-curvature="0"
           id="path28602"
           style="fill:#cfcfcf;fill-opacity:1;fill-rule:nonzero;stroke:none"
           d="m 0,0 h -6.355 c 0.527,0.248 0.893,0.782 0.893,1.402 0,0.857 -0.694,1.551 -1.551,1.551 H 7.898 c 0.857,0 1.551,0.693 1.551,1.55 0,0.856 -0.694,1.55 -1.551,1.55 h -8.71 c 0.856,0 1.55,0.694 1.55,1.55 0,0.856 -0.694,1.55 -1.55,1.55 h -10.704 c 0.857,0 1.551,0.695 1.551,1.551 0,0.856 -0.694,1.55 -1.551,1.55 h -20.005 c -0.855,0 -1.549,-0.694 -1.549,-1.55 0,-0.856 0.694,-1.551 1.549,-1.551 h -7.824 c -0.856,0 -1.55,-0.694 -1.55,-1.55 0,-0.856 0.694,-1.55 1.55,-1.55 h 8.71 c -0.855,0 -1.55,-0.694 -1.55,-1.55 0,-0.857 0.695,-1.55 1.55,-1.55 h -14.911 c -0.855,0 -1.55,-0.694 -1.55,-1.551 0,-0.856 0.695,-1.549 1.55,-1.549 h 9.974 c -0.528,-0.248 -0.894,-0.782 -0.894,-1.403 0,-0.856 0.695,-1.551 1.55,-1.551 H 0 c 0.856,0 1.551,0.695 1.551,1.551 C 1.551,-0.694 0.856,0 0,0" />
      </g>
      <g
         transform="translate(353.6855,291.522)"
         id="g28604">
        <path
           inkscape:connector-curvature="0"
           id="path28606"
           style="fill:#d8d8d8;fill-opacity:1;fill-rule:nonzero;stroke:none"
           d="m 0,0 h -3.322 c -0.857,0 -1.55,-0.694 -1.55,-1.55 0,-0.856 0.693,-1.551 1.55,-1.551 H 0 c 0.855,0 1.55,0.695 1.55,1.551 C 1.55,-0.694 0.855,0 0,0" />
      </g>
      <g
         transform="translate(302.8613,299.125)"
         id="g28608">
        <path
           inkscape:connector-curvature="0"
           id="path28610"
           style="fill:#d9d9d9;fill-opacity:1;fill-rule:nonzero;stroke:none"
           d="m 0,0 c 0,0.856 -0.693,1.55 -1.55,1.55 h -3.322 c -0.856,0 -1.55,-0.694 -1.55,-1.55 0,-0.856 0.694,-1.55 1.55,-1.55 H -1.55 C -0.693,-1.55 0,-0.856 0,0" />
      </g>
      <g
         transform="translate(353.0205,297.5752)"
         id="g28612">
        <path
           inkscape:connector-curvature="0"
           id="path28614"
           style="fill:#d9d9d9;fill-opacity:1;fill-rule:nonzero;stroke:none"
           d="m 0,0 h -8.71 c 0.856,0 1.55,0.694 1.55,1.55 0,0.856 -0.694,1.55 -1.55,1.55 h -10.704 c 0.856,0 1.551,0.694 1.551,1.55 0,0.856 -0.695,1.551 -1.551,1.551 h -20.005 c -0.855,0 -1.55,-0.695 -1.55,-1.551 0,-0.856 0.695,-1.55 1.55,-1.55 h -7.824 c -0.857,0 -1.55,-0.694 -1.55,-1.55 0,-0.856 0.693,-1.55 1.55,-1.55 h 8.71 c -0.856,0 -1.55,-0.694 -1.55,-1.55 0,-0.126 0.02,-0.246 0.047,-0.363 H 1.503 C 1.531,-1.796 1.551,-1.676 1.551,-1.55 1.551,-0.694 0.856,0 0,0" />
      </g>
      <g
         transform="translate(290.7461,250.7539)"
         id="g28616">
        <path
           inkscape:connector-curvature="0"
           id="path28618"
           style="fill:#7f4301;fill-opacity:1;fill-rule:nonzero;stroke:none"
           d="M 0,0 C 1.113,4.801 1.567,10.525 0.938,15.112 0.153,20.854 -1.927,26.536 -5.3,31.503 l 0.181,0.144 C -0.999,27.228 2.09,21.731 3.871,15.754 5.652,9.779 6.456,2.54 5.354,-3.857 l -0.02,0.001 C 5.231,-4.232 4.706,-4.434 4.294,-4.51 3.688,-4.734 3.036,-4.765 2.337,-4.729 1.462,-4.684 0.21,-4.805 -0.651,-4.437 c -0.023,0.005 -0.044,0.006 -0.068,0.015 -0.51,0.178 -0.503,0.73 -0.288,1.127 C -0.745,-2.174 -0.383,-1.083 0,0" />
      </g>
      <g
         transform="translate(293.083,246.0254)"
         id="g28620">
        <path
           inkscape:connector-curvature="0"
           id="path28622"
           style="fill:#6b3200;fill-opacity:1;fill-rule:nonzero;stroke:none"
           d="m 0,0 c -0.875,0.045 -2.127,-0.076 -2.988,0.292 -0.023,0.005 -0.044,0.006 -0.068,0.015 -0.51,0.177 -0.503,0.729 -0.288,1.127 0.262,1.121 0.624,2.211 1.007,3.295 1.113,4.8 1.567,10.525 0.939,15.111 -0.786,5.743 -2.866,11.424 -6.239,16.392 l 0.077,0.061 C -4.482,32.099 -2.112,27.305 -0.591,22.198 1.422,15.447 2.33,7.268 1.085,0.04 L 1.063,0.042 C 1.061,0.033 1.056,0.026 1.053,0.018 0.715,-0.018 0.364,-0.019 0,0" />
      </g>
      <g
         transform="translate(278.4473,274.4155)"
         id="g28624">
        <path
           inkscape:connector-curvature="0"
           id="path28626"
           style="fill:#4cbe9e;fill-opacity:1;fill-rule:nonzero;stroke:none"
           d="M 0,0 C 0.003,0.974 0.007,1.947 0.01,2.921 -2.9,0.248 -4.522,-3.77 -4.282,-7.715 c -0.42,1.891 -0.549,3.845 -0.381,5.774 -1.782,-3.372 -2.5,-7.297 -2.024,-11.081 -1.746,6.1 -0.807,13.217 3.518,17.859 C -1.161,6.993 1.104,8.54 4.043,8.34 6.061,8.202 7.563,7.316 7.563,7.316 6.017,6.997 1.008,2.434 0,0" />
      </g>
      <g
         transform="translate(275.2783,279.2529)"
         id="g28628">
        <path
           inkscape:connector-curvature="0"
           id="path28630"
           style="fill:#33aa85;fill-opacity:1;fill-rule:nonzero;stroke:none"
           d="M 0,0 C 2.008,2.155 4.272,3.703 7.212,3.502 9.229,3.365 10.732,2.479 10.732,2.479 10.471,2.425 10.108,2.247 9.684,1.98 9.258,2.083 8.783,2.165 8.276,2.2 5.337,2.4 3.072,0.853 1.064,-1.303 -1.495,-4.05 -2.868,-7.664 -3.201,-11.421 -3.674,-13.529 -3.787,-15.717 -3.519,-17.86 -5.264,-11.76 -4.325,-4.642 0,0" />
      </g>
      <g
         transform="translate(287.1035,291.6816)"
         id="g28632">
        <path
           inkscape:connector-curvature="0"
           id="path28634"
           style="fill:#4cbe9e;fill-opacity:1;fill-rule:nonzero;stroke:none"
           d="M 0,0 C -0.702,-0.541 -1.404,-1.082 -2.107,-1.622 -1.783,1.961 0.226,5.356 3.211,7.364 1.611,6.623 0.127,5.635 -1.176,4.446 0.277,7.601 2.72,10.29 5.72,12.039 0.343,9.927 -4.286,5.312 -5.251,-0.383 -5.699,-3.027 -5.566,-5.521 -3.796,-7.536 -2.58,-8.919 -1.107,-9.517 -1.107,-9.517 -1.732,-8.221 -1.202,-2.075 0,0" />
      </g>
      <g
         transform="translate(281.8525,291.2983)"
         id="g28636">
        <path
           inkscape:connector-curvature="0"
           id="path28638"
           style="fill:#33aa85;fill-opacity:1;fill-rule:nonzero;stroke:none"
           d="m 0,0 c -0.448,-2.644 -0.314,-5.138 1.455,-7.153 1.216,-1.383 2.689,-1.98 2.689,-1.98 -0.107,0.219 -0.178,0.58 -0.22,1.034 -0.311,0.251 -0.632,0.549 -0.938,0.897 -1.77,2.015 -1.904,4.508 -1.456,7.153 0.572,3.37 2.426,6.362 4.959,8.681 1.263,1.507 2.782,2.8 4.482,3.79 C 5.594,10.311 0.965,5.696 0,0" />
      </g>
      <g
         transform="translate(294.2695,277.9487)"
         id="g28640">
        <path
           inkscape:connector-curvature="0"
           id="path28642"
           style="fill:#4cbe9e;fill-opacity:1;fill-rule:nonzero;stroke:none"
           d="M 0,0 -0.952,2.483 C 2.39,1.149 5.068,-1.747 6.139,-5.182 5.886,-3.437 5.363,-1.732 4.597,-0.145 7.204,-2.438 9.083,-5.547 9.902,-8.922 9.415,-3.166 6.316,2.589 1.134,5.142 -1.271,6.327 -3.699,6.912 -6.137,5.792 -7.809,5.022 -8.803,3.782 -8.803,3.782 -7.383,4.01 -1.645,1.746 0,0" />
      </g>
      <g
         transform="translate(295.4033,283.0908)"
         id="g28644">
        <path
           inkscape:connector-curvature="0"
           id="path28646"
           style="fill:#33aa85;fill-opacity:1;fill-rule:nonzero;stroke:none"
           d="M 0,0 C -2.405,1.185 -4.833,1.77 -7.271,0.649 -8.942,-0.12 -9.937,-1.36 -9.937,-1.36 c 0.242,0.039 0.608,0.005 1.055,-0.085 0.329,0.225 0.706,0.448 1.127,0.642 2.437,1.12 4.864,0.535 7.271,-0.65 3.066,-1.511 5.403,-4.143 6.901,-7.234 1.083,-1.641 1.888,-3.466 2.352,-5.377 C 8.281,-8.308 5.183,-2.553 0,0" />
      </g>
      <g
         transform="translate(293.0908,287.645)"
         id="g28648">
        <path
           inkscape:connector-curvature="0"
           id="path28650"
           style="fill:#4cbe9e;fill-opacity:1;fill-rule:nonzero;stroke:none"
           d="M 0,0 C -0.881,0.099 -1.763,0.197 -2.644,0.296 0.078,2.649 3.882,3.697 7.424,3.067 5.759,3.645 4.004,3.966 2.242,4.015 5.478,5.275 9.103,5.514 12.476,4.688 7.141,6.904 0.605,6.799 -4.045,3.372 -6.204,1.78 -7.84,-0.106 -7.966,-2.786 -8.052,-4.625 -7.407,-6.077 -7.407,-6.077 -6.957,-4.711 -2.307,-0.658 0,0" />
      </g>
      <g
         transform="translate(289.0459,291.0166)"
         id="g28652">
        <path
           inkscape:connector-curvature="0"
           id="path28654"
           style="fill:#33aa85;fill-opacity:1;fill-rule:nonzero;stroke:none"
           d="m 0,0 c -2.159,-1.591 -3.795,-3.478 -3.921,-6.157 -0.086,-1.839 0.559,-3.292 0.559,-3.292 0.076,0.232 0.275,0.541 0.56,0.897 -0.049,0.396 -0.073,0.834 -0.052,1.296 0.126,2.679 1.762,4.566 3.921,6.157 2.752,2.028 6.164,2.892 9.597,2.802 C 12.62,1.91 14.61,1.784 16.521,1.317 11.186,3.532 4.65,3.427 0,0" />
      </g>
      <g
         transform="translate(276.1396,283.4087)"
         id="g28656">
        <path
           inkscape:connector-curvature="0"
           id="path28658"
           style="fill:#4cbe9e;fill-opacity:1;fill-rule:nonzero;stroke:none"
           d="M 0,0 2.133,1.588 C -1.403,2.249 -5.217,1.237 -7.959,-1.091 -6.812,0.247 -5.458,1.408 -3.96,2.338 -7.391,1.796 -10.642,0.176 -13.14,-2.237 -9.647,2.365 -3.949,5.567 1.794,4.951 4.461,4.664 6.824,3.858 8.283,1.608 9.284,0.063 9.46,-1.517 9.46,-1.517 8.383,-0.564 2.323,0.594 0,0" />
      </g>
      <g
         transform="translate(277.9336,288.3594)"
         id="g28660">
        <path
           inkscape:connector-curvature="0"
           id="path28662"
           style="fill:#33aa85;fill-opacity:1;fill-rule:nonzero;stroke:none"
           d="m 0,0 c 2.667,-0.287 5.03,-1.092 6.489,-3.343 1.001,-1.545 1.177,-3.124 1.177,-3.124 -0.183,0.161 -0.511,0.328 -0.937,0.492 -0.157,0.367 -0.356,0.757 -0.608,1.145 -1.458,2.251 -3.822,3.057 -6.489,3.343 -3.399,0.365 -6.781,-0.608 -9.701,-2.416 -1.793,-0.806 -3.451,-1.918 -4.865,-3.284 C -11.441,-2.586 -5.743,0.617 0,0" />
      </g>
      <g
         transform="translate(283.9541,282.3042)"
         id="g28664">
        <path
           inkscape:connector-curvature="0"
           id="path28666"
           style="fill:#599100;fill-opacity:1;fill-rule:nonzero;stroke:none"
           d="M 0,0 C -0.077,-1.127 0.774,-2.104 1.902,-2.181 3.03,-2.258 4.007,-1.406 4.083,-0.278 4.16,0.85 3.309,1.826 2.181,1.903 1.053,1.979 0.076,1.128 0,0" />
      </g>
      <g
         transform="translate(285.6299,284.1768)"
         id="g28668">
        <path
           inkscape:connector-curvature="0"
           id="path28670"
           style="fill:#528100;fill-opacity:1;fill-rule:nonzero;stroke:none"
           d="M 0,0 C -0.077,-0.047 -0.152,-0.1 -0.223,-0.162 -0.912,-0.764 -0.983,-1.811 -0.382,-2.5 0.22,-3.19 1.267,-3.262 1.957,-2.66 2.165,-2.478 2.316,-2.255 2.41,-2.015 2.41,-2.06 2.411,-2.105 2.407,-2.15 2.331,-3.278 1.354,-4.13 0.227,-4.053 -0.901,-3.977 -1.753,-3 -1.676,-1.873 -1.611,-0.918 -0.9,-0.163 0,0" />
      </g>
      <g
         transform="translate(286.0615,283.3091)"
         id="g28672">
        <path
           inkscape:connector-curvature="0"
           id="path28674"
           style="fill:#83b200;fill-opacity:1;fill-rule:nonzero;stroke:none"
           d="m 0,0 c -0.02,-0.29 0.199,-0.541 0.489,-0.561 0.29,-0.02 0.542,0.2 0.562,0.49 C 1.07,0.219 0.852,0.47 0.562,0.489 0.271,0.509 0.021,0.29 0,0" />
      </g>
      <g
         transform="translate(286.5146,280.3115)"
         id="g28676">
        <path
           inkscape:connector-curvature="0"
           id="path28678"
           style="fill:#599100;fill-opacity:1;fill-rule:nonzero;stroke:none"
           d="M 0,0 C -0.076,-1.128 0.775,-2.104 1.903,-2.181 3.03,-2.258 4.007,-1.406 4.084,-0.278 4.161,0.85 3.309,1.826 2.181,1.903 1.054,1.979 0.077,1.127 0,0" />
      </g>
      <g
         transform="translate(288.1914,282.1841)"
         id="g28680">
        <path
           inkscape:connector-curvature="0"
           id="path28682"
           style="fill:#528100;fill-opacity:1;fill-rule:nonzero;stroke:none"
           d="m 0,0 c -0.077,-0.047 -0.152,-0.1 -0.224,-0.162 -0.689,-0.602 -0.76,-1.649 -0.159,-2.338 0.603,-0.69 1.65,-0.762 2.339,-0.16 0.209,0.181 0.359,0.405 0.453,0.645 0,-0.045 0.001,-0.09 -0.002,-0.136 C 2.33,-3.278 1.354,-4.13 0.227,-4.054 -0.901,-3.977 -1.753,-3 -1.677,-1.873 -1.611,-0.918 -0.901,-0.163 0,0" />
      </g>
      <g
         transform="translate(288.623,281.3164)"
         id="g28684">
        <path
           inkscape:connector-curvature="0"
           id="path28686"
           style="fill:#83b200;fill-opacity:1;fill-rule:nonzero;stroke:none"
           d="M 0,0 C -0.02,-0.29 0.199,-0.541 0.489,-0.561 0.779,-0.581 1.03,-0.362 1.05,-0.072 1.07,0.218 0.851,0.47 0.561,0.489 0.271,0.509 0.02,0.29 0,0" />
      </g>
      <g
         transform="translate(283.3994,279.0918)"
         id="g28688">
        <path
           inkscape:connector-curvature="0"
           id="path28690"
           style="fill:#599100;fill-opacity:1;fill-rule:nonzero;stroke:none"
           d="M 0,0 C -0.083,-1.213 0.834,-2.264 2.047,-2.346 3.261,-2.429 4.311,-1.513 4.394,-0.299 4.476,0.914 3.56,1.964 2.347,2.047 1.133,2.13 0.083,1.213 0,0" />
      </g>
      <g
         transform="translate(285.2021,281.1064)"
         id="g28692">
        <path
           inkscape:connector-curvature="0"
           id="path28694"
           style="fill:#528100;fill-opacity:1;fill-rule:nonzero;stroke:none"
           d="m 0,0 c -0.083,-0.051 -0.163,-0.108 -0.239,-0.174 -0.742,-0.648 -0.82,-1.774 -0.171,-2.516 0.647,-0.743 1.773,-0.819 2.515,-0.172 0.225,0.195 0.387,0.435 0.488,0.695 0,-0.049 10e-4,-0.098 -0.002,-0.147 -0.083,-1.213 -1.133,-2.13 -2.347,-2.047 -1.213,0.083 -2.13,1.133 -2.047,2.346 C -1.732,-0.987 -0.969,-0.176 0,0" />
      </g>
      <g
         transform="translate(285.667,280.1729)"
         id="g28696">
        <path
           inkscape:connector-curvature="0"
           id="path28698"
           style="fill:#83b200;fill-opacity:1;fill-rule:nonzero;stroke:none"
           d="M 0,0 C -0.021,-0.312 0.215,-0.582 0.526,-0.604 0.839,-0.625 1.109,-0.389 1.13,-0.077 1.151,0.235 0.916,0.505 0.604,0.526 0.292,0.548 0.021,0.312 0,0" />
      </g>
    </g>
  </g>
</svg>
