<svg xmlns="http://www.w3.org/2000/svg" xmlns:xlink="http://www.w3.org/1999/xlink" width="272" height="189" viewBox="0 0 71.71 49.919"><style><![CDATA[.B{fill:#4cbe9e}.C{fill:#33aa85}.D{fill:#599100}.E{fill:#528100}.F{fill:#83b200}.G{fill:#cfcfcf}.H{fill:#d8d8d8}.I{fill:#d9d9d9}.J{fill:#6b3200}]]></style><g transform="matrix(.352778 0 0 -.352778 -92.780016 129.13073)"><path d="M325.964 275.85h-8.097c.672.315 1.138.996 1.138 1.787 0 1.1-.884 1.974-1.975 1.974h18.996c1.1 0 1.974.885 1.974 1.975s-.884 1.975-1.974 1.975H324.93c1.09 0 1.974.884 1.974 1.975s-.883 1.974-1.974 1.974h-13.635c1.1 0 1.975.884 1.975 1.975s-.885 1.975-1.975 1.975H285.81c-1.1 0-1.975-.884-1.975-1.975s.885-1.975 1.975-1.975h-9.967c-1.09 0-1.976-.884-1.976-1.974s.885-1.975 1.976-1.975h11.096c-1.09 0-1.975-.884-1.975-1.975s.884-1.975 1.975-1.975h-18.996c-1.1 0-1.974-.884-1.974-1.974s.884-1.975 1.974-1.975h12.705c-.672-.315-1.138-.996-1.138-1.787 0-1.1.884-1.975 1.974-1.975h44.48c1.09 0 1.975.885 1.975 1.975s-.884 1.975-1.975 1.975" class="G"/><use xlink:href="#B" class="H"/><g class="I"><use xlink:href="#C"/><path d="M336.025 283.562H324.93c1.09 0 1.975.884 1.975 1.975s-.884 1.975-1.975 1.975h-13.635c1.1 0 1.975.883 1.975 1.974s-.885 1.975-1.975 1.975H285.8c-1.1 0-1.974-.884-1.974-1.975s.884-1.974 1.974-1.974h-9.967c-1.1 0-1.975-.885-1.975-1.975s.885-1.975 1.975-1.975h11.096c-1.09 0-1.975-.884-1.975-1.975a2.01 2.01 0 0 1 .06-.462h52.916c.036.15.06.302.06.462 0 1.09-.884 1.975-1.975 1.975"/></g><path d="M433.84 314.836h-8.096c.67.315 1.138.996 1.138 1.787 0 1.1-.885 1.974-1.975 1.974h18.995c1.1 0 1.975.885 1.975 1.975s-.885 1.975-1.975 1.975h-11.096c1.09 0 1.974.884 1.974 1.975s-.883 1.974-1.974 1.974h-13.635c1.1 0 1.975.884 1.975 1.975s-.885 1.975-1.975 1.975H393.69c-1.09 0-1.975-.884-1.975-1.975s.884-1.975 1.975-1.975h-9.968c-1.09 0-1.975-.884-1.975-1.974s.884-1.975 1.975-1.975h11.096c-1.09 0-1.975-.884-1.975-1.975s.884-1.975 1.975-1.975H375.82c-1.1 0-1.974-.884-1.974-1.974s.884-1.975 1.974-1.975h12.705c-.672-.315-1.138-.996-1.138-1.787 0-1.1.885-1.974 1.974-1.974h44.48c1.09 0 1.975.884 1.975 1.974s-.884 1.975-1.975 1.975" class="G"/><path d="M444.75 314.836h-4.23c-1.09 0-1.975-.884-1.975-1.975s.884-1.974 1.975-1.974h4.23c1.09 0 1.975.884 1.975 1.974s-.884 1.975-1.975 1.975" class="H"/><g class="I"><use xlink:href="#C" x="107.876" y="38.985"/><path d="M443.902 322.547h-11.096c1.09 0 1.975.884 1.975 1.975s-.884 1.974-1.975 1.974h-13.634c1.09 0 1.974.884 1.974 1.975s-.885 1.975-1.974 1.975h-25.484c-1.09 0-1.974-.884-1.974-1.975s.883-1.975 1.974-1.975h-9.968c-1.1 0-1.974-.884-1.974-1.974s.884-1.975 1.974-1.975h11.096c-1.09 0-1.975-.884-1.975-1.975 0-.16.025-.313.06-.462h52.915c.036.15.06.302.06.462 0 1.09-.885 1.975-1.976 1.975"/></g><path d="M358.015 319.767h-8.097c.672.315 1.138.996 1.138 1.787 0 1.1-.884 1.974-1.975 1.974h18.996c1.1 0 1.974.885 1.974 1.975s-.884 1.975-1.974 1.975H356.98c1.09 0 1.974.884 1.974 1.975s-.883 1.974-1.974 1.974h-13.635c1.1 0 1.975.884 1.975 1.975s-.885 1.975-1.975 1.975h-25.484c-1.1 0-1.975-.884-1.975-1.975s.885-1.975 1.975-1.975h-9.967c-1.09 0-1.976-.884-1.976-1.974s.885-1.975 1.976-1.975h11.096c-1.09 0-1.975-.884-1.975-1.975s.884-1.975 1.975-1.975h-18.996c-1.1 0-1.974-.884-1.974-1.974s.884-1.975 1.974-1.975H312.7c-.672-.315-1.138-.996-1.138-1.787 0-1.1.884-1.975 1.974-1.975h44.48c1.09 0 1.975.885 1.975 1.975s-.884 1.975-1.975 1.975" class="G"/><use xlink:href="#B" x="32.051" y="43.917" class="H"/><path d="M304.18 329.453a1.97 1.97 0 0 1-1.975 1.975h-4.23c-1.1 0-1.975-.885-1.975-1.975s.884-1.975 1.975-1.975h4.23c1.1 0 1.975.884 1.975 1.975m63.896-1.975H356.98c1.1 0 1.975.884 1.975 1.975s-.884 1.974-1.975 1.974h-13.634c1.1 0 1.974.884 1.974 1.975s-.885 1.975-1.974 1.975H317.86a1.97 1.97 0 0 1-1.974-1.975c0-1.09.884-1.975 1.974-1.975h-9.967a1.97 1.97 0 0 1-1.975-1.974c0-1.1.885-1.975 1.975-1.975H319c-1.1 0-1.975-.884-1.975-1.975a2.01 2.01 0 0 1 .06-.462H370c.036.15.06.302.06.462 0 1.1-.884 1.975-1.975 1.975" class="I"/><path d="M440.83 281.472h-8.097c.672.315 1.138.996 1.138 1.787 0 1.1-.884 1.974-1.975 1.974h18.996c1.1 0 1.974.885 1.974 1.975s-.884 1.975-1.974 1.975h-11.096c1.1 0 1.974.884 1.974 1.975s-.884 1.974-1.974 1.974H426.16c1.09 0 1.975.884 1.975 1.975s-.884 1.975-1.975 1.975h-25.483c-1.09 0-1.975-.884-1.975-1.975s.884-1.975 1.975-1.975H390.7c-1.1 0-1.975-.884-1.975-1.974s.885-1.975 1.975-1.975h11.097c-1.09 0-1.975-.884-1.975-1.975s.884-1.975 1.975-1.975H382.81c-1.1 0-1.974-.884-1.974-1.974s.884-1.975 1.974-1.975h12.705c-.672-.315-1.138-.996-1.138-1.787 0-1.1.884-1.975 1.974-1.975h44.48c1.09 0 1.975.885 1.975 1.975s-.884 1.975-1.975 1.975" class="G"/><path d="M451.74 281.472h-4.23c-1.09 0-1.976-.884-1.976-1.975s.885-1.975 1.976-1.975h4.23c1.1 0 1.975.885 1.975 1.975s-.885 1.975-1.975 1.975" class="H"/><path d="M386.996 291.158c0 1.1-.885 1.975-1.975 1.975h-4.23c-1.1 0-1.976-.884-1.976-1.975s.885-1.975 1.976-1.975h4.23a1.97 1.97 0 0 1 1.975 1.975m63.897-1.975h-11.096a1.97 1.97 0 0 1 1.975 1.975c0 1.09-.885 1.974-1.975 1.974h-13.635a1.97 1.97 0 0 1 1.974 1.975c0 1.09-.884 1.975-1.974 1.975h-25.484c-1.1 0-1.974-.884-1.974-1.975s.883-1.975 1.974-1.975H390.7c-1.1 0-1.974-.884-1.974-1.974s.885-1.975 1.974-1.975h11.097c-1.1 0-1.975-.884-1.975-1.975 0-.16.024-.313.06-.462h52.916a2.01 2.01 0 0 1 .06.462c0 1.1-.884 1.975-1.975 1.975" class="I"/><path d="M466.273 244.722c-9.342 12.188-49.323 21.35-97.23 21.35s-87.9-9.16-97.232-21.35l8.532-5.52a91.47 91.47 0 0 1 66.451-13.115l14.397 2.687a91.5 91.5 0 0 0 32.613.17 91.45 91.45 0 0 1 55.291 7.564z" fill="#f2cb5f"/><path d="M450.543 254.578l-1.448-.692c-13.954-6.672-19.15-4.694-30.65-1.948-5.278 1.262-10.708-1.43-12.912-6.4-1.855-4.176-6.045-6.797-10.613-6.69-10.353.243-23.256-1.667-31.83-3.266h-25.25c-21.14-3.944-33.974 7.573-52.616 18.048-6.333-2.687-10.946-5.696-13.415-8.92l8.532-5.52c19.655-12.714 43.438-17.408 66.45-13.115l14.397 2.687c10.774 2 21.82 2.067 32.614.17 18.768-3.3 38.1-.656 55.29 7.564l17.177 8.213c-2.76 3.603-8.2 6.94-15.73 9.856" fill="#f2d480"/><path d="M463.62 247.444l-14.524-6.944c-17.193-8.22-36.523-10.866-55.29-7.565a91.46 91.46 0 0 1-32.614-.17l-14.397-2.686a91.46 91.46 0 0 0-66.45 13.115l-6.174 3.993c-.924-.806-1.717-1.628-2.36-2.466l8.533-5.518c19.655-12.714 43.438-17.408 66.45-13.115l14.397 2.686c10.774 2 21.82 2.067 32.614.17 18.768-3.3 38.098-.655 55.29 7.564l17.177 8.213c-.7.927-1.6 1.835-2.653 2.723" fill="#88c2e2"/><path d="M357.73 335.043l-17.906-76.372c13.55-5.883 29.347-7.607 44.12-4.813l7.308 1.383c7.61 1.44 15.565 1.693 23.407.746l11.894-1.436-28.057 78.62-19.843 17.9z" fill="#80b8c2"/><path d="M379.807 328.48l12.916 9.9-14.07 12.7-20.923-16.038-17.906-76.37c6.977-3.03 14.55-4.947 22.274-5.722z" fill="#7aafb8"/><path d="M416.302 264.21c-1.914.377-3.725.074-5.275-.68a5.99 5.99 0 0 1-5.253 3.111c-1.45 0-2.78-.515-3.815-1.372-1.795 1.073-3.886 1.7-6.13 1.7-.243 0-.48-.022-.72-.036-1.195 5.44-6.078 9.497-11.898 9.402-6.268-.104-11.53-5.244-11.77-11.51-.26-6.83 5.2-12.45 11.97-12.45.243 0 .482.022.72.036 1.18-5.376 5.965-9.402 11.695-9.402 2.565 0 4.938.806 6.883 2.18 3.04 2.145 6.768 3.315 10.428 2.64a8.35 8.35 0 0 1 1.519-.138c4.896 0 8.806 4.218 8.296 9.218-.366 3.6-3.113 6.605-6.653 7.302" fill="#74a516"/><path d="M422.955 256.91c-.366 3.59-3.113 6.605-6.653 7.302-1.914.377-3.725.073-5.276-.68-1.018 1.854-2.988 3.11-5.253 3.11-1.45 0-2.778-.515-3.814-1.372-1.795 1.073-3.887 1.7-6.13 1.7-.243 0-.48-.022-.72-.036-1.194 5.44-6.077 9.497-11.897 9.4-6.27-.103-11.53-5.243-11.77-11.51-.008-.246.005-.486.01-.73 2.024 1.655 4.58 2.67 7.33 2.717 5.82.096 10.703-3.962 11.898-9.402.24.015.477.037.72.037 2.243 0 4.334-.628 6.13-1.7 1.036.857 2.365 1.372 3.816 1.372 2.264 0 4.234-1.256 5.253-3.1 1.55.753 3.36 1.056 5.275.68 3.152-.62 5.664-3.083 6.437-6.148 3.018 1.473 5.02 4.707 4.645 8.368" fill="#699c0e"/><path d="M349.3 292.505l23.42 34.337-2.6-16.948 6.7 13.028 10.274-27.284-2.17 33.528 4.47-9.496 3.794 5.467 12.344-30.9-2.418 20.284 4.726-7.567-9.353 26.206-19.842 17.9-20.923-16.037-2.333-9.953 8.267 5.523z" fill="#a0d4d9"/><path d="M392.723 338.38l-14.07 12.7-20.923-16.037-2.333-9.953 8.267 5.524-14.364-38.11 23.42 34.337-2.6-16.947 6.7 13.027 1.032-2.74 1.945 8.297z" fill="#8ccad1"/><path d="M332.464 326.64l-30.187-72.643c13.086-5.694 28.353-7.344 42.635-4.6l7.067 1.352c7.356 1.408 15.046 1.666 22.624.757l11.495-1.377-26.997 76.288-11.917 9.728z" fill="#93c2c9"/><path d="M355.397 325.1l-8.213 11.045-14.72-9.495-30.186-72.643c4.893-2.13 10.093-3.692 15.43-4.673l32.036 74.368z" fill="#7aafb8"/><path d="M333.606 300.675l8.92 23.977 7.5-14.254.72 13.546 11.908-29.16-1.372 14.472 6.24-6.655-8.424 23.805-11.917 9.728-14.72-9.495-6.327-14.827 7.143 5.723z" fill="#b0dce0"/><path d="M358.11 327.217l-10.926 8.918-14.72-9.495-6.08-14.628 6.895 5.524.327-16.86 8.92 23.977 4.195-7.974 3.022 7.014z" fill="#8ccad1"/><path d="M425.89 253.48c-1.38 5.952-1.944 13.05-1.164 18.734.974 7.12 3.552 14.163 7.733 20.323l-.222.177c-5.11-5.48-8.938-12.293-11.147-19.703s-3.205-16.383-1.838-24.314l.024.002c.13-.466.78-.715 1.29-.81.75-.277 1.558-.314 2.426-.27 1.084.055 2.636-.095 3.704.36.028.006.054.008.085.02.63.22.622.904.356 1.397-.325 1.4-.773 2.742-1.248 4.085" fill="#7f4301"/><path d="M422.993 247.617c1.084.056 2.637-.095 3.704.36.028.006.055.008.085.02.632.22.622.904.357 1.397-.326 1.4-.774 2.742-1.25 4.085-1.38 5.952-1.944 13.05-1.164 18.735.974 7.12 3.552 14.163 7.734 20.322l-.096.076c-3.814-5.2-6.753-11.144-8.64-17.475-2.495-8.37-3.62-18.51-2.076-27.47l.027.002c.003-.01.01-.02.012-.03a8.56 8.56 0 0 1 1.306-.022" class="J"/><path d="M441.138 282.814l-.012 3.62c3.61-3.314 5.618-8.295 5.32-13.185.52 2.343.68 4.766.472 7.158 2.2-4.18 3.1-9.047 2.51-13.74 2.164 7.563 1 16.387-4.36 22.142-2.5 2.672-5.297 4.6-8.94 4.342-2.5-.17-4.365-1.27-4.365-1.27 1.917-.396 8.127-6.053 9.377-9.07" class="B"/><path d="M445.066 288.81c-2.49 2.672-5.297 4.6-8.94 4.342-2.5-.17-4.366-1.27-4.366-1.27.325-.067.775-.287 1.3-.618a10.38 10.38 0 0 0 1.745.272c3.644.25 6.452-1.67 8.942-4.342 3.173-3.406 4.875-7.886 5.288-12.544.586-2.613.726-5.326.392-7.983 2.164 7.563 1 16.387-4.36 22.142" class="C"/><path d="M430.406 304.22l2.612-2.01c-.4 4.442-2.89 8.65-6.593 11.14a21.46 21.46 0 0 0 5.438-3.617c-1.8 3.9-4.83 7.245-8.548 9.413 6.666-2.617 12.404-8.34 13.602-15.4.554-3.278.39-6.37-1.806-8.868-1.506-1.715-3.332-2.455-3.332-2.455.774 1.606.117 9.226-1.373 11.798" class="B"/><path d="M436.917 303.745c.555-3.278.4-6.37-1.806-8.868-1.506-1.715-3.332-2.455-3.332-2.455.132.272.22.72.273 1.282a9.57 9.57 0 0 1 1.162 1.112c2.194 2.498 2.36 5.59 1.805 8.868-.708 4.178-3.008 7.887-6.148 10.762-1.565 1.87-3.45 3.47-5.556 4.7 6.666-2.617 12.405-8.34 13.602-15.4" class="C"/><path d="M421.522 287.194l1.18 3.078c-4.143-1.654-7.464-5.244-8.79-9.502a21.44 21.44 0 0 0 1.912 6.245c-3.233-2.844-5.563-6.698-6.577-10.883.603 7.137 4.445 14.27 10.87 17.437 2.983 1.47 5.993 2.194 9.013.805 2.075-.953 3.306-2.49 3.306-2.49-1.76.283-8.874-2.525-10.913-4.69" class="B"/><path d="M420.115 293.57c2.983 1.47 5.993 2.194 9.014.805 2.074-.953 3.305-2.49 3.305-2.49-.298.048-.752.005-1.306-.106a9.52 9.52 0 0 1-1.398.796c-3.02 1.39-6.03.664-9.013-.806-3.802-1.872-6.7-5.136-8.556-8.967-1.343-2.035-2.34-4.298-2.915-6.668.603 7.137 4.445 14.27 10.87 17.437" class="C"/><path d="M422.983 299.215l3.276.367c-3.374 2.918-8.088 4.216-12.48 3.436 2.064.716 4.24 1.114 6.425 1.175-4.012 1.562-8.506 1.857-12.69.834 6.614 2.747 14.717 2.617 20.483-1.632 2.676-1.973 4.704-4.312 4.86-7.634.107-2.28-.692-4.08-.692-4.08-.558 1.693-6.324 6.72-9.183 7.534" class="B"/><path d="M427.998 303.395c2.677-1.973 4.704-4.312 4.86-7.633.108-2.28-.69-4.08-.69-4.08-.095.287-.342.67-.695 1.112a9.56 9.56 0 0 1 .063 1.606c-.155 3.322-2.183 5.66-4.86 7.634-3.41 2.514-7.642 3.586-11.9 3.473-2.424.257-4.892.1-7.26-.478 6.614 2.746 14.716 2.616 20.482-1.633" class="C"/><path d="M444 293.963l-2.645 1.968c4.384.82 9.112-.435 12.512-3.32a21.48 21.48 0 0 1-4.958 4.252c4.253-.672 8.283-2.68 11.38-5.672-4.33 5.705-11.393 9.675-18.514 8.9-3.305-.355-6.236-1.353-8.045-4.144-1.24-1.915-1.46-3.873-1.46-3.873 1.336 1.18 8.848 2.617 11.73 1.88" class="B"/><path d="M441.774 300.1c-3.306-.355-6.236-1.354-8.045-4.144-1.24-1.916-1.46-3.874-1.46-3.874.227.2.633.408 1.16.61.196.454.443.938.754 1.42 1.81 2.8 4.74 3.79 8.045 4.144 4.214.452 8.408-.754 12.027-2.996a21.2 21.2 0 0 0 6.031-4.071c-4.33 5.704-11.394 9.675-18.514 8.9" class="C"/><path d="M434.31 292.594c.096-1.398-.96-2.61-2.358-2.704s-2.61.96-2.704 2.36.96 2.61 2.36 2.704a2.54 2.54 0 0 0 2.703-2.359" class="D"/><path d="M432.232 294.916a1.96 1.96 0 0 0 .276-.201c.856-.746.945-2.044.2-2.9s-2.045-.944-2.9-.198a2.05 2.05 0 0 0-.561.8l.003-.168c.095-1.398 1.305-2.455 2.704-2.36s2.454 1.305 2.358 2.704c-.08 1.183-.96 2.12-2.078 2.32" class="E"/><path d="M431.697 293.84c.024-.36-.247-.67-.606-.695s-.67.247-.696.606.247.67.607.696.67-.248.695-.607" class="F"/><path d="M431.136 290.124a2.54 2.54 0 0 0-2.358-2.704c-1.4-.095-2.6.96-2.704 2.36s.96 2.61 2.358 2.704a2.54 2.54 0 0 0 2.704-2.359" class="D"/><path d="M429.058 292.445c.096-.06.19-.124.276-.2.856-.746.944-2.045.198-2.9s-2.044-.944-2.9-.197a2.04 2.04 0 0 0-.561.799l.003-.168c.094-1.398 1.305-2.454 2.704-2.36s2.454 1.306 2.358 2.704c-.08 1.183-.96 2.12-2.078 2.32" class="E"/><path d="M428.523 291.37c.024-.36-.247-.67-.606-.695s-.67.247-.696.607.247.67.607.695.67-.247.695-.607" class="F"/><path d="M434.998 288.61a2.73 2.73 0 0 0-2.538-2.909 2.73 2.73 0 0 0-2.908 2.538 2.73 2.73 0 0 0 2.538 2.909 2.73 2.73 0 0 0 2.908-2.538" class="D"/><path d="M432.763 291.11a2.18 2.18 0 0 0 .297-.216 2.21 2.21 0 1 0-2.907-3.332c-.278.242-.48.54-.604.86l.003-.182a2.73 2.73 0 0 1 2.908-2.537 2.73 2.73 0 0 1 .303 5.406" class="E"/><path d="M432.187 289.952a.7.7 0 0 0-1.4-.096.7.7 0 0 0 1.4.096" class="F"/><path d="M349.6 356.216c-1.244 1.957-4.565 1.1-5.68-.92-1.113 2-4.434 2.877-5.677.92a2.92 2.92 0 0 1-.394-.99c-.05-.245.307-.435.43-.18.556 1.153 1.4 1.34 2.456 1.24l-.03-.02c-.17-.12-.136-.46.12-.438 1.003.1 2.025.035 2.688-.847.02-.027.045-.046.07-.062l.096-.212c.04-.117.143-.162.24-.158a.23.23 0 0 1 .24.158c.025.073.063.14.095.212.027.016.05.035.072.062.663.882 1.684.937 2.688.847.255-.022.288.317.118.438-.01.008-.02.013-.028.02 1.045.1 1.9-.087 2.456-1.24.123-.254.48-.064.43.18-.08.4-.22.715-.393 1m6.758 9.026c-1.535 1.738-4.68.36-5.464-1.798-1.414 1.8-4.83 2.147-5.752.02-.13-.3-.216-.642-.233-1.04-.012-.25.37-.38.452-.1.37 1.226 1.184 1.543 2.23 1.6-.007-.008-.016-.015-.024-.024-.15-.146-.063-.476.186-.414.977.245 1.995.35 2.788-.416a.24.24 0 0 1 .08-.05l.13-.194c.058-.1.165-.14.26-.12.097.01.2.072.212.194.014.076.04.15.063.225a.25.25 0 0 1 .059.072c.517.975 1.518 1.2 2.523 1.257.256.018.235.36.05.452l-.032.015c1.017.26 1.9.2 2.62-.84.162-.23.484.012.396.246-.14.374-.327.673-.543.917m8.894-8.182c-1.243 1.957-4.564 1.1-5.678-.92-1.113 2-4.434 2.877-5.677.92a2.92 2.92 0 0 1-.394-.99c-.05-.245.307-.435.43-.18.556 1.153 1.4 1.34 2.456 1.24l-.03-.02c-.17-.12-.136-.46.12-.438 1.003.1 2.025.035 2.688-.847a.27.27 0 0 1 .07-.062l.097-.212c.04-.117.143-.162.24-.158a.23.23 0 0 1 .24.158c.025.073.063.14.095.212.027.016.05.035.07.062.664.882 1.685.937 2.7.847.255-.023.288.317.118.438-.01.008-.02.013-.028.02 1.045.1 1.9-.087 2.456-1.24.123-.254.48-.064.43.18-.08.4-.22.715-.394 1m53.657-26.317c-1.244 1.957-4.565 1.1-5.68-.92-1.113 2-4.434 2.877-5.677.92a2.92 2.92 0 0 1-.394-.99c-.05-.245.307-.435.43-.18.556 1.153 1.4 1.34 2.456 1.24l-.03-.02c-.17-.12-.136-.46.12-.438 1.003.1 2.025.035 2.688-.847a.29.29 0 0 1 .071-.062l.096-.212c.04-.117.143-.162.24-.158a.23.23 0 0 1 .24.158c.025.073.063.14.096.212a.24.24 0 0 1 .07.062c.663.882 1.684.937 2.688.847.255-.022.288.317.118.438-.01.008-.02.013-.028.02 1.045.1 1.9-.087 2.456-1.24.123-.254.48-.064.43.18-.08.4-.22.715-.393 1m-61.79 15.1c-.86 2.153-4.286 1.913-5.75.144-.723 2.18-3.827 3.646-5.4 1.954a2.94 2.94 0 0 1-.569-.902c-.095-.232.22-.484.388-.258.76 1.03 1.634 1.056 2.643.766l-.03-.015c-.2-.087-.22-.427.035-.452 1.004-.097 1.997-.34 2.486-1.328a.23.23 0 0 1 .058-.074l.055-.227a.23.23 0 0 1 .207-.199c.095-.023.203.003.265.1.04.067.1.128.134.2a.23.23 0 0 1 .08.048c.814.744 1.83.6 2.8.337.246-.07.34.258.197.408-.008.01-.017.016-.025.025 1.045-.096 1.85-.436 2.186-1.673.073-.272.46-.15.455.1-.007.4-.083.744-.203 1.046m-52.128-34.36c-1.553 1.722-4.683.313-5.445-1.854-1.432 1.796-4.852 2.098-5.752-.037v-.002c-.127-.3-.2-.642-.223-1.042-.01-.25.375-.377.453-.106.358 1.23 1.17 1.555 2.216 1.632-.008-.008-.018-.015-.024-.025-.148-.147-.06-.476.2-.4.975.255 2 .37 2.792-.388a.25.25 0 0 1 .08-.049l.13-.194c.06-.108.168-.136.264-.115.096.012.2.073.2.195.013.077.04.15.06.226.023.02.043.043.06.073.507.98 1.505 1.204 2.5 1.283.254.02.23.36.043.452-.01.006-.02.01-.03.015 1.014.27 1.887.23 2.628-.814.164-.23.485.017.394.25-.145.372-.335.67-.553.9" class="J"/><path d="M382.197 259.894c-3.702.577-7.035-1.243-8.716-4.14a8.04 8.04 0 0 1-7.76 5.953c-3.676 0-6.77-2.47-7.73-5.84a5.11 5.11 0 0 1-2.933.923c-1.687 0-3.18-.817-4.116-2.073-1.446 2.138-3.893 3.545-6.67 3.545-.7 0-1.393-.1-2.05-.274-.728 5.582-5.5 9.895-11.27 9.895a11.38 11.38 0 0 1-11.378-11.378c0-.173.018-.34.026-.512-.284.03-.57.048-.863.048-.96 0-1.877-.177-2.73-.485-.822 5.187-5.482 9.097-10.987 8.697-5.18-.376-9.373-4.725-9.574-9.915a10.36 10.36 0 0 1 10.347-10.766 10.22 10.22 0 0 1 2.376.278c1.79.426 3.61-.274 4.92-1.57 1.45-1.438 3.445-2.326 5.65-2.326 1.583 0 3.058.458 4.302 1.248 1.517.964 3.45 1.146 5.088.4a7.98 7.98 0 0 1 7.874.712c1.5 1.05 3.488 1.185 5.184.475.95-.396 1.99-.616 3.086-.616 2.272 0 4.32.943 5.78 2.457 1.2 1.255 2.845 2.046 4.58 1.904.14-.012.282-.018.424-.018a5.13 5.13 0 0 1 2.005.406c1.608.683 3.427.394 4.977-.4 1.102-.57 2.353-.894 3.68-.894 1.136 0 2.215.236 3.194.66 2.046.9 4.484.55 6.1-.98 1.518-1.428 3.56-2.302 5.808-2.302 5.013 0 9.013 4.34 8.446 9.47-.413 3.737-3.367 6.845-7.082 7.424" fill="#7da530"/><path d="M305.023 258.418c5.505.4 10.165-3.5 10.987-8.698a8 8 0 0 0 2.73.486c.292 0 .58-.017.864-.048-.008.17-.026.34-.026.512a11.38 11.38 0 0 0 11.378 11.378c5.78 0 10.542-4.314 11.27-9.895.655.172 1.34.273 2.05.273 2.775 0 5.223-1.406 6.67-3.545a5.12 5.12 0 0 0 4.116 2.074 5.11 5.11 0 0 0 2.933-.923c.96 3.37 4.052 5.84 7.73 5.84a8.04 8.04 0 0 0 7.76-5.953c1.68 2.897 5.014 4.716 8.716 4.14 3.042-.474 5.57-2.645 6.615-5.466a8.52 8.52 0 0 1 .467 3.878c-.413 3.737-3.367 6.845-7.082 7.424-3.702.576-7.035-1.243-8.716-4.14-.92 3.428-4.04 5.954-7.76 5.954-3.677 0-6.77-2.47-7.73-5.84a5.11 5.11 0 0 1-2.933.923c-1.687 0-3.18-.818-4.116-2.074-1.446 2.14-3.894 3.545-6.67 3.545-.7 0-1.394-.1-2.05-.273-.728 5.58-5.5 9.895-11.27 9.895a11.38 11.38 0 0 1-11.378-11.378c0-.173.018-.34.026-.512-.284.03-.572.048-.864.048a8 8 0 0 1-2.73-.486c-.822 5.188-5.482 9.098-10.987 8.698-5.18-.376-9.373-4.726-9.574-9.915a10.36 10.36 0 0 1 .423-3.35c1.2 4.03 4.827 7.115 9.15 7.43" fill="#729c28"/><path d="M345.122 291.522h-6.355a1.55 1.55 0 0 1-.658 2.953h14.91a1.55 1.55 0 1 1 0 3.1h-8.7a1.55 1.55 0 1 1 0 3.1h-10.704a1.55 1.55 0 1 1 0 3.101H313.6a1.55 1.55 0 1 1 0-3.101h-7.824a1.55 1.55 0 1 1 0-3.1h8.7a1.55 1.55 0 1 1 0-3.1h-14.91a1.55 1.55 0 1 1 0-3.1h9.974a1.55 1.55 0 0 1 .656-2.954h34.916a1.55 1.55 0 1 1 0 3.101" class="G"/><path d="M353.686 291.522h-3.322a1.55 1.55 0 1 1 0-3.101h3.322a1.55 1.55 0 1 1 0 3.101" class="H"/><path d="M302.86 299.125a1.55 1.55 0 0 1-1.55 1.55h-3.322a1.55 1.55 0 1 1 0-3.1h3.322a1.55 1.55 0 0 1 1.55 1.55m50.16-1.55h-8.7a1.55 1.55 0 1 1 0 3.1h-10.704a1.55 1.55 0 1 1 0 3.101H313.61a1.55 1.55 0 1 1 0-3.101h-7.824a1.55 1.55 0 1 1 0-3.1h8.7a1.55 1.55 0 0 1-1.55-1.55c0-.126.02-.246.047-.363h41.54a1.55 1.55 0 0 1-1.503 1.913" class="I"/><path d="M290.746 250.754c1.113 4.8 1.567 10.525.938 15.112-.785 5.742-2.865 11.424-6.238 16.39l.18.144c4.12-4.42 7.21-9.916 9-15.893s2.585-13.214 1.483-19.61l-.02.001c-.103-.376-.628-.578-1.04-.654-.606-.224-1.258-.255-1.957-.22-.875.045-2.127-.076-2.988.292-.023.005-.044.006-.068.015-.5.178-.503.73-.288 1.127.262 1.12.624 2.212 1.007 3.295" fill="#7f4301"/><path d="M293.083 246.025c-.875.045-2.127-.076-2.988.292-.023.005-.044.006-.068.015-.5.177-.503.73-.288 1.127.262 1.12.624 2.21 1.007 3.295 1.113 4.8 1.567 10.525.94 15.11-.786 5.743-2.866 11.424-6.24 16.392l.077.06c3.078-4.194 5.448-8.988 6.97-14.095 2.013-6.75 2.92-14.93 1.676-22.158l-.022.002c-.002-.01-.007-.016-.01-.024-.338-.036-.69-.037-1.053-.018" class="J"/><path d="M278.447 274.416l.01 2.92c-2.9-2.673-4.532-6.69-4.292-10.636-.42 1.89-.55 3.845-.38 5.774a18.86 18.86 0 0 1-2.024-11.081c-1.746 6.1-.807 13.217 3.518 17.86 2.008 2.156 4.273 3.703 7.212 3.503 2.018-.138 3.52-1.024 3.52-1.024-1.546-.32-6.555-4.882-7.563-7.316" class="B"/><path d="M275.278 279.253c2.008 2.155 4.272 3.703 7.212 3.502 2.017-.137 3.52-1.023 3.52-1.023-.26-.054-.624-.232-1.048-.5a8.5 8.5 0 0 1-1.408.22c-2.94.2-5.204-1.347-7.212-3.503-2.56-2.747-3.932-6.36-4.265-10.118-.473-2.108-.586-4.296-.318-6.44-1.745 6.1-.806 13.218 3.52 17.86" class="C"/><path d="M287.104 291.682l-2.107-1.622c.324 3.583 2.333 6.978 5.318 8.986-1.6-.74-3.084-1.73-4.387-2.918a17.17 17.17 0 0 0 6.896 7.593c-5.377-2.112-10.006-6.727-10.97-12.422-.448-2.644-.315-5.138 1.455-7.153 1.216-1.383 2.69-1.98 2.69-1.98-.625 1.296-.095 7.442 1.107 9.517" class="B"/><path d="M281.853 291.298c-.448-2.644-.314-5.138 1.455-7.153 1.216-1.383 2.69-1.98 2.69-1.98-.107.22-.178.58-.22 1.034-.31.25-.632.55-.938.897-1.77 2.015-1.904 4.508-1.456 7.153.572 3.37 2.426 6.362 4.96 8.68 1.263 1.507 2.782 2.8 4.482 3.8-5.377-2.11-10.006-6.726-10.97-12.422" class="C"/><path d="M294.27 277.95l-.952 2.483a12.33 12.33 0 0 0 7.091-7.665c-.253 1.745-.776 3.45-1.542 5.037a17.17 17.17 0 0 0 5.305-8.777c-.487 5.756-3.586 11.51-8.768 14.064-2.405 1.185-4.833 1.77-7.27.65-1.672-.77-2.666-2-2.666-2 1.42.228 7.158-2.036 8.803-3.782" class="B"/><path d="M295.403 283.09c-2.405 1.185-4.833 1.77-7.27.65-1.67-.77-2.666-2.01-2.666-2.01.242.04.608.005 1.055-.085a7.74 7.74 0 0 0 1.127.642c2.437 1.12 4.864.535 7.27-.65 3.066-1.51 5.403-4.143 6.9-7.234 1.083-1.64 1.888-3.466 2.352-5.377-.488 5.756-3.586 11.51-8.77 14.064" class="C"/><path d="M293.09 287.645l-2.644.296c2.722 2.353 6.526 3.4 10.068 2.77a17.3 17.3 0 0 1-5.182.948c3.236 1.26 6.86 1.5 10.234.673-5.335 2.216-11.87 2.11-16.52-1.316-2.16-1.592-3.795-3.478-3.92-6.158-.086-1.84.56-3.29.56-3.29.45 1.366 5.1 5.42 7.407 6.077" class="B"/><path d="M289.046 291.017c-2.16-1.59-3.795-3.478-3.92-6.157-.086-1.84.56-3.292.56-3.292.076.232.275.54.56.897a7.73 7.73 0 0 0-.052 1.296c.126 2.68 1.762 4.566 3.92 6.157 2.752 2.028 6.164 2.892 9.597 2.802 1.956.207 3.946.08 5.857-.386-5.335 2.215-11.87 2.1-16.52-1.317" class="C"/><path d="M276.14 283.41l2.133 1.588c-3.536.66-7.35-.35-10.092-2.68a17.29 17.29 0 0 0 3.999 3.429c-3.43-.542-6.682-2.162-9.18-4.575 3.493 4.602 9.19 7.804 14.934 7.188 2.667-.287 5.03-1.093 6.49-3.343 1-1.545 1.177-3.125 1.177-3.125-1.077.953-7.137 2.11-9.46 1.517" class="B"/><path d="M277.934 288.36c2.667-.287 5.03-1.092 6.49-3.343 1-1.545 1.177-3.124 1.177-3.124-.183.16-.51.328-.937.492a7.57 7.57 0 0 1-.608 1.145c-1.458 2.25-3.822 3.057-6.49 3.343-3.4.365-6.78-.608-9.7-2.416a17.11 17.11 0 0 1-4.865-3.284c3.493 4.6 9.19 7.804 14.934 7.187" class="C"/><path d="M283.954 282.304c-.077-1.127.774-2.104 1.902-2.18s2.105.775 2.18 1.903-.774 2.104-1.902 2.18-2.105-.775-2.18-1.903" class="D"/><path d="M285.63 284.177a1.62 1.62 0 0 1-.223-.162 1.66 1.66 0 0 1-.159-2.338 1.66 1.66 0 0 1 2.792.485l-.003-.135c-.076-1.128-1.053-1.98-2.18-1.903s-1.98 1.053-1.903 2.18c.065.955.776 1.7 1.676 1.873" class="E"/><path d="M286.062 283.31c-.02-.3.2-.54.49-.56a.53.53 0 0 1 .562.49c.02.3-.2.54-.49.56s-.54-.2-.562-.49" class="F"/><path d="M286.515 280.312c-.076-1.128.775-2.104 1.903-2.18s2.104.775 2.18 1.903-.775 2.104-1.903 2.18a2.05 2.05 0 0 1-2.181-1.903" class="D"/><path d="M288.19 282.184a1.69 1.69 0 0 1-.224-.162 1.66 1.66 0 0 1-.159-2.338 1.66 1.66 0 0 1 2.339-.16 1.64 1.64 0 0 1 .453.645l-.002-.136a2.05 2.05 0 0 0-2.18-1.903 2.05 2.05 0 0 0-1.904 2.181c.066.955.776 1.7 1.677 1.873" class="E"/><path d="M288.623 281.316c-.02-.3.2-.54.49-.56s.54.2.56.49-.2.542-.49.56-.54-.2-.56-.49" class="F"/><path d="M283.4 279.092a2.2 2.2 0 1 1 4.394-.299c.082 1.213-.834 2.263-2.047 2.346s-2.264-.834-2.347-2.047" class="D"/><path d="M285.202 281.106c-.083-.05-.163-.108-.24-.174-.742-.648-.82-1.774-.17-2.516a1.78 1.78 0 0 1 2.515-.172c.225.195.387.435.488.695l-.002-.147c-.083-1.213-1.133-2.13-2.347-2.047a2.2 2.2 0 0 0-.244 4.361" class="E"/><path d="M285.667 280.173a.57.57 0 0 1 .526-.604c.313-.02.583.215.604.527s-.214.582-.526.603-.583-.214-.604-.526" class="F"/></g><defs ><path id="B" d="M336.872 275.85h-4.23c-1.09 0-1.975-.884-1.975-1.975s.884-1.975 1.975-1.975h4.23c1.09 0 1.975.885 1.975 1.975s-.884 1.975-1.975 1.975"/><path id="C" d="M272.13 285.537c0 1.09-.884 1.975-1.975 1.975h-4.23c-1.09 0-1.975-.884-1.975-1.975s.884-1.975 1.975-1.975h4.23c1.09 0 1.975.885 1.975 1.975"/></defs></svg>