<svg xmlns="http://www.w3.org/2000/svg" xmlns:xlink="http://www.w3.org/1999/xlink" width="570" height="453" viewBox="0 0 569.527 452.65"><style><![CDATA[.B{fill:#7e3838}.C{fill:#ffb41d}.D{fill:#fcb6ac}.E{fill:#ffbe9d}.F{fill:#001118}.G{fill:#7c4e50}.H{fill:#feaf84}.I{fill:#ffccb0}.J{fill:#f2a181}.K{fill:#e2e2e2}.L{fill:#fcf2eb}.M{fill:#301b2c}.N{fill:#3e2739}.O{fill:#ffbf4d}.P{fill:#ffc8b0}.Q{fill:#ff9100}.R{fill:#f9d8cd}.S{fill:#ffefe9}.T{fill:#cecece}]]></style><defs><clipPath id="A"><path d="M0 500h500V0H0z"/></clipPath><clipPath id="B"><path d="M352.46 339.47h13.97v-19.11h-13.97z"/></clipPath><clipPath id="C"><path d="M124.042 228.82h32.39v-21.434h-32.39z"/></clipPath><clipPath id="D"><path d="M97.543 235.937h28.044V191.4H97.543z"/></clipPath><clipPath id="E"><path d="M104.448 264.337h18.8v-6.78h-18.8z"/></clipPath><clipPath id="F"><path d="M217.66 101.12h.01v-.012h-.01z"/></clipPath><clipPath id="G"><path d="M393.755 228.528h23.666v-23.665h-23.666z"/></clipPath><clipPath id="H"><path d="M409.796 242.777h16.11v-16.11h-16.11z"/></clipPath><clipPath id="I"><path d="M389.758 247.07h19.16v-19.16h-19.16z"/></clipPath><clipPath id="J"><path d="M423.853 183.66h10.492v-33.396h-10.492z"/></clipPath><clipPath id="K"><path d="M245.1 233.782h24.205v-10.047H245.1z"/></clipPath><path id="L" d="M146.595 92.503c0-1.553-14.292-2.813-31.924-2.813s-31.92 1.26-31.92 2.813 14.292 2.813 31.92 2.813 31.924-1.26 31.924-2.813"/><path id="M" d="M194.12 168.345h-2.355c-.18 0-.327.147-.327.327v2.097c0 .18.146.328.327.328h2.355c.18 0 .327-.147.327-.328v-2.097c0-.18-.146-.327-.327-.327"/><path id="N" d="M267.363 185.005c-.146 0-.265.12-.265.265v2.677c0 .146.12.265.265.265s.265-.12.265-.265v-2.677c0-.146-.12-.265-.265-.265"/><path id="O" d="M341.693 355.43h-1.96v1.96c0 .316-.257.573-.574.573s-.573-.257-.573-.573v-1.96h-1.96c-.317 0-.573-.257-.573-.573a.57.57 0 0 1 .573-.573h1.96v-1.96c0-.316.257-.573.573-.573s.574.257.574.573v1.96h1.96a.57.57 0 0 1 .573.573c0 .316-.256.573-.573.573"/><path id="P" d="M330.964 415.445h-1.96v1.96c0 .316-.257.573-.574.573s-.573-.257-.573-.573v-1.96h-1.96c-.317 0-.574-.257-.574-.573s.257-.573.574-.573h1.96v-1.96c0-.316.257-.573.573-.573s.574.257.574.573v1.96h1.96a.57.57 0 0 1 .573.573c0 .316-.256.573-.573.573"/><path id="Q" d="M179.42 345.82a2.03 2.03 0 0 0-2.028-2.028 2.03 2.03 0 0 0-2.028 2.028 2.03 2.03 0 0 0 2.028 2.028 2.03 2.03 0 0 0 2.028-2.028"/></defs><g clip-path="url(#A)" transform="matrix(1.333333 0 0 -1.333333 -48.563732 572.23745)"><path d="M145.937 298.36H63.86c-12.376 0-12.53 14.073-1.545 16.904 11.3 2.912 19.322-3.748 19.322-3.748s2.98 34.6 31.234 30.527c22.273-3.2 20.98-25.436 20.98-25.436s4.585 9.15 16.6 5.688c12.536-3.613 11.177-23.935-4.514-23.935m160.737 73.196h77.454c11.68 0 11.825 13.28 1.458 15.952-10.665 2.748-18.234-3.537-18.234-3.537s-2.813 32.64-29.475 28.808c-21.02-3.02-19.798-24.004-19.798-24.004s-4.326 8.636-15.665 5.368c-11.83-3.4-10.548-22.587 4.26-22.587" fill="#fff7f5"/><g fill="#f2b9a7"><path d="M406 98.045c-.598 0-1.1.454-1.167 1.062l-15.882 166.17a1.17 1.17 0 0 0 1.057 1.28c.637.07 1.217-.4 1.28-1.056L407.16 99.33c.062-.644-.4-1.218-1.057-1.28a1.05 1.05 0 0 0-.112-.005m-63.317 0l-.112.005a1.17 1.17 0 0 0-1.057 1.28l15.882 166.17a1.18 1.18 0 0 0 1.279 1.056 1.17 1.17 0 0 0 1.057-1.28L343.84 99.107c-.058-.608-.57-1.062-1.167-1.062"/><path d="M391.375 250.967H357.3v2.347h34.086zm1.905-19.944h-37.898v2.347h37.898zm1.907-19.943h-41.7v2.347h41.7zm1.906-19.945H351.57v2.347h45.523zM399 171.192h-49.266v2.347H399zm1.906-19.944h-53.1v2.347h53.1zm1.906-19.944h-56.945v2.347h56.945zm1.906-19.944h-60.135v2.347h60.135zM356.492 264.4h35.68a2.06 2.06 0 0 1 2.062 2.062c0 1.14-.923 2.063-2.062 2.063h-35.68c-1.14 0-2.062-.924-2.062-2.063a2.06 2.06 0 0 1 2.062-2.062"/></g><path d="M352.664 352.808s3.343-1.085 8.09-8.342 14.682-33.976 14.682-33.976l-33.043-4.627-13.866 33.046c-1.45 2.103-1.727 4.297-1.727 4.297l3.586 4.2z" class="C"/><g clip-path="url(#B)" opacity=".6" class="R"><path d="M352.46 331.45l.656 1.396c.824 1.753-.444 6.302 1.345 6.622 1.62.3 12.532-18.536 11.945-19.1-.245-.236-4.538 4.538-4.855 4.417-1.69-.643-3.793 3.048-5.6 3.24-1.145.122-2.407.52-2.92 1.552"/></g><path d="M377.21 304.97s.496-11.09.4-15.2c-.06-2.933-.08-9.268-.437-12.37a3.87 3.87 0 0 1 .394-2.19 37.93 37.93 0 0 0 3.669-11.408l1.755-11.42-14.044-1.84-10.403 33.94s3.473 13.705 4.567 13.783 14.09 6.707 14.09 6.707" class="C"/><path d="M340.01 228.646c-1.124-35.298-29.872-64.046-65.17-65.17-38.958-1.24-70.83 30.61-69.58 69.58 1.124 35.298 29.872 64.045 65.17 65.17 38.97 1.242 70.82-30.6 69.58-69.58m59.904-27.603a115.33 115.33 0 0 1 3.896 29.776 115.56 115.56 0 0 1-3.372 27.741l-21.084-2.343a109.04 109.04 0 0 1-12.287 30.224l16.75 13.4c-4.924 8.498-11.024 16.503-18.302 23.78a115.83 115.83 0 0 1-8.83 7.974c-.792.664-1.605 1.295-2.42 1.927a113.79 113.79 0 0 1-10.756 7.352l-13.368-16.74a121.88 121.88 0 0 1-3.211 1.916c-1.21.706-2.44 1.38-3.692 2.033-7.246 3.81-14.963 6.818-23.033 8.937l2.376 21.267c-9.493 2.536-19.48 3.885-29.764 3.885-9.558 0-18.86-1.156-27.753-3.37l2.365-21.17c-10.8-2.536-20.977-6.667-30.278-12.137l-13.336 16.686c-8.508-4.912-16.525-11.013-23.803-18.28-6.764-6.775-12.5-14.17-17.23-22.005l16.6-13.272a108.98 108.98 0 0 1-12.897-30.021l-21.128 2.365c-2.536-9.504-3.895-19.48-3.895-29.765a115.65 115.65 0 0 1 3.371-27.752l21.02 2.344c2.548-10.8 6.71-21 12.212-30.32l-16.61-13.272c4.924-8.52 11.024-16.525 18.302-23.803 6.765-6.764 14.16-12.512 22.005-17.242l13.208 16.514c9.204-5.726 19.308-10.135 30.053-12.95l-2.333-20.978c9.493-2.536 19.458-3.896 29.765-3.896 9.557 0 18.847 1.167 27.74 3.372l-2.322 20.87c10.842 2.558 21.063 6.722 30.407 12.234l13.175-16.483c8.498 4.913 16.525 11.013 23.803 18.29 6.764 6.765 12.5 14.16 17.232 22.005L366.02 173.29c5.694 9.215 10.06 19.34 12.843 30.107z" class="S"/><path d="M272.68 313.24c-.91 0-1.82-.014-2.733-.043-43.204-1.38-78.13-36.304-79.508-79.51-.735-22.992 7.804-44.597 24.042-60.835s37.853-24.78 60.853-24.047c43.197 1.38 78.115 36.298 79.495 79.495.735 23-7.805 44.61-24.047 60.853-15.593 15.593-36.135 24.086-58.102 24.086m-.084-165.96c-22.368 0-43.285 8.648-59.163 24.524-16.53 16.53-25.222 38.524-24.475 61.93 1.404 43.985 36.958 79.54 80.943 80.943 23.383.76 45.398-7.945 61.93-24.476s25.228-38.534 24.48-61.946l-.74.023.74-.023c-1.405-43.977-36.953-79.525-80.93-80.93-.93-.03-1.86-.044-2.785-.044" fill="#f9d8ca"/><path d="M130.742 151.277c-.478-14.947-12.65-27.12-27.598-27.598-16.506-.527-30 12.96-29.472 29.468.477 14.95 12.653 27.125 27.603 27.602 16.506.527 29.994-12.966 29.467-29.472m25.37-11.684a48.76 48.76 0 0 1 1.649 12.606c0 4.052-.495 7.988-1.428 11.753l-8.93-.996c-1.09 4.562-2.862 8.867-5.196 12.804l7.088 5.666a48.74 48.74 0 0 1-7.749 10.079 48.83 48.83 0 0 1-9.32 7.302l-5.662-7.083c-3.887 2.41-8.15 4.266-12.676 5.45l1.005 9.01a48.81 48.81 0 0 1-12.607 1.648 48.86 48.86 0 0 1-11.753-1.427l1-8.97c-4.572-1.075-8.882-2.825-12.822-5.14l-5.65 7.07c-3.604-2.084-6.998-4.667-10.08-7.75a48.81 48.81 0 0 1-7.301-9.319l7.03-5.62a46.18 46.18 0 0 1-5.457-12.712l-8.95.998a48.76 48.76 0 0 1-1.649-12.606c0-4.052.495-7.988 1.428-11.753l8.902.992a46.14 46.14 0 0 1 5.173-12.842l-7.036-5.624c2.084-3.604 4.667-6.998 7.75-10.08 2.865-2.865 5.998-5.298 9.32-7.3l5.594 6.998a46.25 46.25 0 0 1 12.73-5.49l-.99-8.886a48.77 48.77 0 0 1 12.607-1.648c4.052 0 7.988.494 11.753 1.427l-.986 8.844c4.593 1.08 8.924 2.844 12.88 5.177l5.58-6.98c3.604 2.084 6.998 4.667 10.08 7.748 2.865 2.865 5.3 5.998 7.3 9.32l-6.976 5.577a46.18 46.18 0 0 1 5.437 12.751z" class="S"/><path d="M102.227 187.11c-.385 0-.77-.006-1.157-.018-18.3-.585-33.09-15.377-33.675-33.675-.31-9.738 3.305-18.89 10.182-25.766s16.033-10.495 25.774-10.185c18.296.584 33.085 15.374 33.67 33.67.312 9.74-3.305 18.894-10.185 25.774-6.604 6.604-15.304 10.2-24.608 10.2m-.035-70.3c-9.474 0-18.333 3.663-25.058 10.387-7.002 7-10.683 16.316-10.366 26.23.594 18.63 15.653 33.688 34.282 34.283a35.13 35.13 0 0 0 26.229-10.367c7.003-7.003 10.685-16.32 10.37-26.237l-.314.01.314-.01c-.595-18.625-15.652-33.68-34.277-34.276-.394-.013-.787-.02-1.18-.02" fill="#f9d8ca"/><use xlink:href="#L" class="L"/><g class="H"><path d="M151.36 226.86c.693.514 2.178 1.736 2.415 2.55.11.38.79 1.573 1.367 2.69.343.66 1.24 1.976 1.472 2.26.396.49.927 1.66 1.338 1.326.513-.417-.126-1.627-.48-2.366-.13-.27-.272-.544-.312-.842s-.007-.515.185-.746c.105-.126.75-.134.964-.106 1.61.21 2.318.177 3.484.73s1.206.583 2.3 1.283c.186.12.43.42.868.5.217.04.538-.03.533-.25-.005-.172-.898-1.093-1.03-1.204-.706-.6.033-.088-.673-.688-.1-.093-.227-.2-.244-.344-.014-.12.048-.235.06-.355.023-.214-.1-.412-.243-.583-.233-.3-.485-.58-.75-.85-.37-.377-.02-.64-.428-.98-.452-.374-1.668-.82-2.133-1.173-.372-.283-.747-.57-1.164-.78-.5-.253-1.048-.39-1.585-.55-1.472-.44-2.14-1.647-3.33-2.654"/><path d="M158.2 226.66s1.862.402 3.3 1.228 3.274 1.64 4.18 2.774c.07.088.143.35.096.436s-.62.164-1.057-.072l-2.568-1.303"/><path d="M157.762 227.26s2.343.705 3.78 1.532 3.888 1.94 4.725 3.153c.055.08.076.296.03.384s-.62.163-1.057-.073l-3.047-1.63"/><path d="M158.397 228.697s2.343.705 3.78 1.532 3.337 1.78 4.24 2.788c.132.147.082.334.034.422s-.62.163-1.056-.073l-2.57-1.303"/></g><path d="M156.435 224.86s-.17.47-.53 1.095c-.548.967-1.532 2.3-2.987 2.943 0 0-6.98-5.227-9.9-6.87l-.82-.436s-.07-.043-.197-.112c-2.344-1.18-5.493-2.464-8.094-4.252-2.036 6.57-5.168 20.115-9.694 23.7l-.01.01c-1.138.898-2.353 1.172-3.67.547 0 0-6.768-4.603-2.268-16.06 1.575-3.996 3.688-7.307 5.776-9.908 2.346-2.926 4.65-4.972 6.13-6.144h-.003s2.13-2.137 4.163-1.977 4.05 1.908 4.05 1.908h-.001c5.622 3.78 18.056 15.556 18.056 15.556" class="B"/><g clip-path="url(#C)" opacity=".08"><path d="M156.433 224.862s-.173.47-.528 1.095c-2.266-2.276-11.6-10.636-16.38-14.18-5.22-3.873-6.82-2.853-6.82-2.853-.3.134-.605.32-.903.533-1.754 1.26-2.684 3.366-2.665 5.526.066 7.28-.826 13.838-.826 13.838l-4.27-13.305c2.346-2.925 4.65-4.972 6.13-6.144l-.003.001s2.13-2.138 4.163-1.977 4.05 1.908 4.05 1.908l-.008-.003c5.62 3.775 18.06 15.562 18.06 15.562"/></g><path d="M122.665 265.662s2.072-3.476-.247-6.15-4.57 4.17-4.57 4.17z" class="M"/><path d="M97.543 235.006c.02-1.565.27-3.456.682-5.78 1.046-5.914 3.552-13.01 5.25-17.416 1-2.592 1.24-5.414.634-8.13-1.2-5.396.163-5.75.163-5.75s7.306-4.637 13.383-6.53c3.87-1.21 7.24-1.16 7.854 2.257.038.172.058.364.077.556.72.144.672.884.614 1.18-.02.096-.048.336-.077.605-.057.422-.105.93-.105 1.095-.21 10.8 1.613 10.244 2.17 22.34.576 12.413-.218 17.98-3.46 21.032-2.314 2.18-4.133 3.146-7.48 3.72-3.26.56-7.146-.323-11.315-1.308-6.356-1.498-8.44-3.178-8.39-7.873" class="B"/><g clip-path="url(#D)" opacity=".08"><path d="M97.543 235.006c.02-1.565.27-3.456.682-5.78 1.046-5.914 3.552-13.01 5.25-17.416 1-2.592 1.24-5.414.634-8.13-1.2-5.396.163-5.75.163-5.75s7.306-4.637 13.383-6.53l5.675.538 2.18 1.72c.038.172.058.364.077.556-4.95-.233-14.95 3.332-16.974 4.1-1.48.566-2.343 2.093-2.065 3.648.365 2.122.797 5.165.788 7.527-.02 2.38-1.124 6.404-2.026 9.303-.682 2.228-.922 4.55-.758 6.874.288 4.014 0 7.835 0 7.835l-4.503 2.438z"/></g><path d="M103.383 188.88c-.52-.085-1.85 2.25-1.85 2.25l.558.74c.315.418.754.725 1.255.88l.1.028a1.07 1.07 0 0 0 1.203-.413c.382-.566.97-1.21 1.656-1.186h.012c.024-.012.05-.012.073-.012.604-.012-2.478-2.2-2.998-2.285" fill="#f4d5b5"/><path d="M121.484 246.156c-1.455-.34-3.477-.093-3.983-.072-.01-.134.03-.743.083-1.342l.02-.216.093-1.115-.444-3.312-2.806 1.26-4.17 1.207-.278 4.396-.093.61c-.114.412-1.672 3.343-2.807 6.2-.588 1.465-1.052 2.9-1.166 3.993-.02.155-.03.3-.03.444l.052 2.342c.124 2.22.536 4.262 1.92 5.407 1.857 1.558 14.56 6.883 14.92-2.31v-.04s.093-.723.207-1.878a79.63 79.63 0 0 0 .247-2.931c.35-4.984.455-12.134-1.764-12.64" class="H"/><path d="M117.6 244.53c-2.772.847-4.637 2.285-4.637 2.285 3.063-.753 4.534-.728 4.534-.728-.008-.137.035-.744.086-1.343l.017-.214" fill="#f29d77"/><path d="M117.03 237.83s1.477-23.074.22-31.27c0 0 1.643-4.418 2.708-4.793s1.842 2.235 2.885 5.067-3.825 31.195-3.825 31.195zm-1.23 1.454l1.23-1.453 1.987.2s.112.695.143 2.52c0 0-1.17.74-1.9.696z" class="C"/><path d="M110.133 245.172s-.928-.476-1.78-1.755c0 0 1.168-.523 2.186-1.144.93-.568 5.396-3.723 5.396-3.723l1.313 2.698s-4.6 3.217-7.116 3.924m7.118-3.925s1.563-.535 2.044-1.702c0 0 .8 1.532-.223 4.258 0 0-.84.78-1.5 1.068z" fill="#6b2e2e"/><path d="M104.827 192.69s.83-1.042 1.077-1.178.288.152.194.356-1.234 1.098-1.27.822" fill="#e5bb98"/><path d="M100.94 104.8l.338-6.8c.001-.447 2.948-.937 4.31 0l.87 8.102" class="E"/><path d="M101.336 171.2s-8.32 14.2 2.938 26.736c0 0 7.746-3.468 13.95-3.886 4.884-.33 7.365.176 7.365.176s2.056-10.694 1.67-24.353z" class="N"/><path d="M118.953 106.852l.734-8.875 2.262-.98L123.983 98l.334 7.882" class="E"/><path d="M127.338 139.235c-.334-7.666-2.504-22.246-2.492-37.91-2.144-1.282-4.855-.988-5.9-.203-1.622 13.52-6.02 27.432-1.335 39.032-1.848 6.95-4.805 21.698-5.973 28.517a3.62 3.62 0 0 1-.059.381l1.072 3.16c-.298 8.63 5.33 14.96 11.147 12.768 1.276-.477 3.19-4.157 3.382-6.803.155-2.1.04-34.434.088-35.198a18.5 18.5 0 0 0 .035-2.408c.036-.417.048-.858.036-1.335" class="N"/><path d="M117.956 113.568c1.085-11.42.99-12.446.99-12.446-1.534 12.792-5.493 25.004-2.008 37.067.39 1.355.455 2.774.12 4.144-1.84 7.503-4.36 20.166-5.42 26.338l1.55 1.25s2.516 10.944 3.112 11.314c.596.382-.108-3.72-.477-8.786-.382-5.067-1.192-8.167.072-14.235s3.587-14.36 4.064-17.77c-1.807-5.3-3.1-15.445-2.002-26.878" class="M"/><g class="N"><path d="M111.238 140.084c-1.4-7.603-4.313-29.71-4.808-38.484-.234-1.465-5.072-1.202-5.942-.53-.028.094-.04 2.585-.047 2.704-.202 10.27-3.18 28.935 1.236 38.4 2.69 5.764 11.066 6.08 9.56-2.1"/><path d="M114.05 170.568c-.3 10.065-4.968 17.38-10.557 13.416-2.353-1.67-5.138-3-4.67-5.606.815-4.544 2.84-31.572 2.744-36.547-.212-11.217 8.805-7.022 9.372-3.856 1.43 8 3.27 27.108 3.112 32.593"/></g><path d="M118.95 92.747c.05-.15.2-.24.347-.24h13.243c.793-.042 1.274.258 1.322.62.077.578-.467.8-.756.906l-7.38 3.142-1.744.835s-1.288-.34-2.24-.306c-.908.025-2.057.273-2.057.273s-1.875-2.215-.735-5.23m-18.396 0c.05-.15.2-.24.347-.24h13.243c.793-.042 1.274.258 1.322.62.077.578-.467.8-.756.906l-7.382 3.142-1.743.835s-1.288-.34-2.24-.306c-.908.025-2.057.273-2.057.273s-1.875-2.215-.735-5.23" class="F"/><path d="M122.795 263.646c-.382-.444-.95-.867-1.775-1.238H121c-1.672-.753-4.385-1.3-8.616-1.435 0 0-.846-.278-.63-2.022l.123-.67c.547-2.352 1.31-4.53.227-4.385-1.28.155-1.826 5.066-3.756 3.415-.68-.588-.536-1.64-.35-2.517.144-.64.37-1.476.784-2.394.918-2.033 1.558-3.684 1.506-4.974-.02-.32-.154-.433-.3-.464-.144-.04-.31 0-.402.03-.3.093-.63 1.166-1.24 2.26-.94 1.65-2.012 3.828-3.033 6.676l-.537 1.63-.34 1.3v.01c-.784 3.467-.3 6.738 3.9 9.802 5.376 3.92 12.63.826 12.63.826s3.932-3.344 1.806-5.85" class="M"/><path d="M99.974 173.398l-12.572 18.48 24.326 18.946 12.572-18.48z" fill="#c98455"/><path d="M124.3 192.346l-24.325-18.952-14.117 18.13 9.326 7.264 2.062 1.6 12.936 10.08z" fill="#e59a67"/><path d="M109.232 180.607l-.342-.265s-.787 1.035-1.18 1.737c-.385.693-.488 1.65-.488 1.65l-.616.625h-.462s-.932.607-4.355 4.85c-2.66 3.294-5.476 7.752-6.605 9.583l2.062 1.6 7.58-7.7z" fill="#d38e5f"/><path d="M106.605 185.554s1.28-1.478 1.61-2.737c.204-.775 2.473 2.414 2.473 2.414l-1.676 2.54" class="H"/><g class="B"><path d="M100.29 240.75s-6.522-1.326-9.972-31.807l7.225-3.447s7.964 24.168 7.162 28.798-.967 7.06-4.415 6.456"/><path d="M90.317 208.98s7.162-15.274 16.288-23.98l3.006 2.082s-5.65 15.456-12.457 24.303-6.837-2.406-6.837-2.406"/></g><g class="H"><path d="M113.377 184.006l-.433-.338s-1.058.902-2.525 1.542c-.08.112-.17.185-.26.24.5.223 1.185.57.62.58-.836.016-1.057.448-1.057.448l-.78-.392.562-.6c-.638-.218-1.3-1.007-1.53-1.304l-.244.317s-.09-.802.156-1.685 1.056-2.218 1.056-2.218v.01c.1-.2.674-.847 1.063-.847s.532.28.64.382c.16.15.297.044.565.215s.25.407.51.63c.13.1.503.073.767.195s.342.488.502.6c.316.242.62.16.84.6s-.452 1.607-.452 1.607"/><path d="M109.228 186.352s.3.15.757-.055c.51-.228 1.11-.18 1.768-.608l2.517-1.795c.142-.25-.143-.608-.945-.6s-3.833 1.622-3.833 1.622"/></g><g clip-path="url(#E)" opacity=".43" class="H"><path d="M123.25 258.796c-5.995-1.3-10.752.34-10.752.34-.227-.062-.475-.124-.732-.186-1.817-.444-4.293-.908-5.83-1.187l-1.146-.206a15.18 15.18 0 0 0-.34 1.3v.01c.144.36.3.723.31.795.01.062.588.464 1.197.887l1.496 1.022c.35.278 7.708 2.765 7.832 2.765.083 0 3.354-1.125 5.727-1.93h.01l1.98-.68a77.2 77.2 0 0 0 .248-2.93"/></g><path d="M124.102 264.465c-.468 2.367-2.446 8.902-9.987 8.256-11.183-.958-11.438-8.295-10.054-13.734v.001s-.5-.3-.345-.842c0 0 .2-.426.686-.363 0 0 1.277.124 2.804.534 4.18.85 12.03 2.666 16.622 5.093.125-.007.262.045.41.215.536.62-.133.84-.133.84" class="C"/><path d="M108.16 271.218s8.46 2.104 11.432-9.61c0 0 1.422.366 3.357 1.312 0 0-1.8 9.07-8.832 9.802 0 0-3.604 1.193-5.957-1.503" class="O"/><path d="M111.705 259.76s5.998-1.982 12.482.02c0 0 4.745 1.417.05 3.846z" class="C"/><use xlink:href="#L" x="79.11" class="L"/><path d="M159.718 210.658c-2.74.323-4.34 1.534-5.94 2.11s-1.674-.695-2.762-.573-6.596-.686-5.14-1.346 4.768.057 4.917-.568.223-.62-.2-2.137 1.818-1.757 3.237-2.173 3.01 1.198 3.835 1.098 3.248-.07 3.248-.07 17.054-1.958 19.65-1.366 4.123 16.125 4.123 16.125l-7.365.6s-1.532-10.084-1.875-10.47c-3.48.06-15.72-1.233-15.72-1.233" class="I"/><path d="M182.7 240.874s-2.974-1.505-4.425-9.903l-1.612-10.378s.838-1.343 7.352-1.413" class="B"/><g clip-path="url(#F)" opacity=".8"><path d="M217.672 101.12l-.012-.012h.012z" fill="#65b0c4"/></g><path d="M212.54 234.56c-.02-1.565-.27-3.456-.682-5.78-1.046-5.914-3.552-13.01-5.25-17.415-1-2.593-1.24-5.415-.634-8.132 1.2-5.396-.163-5.75-.163-5.75s-7.306-4.637-13.384-6.53c-3.87-1.21-7.24-1.16-7.853 2.257-.038.172-.058.364-.077.556-.72.144-.672.884-.614 1.18.02.096.048.336.077.605.057.423.105.93.105 1.095.21 10.8-1.613 10.244-2.17 22.34-.576 12.413 1.24 18.46 1.53 22.07a47.4 47.4 0 0 0 9.009 2.398c2.158.37 4.835.422 7.44-.082 1.333-.258 2.865-.608 4.276-.94 6.356-1.498 8.44-3.178 8.39-7.873" class="B"/><path d="M206.7 188.434c.52-.085 1.85 2.25 1.85 2.25l-.56.74c-.315.418-.754.725-1.255.88l-.1.028a1.07 1.07 0 0 1-1.203-.413c-.382-.565-.97-1.21-1.656-1.186h-.012c-.024-.012-.048-.012-.073-.012-.604-.013 2.478-2.2 2.998-2.285" fill="#f4d5b5"/><path d="M205.254 192.245s-.83-1.042-1.077-1.178-.288.152-.194.356 1.234 1.098 1.27.822" fill="#e5bb98"/><path d="M213.842 104.454l-.338-6.8c-.001-.447-2.948-.937-4.31 0l-.87 8.102" class="E"/><path d="M207.718 170.744s8.32 14.2-2.938 26.736c0 0-7.746-3.468-13.95-3.886-4.884-.33-7.365.176-7.365.176s-2.056-10.694-1.67-24.352z" class="C"/><path d="M188.893 106.496l-.734-8.875-2.262-.98-2.034 1.014-.334 7.882" class="E"/><path d="M195.15 176.234l-.142.55.242.09-.1-.64m18.97-72.527c-.322 10.267.51 31.254-4.38 40.482-.028.2-.043.38-.068.572-.65 4.933.27 28.628.57 33.234.106 1.614-1.31 3.037-3 4.22a108.08 108.08 0 0 1 3.44 1.812c-.87 7.15-2.36 10.15-3.07 16.037s2.837 17.756 3.278 24.317c-.785-1.488-4.107-3.474-5.63 1.85s.913 15.744.913 15.744c-1.157.485-2.816.72-2.816.72-1.768-4.086-3.23-11.68-3.23-11.68-10.3 1.284-15.488.273-15.567.26-.218 4.458.06 10.156.222 10.305-1.316-.164-2.217-.664-2.217-.664-.38-1.707-.714-7.226-.88-10.545-.524-5.053.098-19.727.098-26.783 0-4.517-.434-18.14-.67-25.178-.038-.232-.07-.46-.085-.68-.03-.39-.05-1.723-.062-3.635v-.001l-.026-28.515a18.34 18.34 0 0 1-.036-2.408c-.036-.417-.048-.858-.036-1.335.334-7.666 2.15-25.204 2.138-40.87 2.144-1.28 4.855-.988 5.902-.203 1.62 13.52 6.373 30.4 1.688 42 1.504 5.656 3.742 14.458 5.153 21.215 1.035-6.632 2.897-16.18 4.54-22.297.005-.02.007-.04.012-.06 1.777-7.523 7.01-31.645 7.953-40.384.308-1.452 5.126-.94 5.96-.227.024.096-.09 2.585-.09 2.704" class="C"/><path d="M190.245 113.122l-1.343-12.357c1.534 12.793 5.847 27.962 2.362 40.025-.39 1.355-.455 2.774-.12 4.144 1.84 7.503 4.36 17.12 5.42 23.29l-1.55 1.25s-2.516 10.944-3.112 11.314c-.596.382.108-3.72.477-8.786.382-5.067 1.192-8.167-.072-14.235s-3.587-11.313-4.064-14.722c1.807-5.29 3.1-18.492 2.002-29.925" fill="#e89c13"/><path d="M188.895 92.4c-.05-.15-.2-.24-.347-.24h-13.243c-.793-.043-1.274.257-1.322.62-.077.578.467.8.756.906l7.382 3.142 1.743.835s1.288-.34 2.24-.306c.908.025 2.057.273 2.057.273s1.875-2.215.735-5.23m25.33 0c-.05-.15-.2-.24-.347-.24h-13.243c-.793-.043-1.274.257-1.322.62-.077.578.467.8.756.906l7.38 3.142 1.744.835s1.288-.34 2.24-.306c.908.025 2.057.273 2.057.273s1.875-2.215.735-5.23" class="F"/><path d="M195.262 178.726c-1.145 0-2.074-.93-2.074-2.074v-3.32h1.258v3.16c0 .54.437.977.977.977h14.502c.54 0 .977-.438.977-.977v-3.16h1.258v3.32c0 1.145-.928 2.074-2.074 2.074z" class="B"/><path d="M204.222 186.1s-.813-2.253-2.006-3.056c-.454-.307-2.712-1.642-2.95-2.17s-1.164-2.067-1.194-2.56.398-1.902.788-2.026-.2-1.1.214-1.495 1.068-.468 1.473-.155.934-.22 1.285-.064.58.4.887.45.448-.35 1.09-.04c.586.284.524.464.8.627s.433-.077.866.376.8 1.28 1.134 2.002.545 1.864.41 3.048c-.067.585.47 2.787 1.38 4.206z" class="I"/><path d="M199.22 176.42c.357.84.242 1.404.304 2.04.048.498.25.598.283 1.13.4-.59-.013-.748.025-1.873.017-.52.024-1.07-.337-1.453-.123-.132-.33-.024-.275.155" class="J"/><path d="M195.26 178.728h4.313a1.49 1.49 0 0 1-.051-.268l-.042-.99h-4.055a.99.99 0 0 1-.98-.98v-3.158h-1.26v3.323c0 1.145.93 2.074 2.074 2.074" class="B"/><g class="I"><path d="M210.806 204.023s-1.797-3.32-2.34-5.558-5.137-14.862-5.137-14.862l2.838-2.222s9.524 14.512 10.3 19.418c.223 1.4-2.308 5.223-2.308 5.223z"/><path d="M208.037 216.988s1.54-10.253 2.77-12.966 5.66-3.224 5.66-3.224 1.16 8.38.214 16.548"/></g><path d="M216.997 215.766c-4.83-.516-7.146-.366-8.85-.22-2.115 7.192-3.55 16.117-3.097 18.728.805 4.633.712 7.852 3.87 6.614 0 0 9.1-2.99 8.076-25.12" class="B"/><g fill="#605c5a"><path d="M217.58 169.72h-29.81v2.372a1.24 1.24 0 0 0 1.238 1.238h27.333a1.24 1.24 0 0 0 1.238-1.238z"/><path d="M216.82 158.86H188.53c-.264 0-.477.214-.477.477v10.383h29.246v-10.383c0-.263-.213-.477-.477-.477"/></g><path d="M217.298 169.26h-29.246v.462h29.246z" fill="#474341"/><g class="C"><use xlink:href="#M"/><use xlink:href="#M" x="19.447"/></g><g class="I"><path d="M187.74 258.025c-.14.8-1.058 1.2-1.67.266-.507-.774-.48-2.102-.378-3.07.125-1.16 1.052-1.26 1.812-1.316m2.76-6.2l.515-4.04c-.306-.52-1.518-.97-1.518-.97s.086-3.1 3.405-3.273c5.86-.288 7.145 3.856 7.145 3.856s-1.308.453-1.365.85-.156 7.9-.156 7.9"/><path d="M192.623 266.32c-.993-.43-3.798-.256-4.388-1.49s-.857-4.053-1.032-4.845c-.347-1.576-.483-3.227-.67-4.828-.243-2.085-.592-5.892 1.615-7.292.634-.402.91-.526 1.627-.552l2.863-.128c1.48-.052 3.12-.125 4.488.545 1.825.896 2.498 3.678 2.734 5.536l1.352 10.642z"/></g><path d="M200.663 255.192c-.704.287-1.26.617-1.593-.066-.177-.362-.248-.837-.614-1.006s-.808.12-.958.492-.088.792-.024 1.188l.422 2.632c.138.86.262 1.8-.18 2.55-.222.38-.57.67-.94.905-1.208.77-2.674 1.016-4.104 1.1s-2.872.026-4.285.258c-.594.098-1.2.25-1.7.57-.823.518 10.187 5.575 12.548 4.898 1.637-.47 2.974-.737 3.284-3.236.067-.156.217-.258.357-.354 1.542-1.057 3.056-1.8 3.17-4.088.138-2.748-.902-6.607-2.155-9.114-.315-.63-.477-1.068-.972-1.57s-1.432-.847-2.135-.814-2.045-.22-2.158.476c-.08.497.858 1.54 1.096 1.984" class="G"/><path d="M198.55 252.222s-.045-.48.297-.803c.3-.284.81-.164 1.146.001.963.47 1.518 1.554 1.562 2.597.053 1.228-.76 2.333-1.812 1.865-.615-.274-.91-1.058-.808-1.723" class="I"/><path d="M190.328 247.283l3.127-.124s-.746-1.535-2.816-1.832" class="J"/><g class="C"><path d="M198.845 260.282s-3.534-2.994-12.492-.382c-.676.197-2.747 1.617.003 2.818z"/><path d="M186.397 263.542c.207 2.332 1.44 8.84 8.782 8.997 10.89.23 11.892-6.82 11.12-12.21h.002s.505-.248.42-.776c0 0-.14-.43-.624-.422 0 0-1.245-.01-2.76.226-4.12.388-11.883 1.33-16.563 3.197-.12-.02-.257.016-.417.165-.58.544.042.824.042.824"/></g><path d="M201.082 271.704s-8.38 1.155-10.036-10.454c0 0-1.41.206-3.375.92 0 0 .8 8.938 7.51 10.37 0 0 3.353 1.523 5.902-.835" class="O"/><use xlink:href="#L" x="316.973" class="L"/><path d="M376.553 252.47l18.053-55.507s12.074-1.15 25.407.937c9.723 1.52 19.097 6.992 19.097 6.992l-14.853 51.295s-11.52-3.104-19.996-4.103c-14.503-1.7-27.708.386-27.708.386" fill="#e59a67"/><g clip-path="url(#G)" opacity=".2"><path d="M411.528 216.487c-.1-3.11-2.633-5.645-5.744-5.744-3.436-.1-6.245 2.697-6.135 6.133.1 3.112 2.634 5.646 5.745 5.745 3.436.1 6.244-2.698 6.134-6.134zm5.28-2.432a10.14 10.14 0 0 1 .343 2.624c0 .843-.103 1.663-.297 2.446l-1.86-.207a9.61 9.61 0 0 1-1.082 2.665l1.476 1.18a10.17 10.17 0 0 1-1.613 2.098c-.597.597-1.25 1.103-1.94 1.52l-1.18-1.474c-.81.502-1.696.888-2.638 1.134l.21 1.876c-.837.223-1.717.343-2.624.343-.843 0-1.663-.103-2.446-.297l.208-1.867c-.952-.224-1.85-.588-2.67-1.07l-1.176 1.472a10.17 10.17 0 0 1-2.098-1.613c-.597-.597-1.103-1.25-1.52-1.94l1.463-1.17a9.62 9.62 0 0 1-1.136-2.646l-1.863.208c-.223-.837-.343-1.717-.343-2.624 0-.843.103-1.663.297-2.446l1.853.206a9.61 9.61 0 0 1 1.077-2.673l-1.465-1.17a10.14 10.14 0 0 1 1.613-2.098c.597-.597 1.25-1.103 1.94-1.52l1.165 1.456a9.65 9.65 0 0 1 2.649-1.142l-.206-1.85a10.14 10.14 0 0 1 2.624-.343c.843 0 1.663.103 2.446.297l-.205 1.84c.956.225 1.858.592 2.68 1.078l1.16-1.454a10.14 10.14 0 0 1 2.098 1.613c.597.597 1.103 1.25 1.52 1.94l-1.452 1.16a9.63 9.63 0 0 1 1.132 2.654z" fill="none" stroke="#c0621c" stroke-width=".539" stroke-miterlimit="10"/></g><g clip-path="url(#H)" opacity=".2"><path d="M421.988 234.577c-.07-2.167-1.834-3.932-4-4a4.14 4.14 0 0 0-4.273 4.272c.07 2.167 1.834 3.933 4.002 4.002a4.14 4.14 0 0 0 4.272-4.273m3.678-1.694c.156.583.24 1.196.24 1.828 0 .587-.07 1.158-.207 1.704l-1.295-.145c-.158.662-.415 1.286-.753 1.857l1.028.82a7.08 7.08 0 0 1-1.124 1.461c-.415.416-.87.768-1.35 1.06l-.82-1.027c-.563.35-1.18.618-1.837.8l.145 1.306c-.583.156-1.196.24-1.827.24a7.03 7.03 0 0 1-1.704-.207l.145-1.3a6.68 6.68 0 0 1-1.859-.745l-.82 1.025a7.11 7.11 0 0 1-1.461-1.123c-.415-.416-.768-.87-1.06-1.352l1.02-.814a6.69 6.69 0 0 1-.792-1.843l-1.297.144c-.156-.583-.24-1.195-.24-1.827 0-.588.07-1.158.207-1.704l1.3.144a6.71 6.71 0 0 1 .75-1.862l-1.02-.816a7.08 7.08 0 0 1 1.124-1.461 7.05 7.05 0 0 1 1.351-1.058l.81 1.014c.565-.352 1.186-.623 1.846-.796l-.144-1.288c.583-.156 1.196-.24 1.828-.24a7.08 7.08 0 0 1 1.703.207l-.142 1.282a6.68 6.68 0 0 1 1.867.751l.81-1.013c.522.303 1.014.677 1.46 1.124.415.415.768.87 1.06 1.35l-1.012.81a6.67 6.67 0 0 1 .788 1.848z" fill="#c0621c"/></g><g clip-path="url(#I)" opacity=".2"><path d="M404.258 237.318c-.082-2.577-2.182-4.677-4.76-4.76-2.846-.09-5.173 2.235-5.082 5.08.082 2.578 2.182 4.678 4.76 4.76 2.846.09 5.172-2.236 5.08-5.082m4.375-2.015a8.43 8.43 0 0 1 .284 2.174c0 .7-.085 1.377-.246 2.027l-1.54-.172c-.188.787-.494 1.53-.896 2.208l1.222.977a8.44 8.44 0 0 1-1.336 1.738 8.4 8.4 0 0 1-1.607 1.259l-.976-1.222a7.98 7.98 0 0 1-2.186.94l.173 1.554c-.694.185-1.422.284-2.174.284-.698 0-1.377-.085-2.026-.246l.172-1.546c-.788-.186-1.532-.488-2.21-.887l-.975 1.22c-.62-.36-1.206-.804-1.738-1.336a8.44 8.44 0 0 1-1.259-1.607l1.213-.97a7.94 7.94 0 0 1-.941-2.192l-1.544.172a8.42 8.42 0 0 1-.284-2.174c0-.698.085-1.377.246-2.026l1.535.17a7.94 7.94 0 0 1 .892-2.215l-1.213-.97c.36-.622.805-1.207 1.336-1.74.494-.494 1.034-.913 1.607-1.258l.965 1.206a7.95 7.95 0 0 1 2.195-.946l-.17-1.533c.694-.185 1.422-.284 2.174-.284a8.4 8.4 0 0 1 2.026.246l-.17 1.525c.793.187 1.54.49 2.22.893l.963-1.204a8.44 8.44 0 0 1 2.997 2.943l-1.203.962a7.93 7.93 0 0 1 .937 2.199z" fill="#c0621c"/></g><path d="M424.876 267.455s-7.694-1.552-3.904-9.703c4.4-9.463 3.904 9.703 3.904 9.703" class="G"/><path d="M422.567 264.01s-2.234-1.37-2.202-8.78c.001-.256-.907-2.444-.99-2.703-.314-.992.312-1.057 1.16-1.477.344-5.588 1.182-5.486 1.918-5.978.84-.562 7.263.763 11.388 2.807s5.527 8.147 3.783 11.89-10.234 7.466-15.058 4.24" class="P"/><path d="M441.137 258.773c.66-3.512-1.058-8.877-7.943-11.2 0 0-.612 2.12-1.052 4.196s-6.276 4.457-8.808 6.725a6.13 6.13 0 0 0-.355.344c-1.8 1.9-1.708 4.87-.06 6.9 1.418 1.747 4.55 4.64 10.168 2.734 5.01-1.7 7.232-5.36 8.05-9.7" class="G"/><path d="M424.546 250.96c1.082-1.173 1.288-3.545 1.197-5.81l-.074-1.146c-.19-2.325-.62-4.26-.62-4.26l7.942.197c-.298 2.868.196 7.646.196 7.646s-11.2 6.152-8.642 3.374" class="P"/><path d="M425.67 244.005c2.93 1.012 5.266 2.666 5.266 2.666l-5.192-1.52-.074-1.145" class="J"/><g class="E"><path d="M420.013 187.708l12.415 13.383s7.518-7.95 6.125-16.68c-.686-4.294-1.932-6.534-2.34-8.58-.383-1.913-1.36-28.445-.814-30.31s3.435-6.913 4.976-12.406c1.854-6.606 3.74-16.18 5.252-21.898s-.974-13.35-1.51-11.417c-4.588 16.508-16.608 35.5-18.572 43.795s-3.475 23.736-5.53 44.114"/><path d="M440.34 111.788s3.805-10.8 3.5-12.172c-.186-.838-1.032-3.66-1.224-4.06-.077-.16-2.803-2.327-.992-2.28 1.788.045 6.028 5.68 6.658 6.107 1.05.71 1.467 1.813 1.25 2.776-.372 1.66-1.487 2.93-2.31 4.09s-1.475 4.46-1.475 4.46z"/></g><path d="M439.212 92.788c.704 1.084 2.934 2.34 2.934 2.34.336.427.608.7.47.427-.234-.46.976-.693 1.57-.205 2.078 1.668 2.673 4.157 3.698 5.337 1.464 1.678.44 3.893.283 4.264.478.04 2.463-.95 3-1.34.478-.352 1.37-1.203 1.586-1.77.136-.4.89-2.39 1.422-3.248l-1.97-1.57-1.9 1.73-.527-.556c-.527-.556-.927-1.512-1.014-2.078-.04-.244-.254-.908-.498-1.542-.293-.8-.8-1.483-1.454-2.02l-.838-.687c-.628-.514-1.414-.796-2.226-.796h-3.385l-.52.006c-.532 0-1 .458-.908.983.033.21.12.453.297.724" class="F"/><path d="M410.523 94.45c.27.357 3.44 1.17 4.894 1.937 1.384.73 2.953 2.82 3.218 3.67s-.187 5-.387 6.74c-1.384 12-5.62 28.77-6.574 35.774-1.66 12.172-1.2 24.93 1.726 44.977l16.3 15.016s5.725-8.676 4.868-17.54c-.497-5.144-4.622-6.3-5.154-8.33s-8.273-34.674-8.273-34.674 2.68-6.666 3.474-14.16c.68-6.398-1.114-13.604-1-21.016.066-1.445.128-4.91.65-5.97.64-1.298 2.107-2.757 2.193-4.457.05-.986-.576-1.988-1.782-2.485s-1.963.158-2.4.138c-2.478-.12-3.01-1.88-7.272-2.263-1.314-.118-3.286.437-4.39 1.38-.427.364-.383.907-.114 1.264" class="E"/><path d="M410.293 92.9c.16-.302.454-.65.882-.976.78-.595 1.762-.858 2.743-.858h2.085c.847 0 1.678.22 2.4.646l1.354.876c.43.4 1.347.868 2.108.966s1.346.03 1.346.03l.147-2.517h2.878c-.088.868.595 3.2.732 3.6.195.576-.06 1.63-.205 2.205-.166.635-1.454 2.644-1.854 2.918-.117-.39-.722-2.752-2.927-3.123-1.532-.263-3.57-1.814-6.235-1.785-.77 0-1.56.946-1.093 1.15s-.85-.03-1.688-.332-2.293-1.102-2.712-1.336c-.293-.166-.254-.937.03-1.464" class="F"/><path d="M445.843 219.532l-1.365-6.065c-.525-1.77-3.122-13.006-5.583-12.81s-15.94 11.45-15.94 11.45l1.91 3.818 11.865-5.656s1.072 12.845 2.012 15.904z" class="P"/><path d="M442.417 219.06c-1.255-4.44-3.086-11.95-4-13.233-.415-.576-8.96 2.968-8.98 6.054l8.247 9.347z" class="J"/><path d="M434.92 239.708s4.096-.13 7.208-2.444c5.14-3.822 3.92-18.264 3.92-18.264s.25-.755-3.165-.563-6.153 1.163-6.153 1.163l.986 11.577z" class="B"/><path d="M443.47 230.967s.432-8.306-1.072-12.498c-1.487.03-2.786.366-2.786.366zm-8.4 7.963c-.14.94-.394 2.038-1.27 2.4-.243.103-.5.135-.773.164-2.68.297-2.37.428-5.065.385-1.116-.018-2.27-.075-3.268-.573-1.565-.782-2.426-2.47-3.182-4.047z" fill="#6d2b2b"/><path d="M445.705 112.56c-1.047 4.623-3.734 16.547-5.646 21.612s-4.563 10.52-4.66 11.348c-.082.694.618 5.8.85 7.464.025.038.04.076.038.114-.024.572 2.787 21.614 3.716 24.806.345 1.167 2 5.002 1.69 10.765-.322 5.764-4.907 12.636-6.157 13.886l-21.2.345s-3.656-8.645-4.013-13.992c-.738-11.266.393-35 .393-35l.045-.02c.036-1.652.17-5.64.662-9.238.638-4.677 7.143-42.88 7.143-42.88s3.224-.513 5.783.64c0 0-.073.407-.047.822-.24 4.604 1.845 19.26-.001 28.23s-2.583 10.896-2.583 10.896l2.016 9.794c.028.166.07.567.13.565.243-2.3.783-6.923 1.444-9.374.967-3.583 10.234-23.706 13.912-32.373 1.26-2.966 2.392-6.287 2.392-6.287s4.417.506 5.674 2.455c0 0-.634 1.293-1.57 5.424" class="N"/><path d="M414.628 206.275c.745 1.464 1.396 7.628 1.14 9.203-.275 1.688-1.77 2.596-2.443 6.353-.868 4.84 1.117 8.602 2.226 10.213 1.568 2.278 3.722 6.903 4.166 7.038 6.553 1.994 7.62 1.04 12.025.85 2.18-.096 3.576-.188 5.716-.66 2.37-.523 5.213-1.313 5.7-4.528.754-4.97.12-9.997-1.39-14.712-1.002-3.125-4.314-17.417-4.212-18.013.375-2.186-3.156-2.722-6.676-3.128-3.21-.37-6.527-.18-10.14.064-9.95.672-6.42 6.71-6.1 7.32" class="B"/><g class="P"><path d="M417.6 223.285s-9.34-16.1-13.775-16.1c-2.542 0-16.767 16.99-16.767 16.99l4.82 1.295 11.626-8.005 7.057 11.62z"/><path d="M381.417 230.09c-.014.297.007.597-.043.9-.108.64-.54 1.185-.69 1.818-.12.495-.058 1.013-.092 1.52-.04.576-.39 1.545.077 1.616l-.315 1.148c-.06.28-.044.817.278.773.478-.066 1.007-.706 1.315-1.004.408-.397 1.032-1.436 1.393-1.874.815-.99 1.77-1.404 1.77-1.404s-.228.408-.056.613c.267.318 1.145-.25 2.108-.386.497-.07 1.713-1.563 2.117-1.99s.787-3.067.9-3.612c.294-1.43 2.098-3.066 2.098-3.066l-4.14-2.045c-.1-.047-.552.55-.613.62-.253.288-.574.607-.934.756-1.276 1.246-3.17 1.854-4.263 3.3-.5.663-.86 1.455-.907 2.285l-.002.042"/></g><path d="M385.1 233.573c.65-.66 1.226-.77 1.8-1.074.45-.238.465-.467.954-.704-.705-.138-.698.302-1.77.7-.496.185-1.014.392-1.236.878-.075.167.106.32.253.2" class="J"/><path d="M425.814 240.314c-2.097-.11-8.83-.57-12.966-6.644-2.315-3.398-4.845-7.403-5.99-10.563.55-1.88 4.087-5.694 7.34-5.653.163.12 5.93 4.758 6.848 9.547z" class="B"/><path d="M438.22 204.608c-.097-.71-.13-1.412-.108-2.07.01-.518.054-1.024.12-1.5.086-.646.215-1.26.377-1.82.71-2.64 1.94-4.31 1.94-4.31-12.395-4.053-29.338.636-29.338.636l1.272 4.43.56 2.027.474 1.735.56 2.09c.474 1.81.884 3.47 1.1 4.602.81 4.042-.355 7.027-.355 7.027 12.157 7.76 6.693 22.29 6.693 22.29 2.985.992 7.64.582 7.64.582 10.714.054 13.538-3.556 13.538-3.556 1.584-4.754 1.12-11.06-.13-14.917-.7-2.09-3.6-11.727-4.354-17.245" class="Q"/><path d="M442.2 232.23c-3.772-2.263-8.408-2.002-11.627-1.388.15 2.575-.07 7.825-.07 7.825-.03-1.88-.845-6.437-1.056-7.584-1.68.393-2.766.825-2.766.825s2.534 12.452 2.534 17.923c-.01 4.707-4.968 7.936-4.968 7.936l8.393 10.846s6.623-1.875 8.484-9.84c.935-3.972 1.076-26.542 1.076-26.542" class="G"/><g clip-path="url(#J)" opacity=".35"><path d="M434.345 183.66c-.24-1.076-1.016-3.822-3.048-6.497l-7.166-26.9-.278 2.45 5.564 23.975c.482 1.84 3.912 2.957 4.928 6.97" fill="#5275a0"/></g><path d="M438.22 204.608a12.35 12.35 0 0 1-.108-2.07c-1.207-.28-12.104-2.555-24.595 1.196l.56 2.1s6.936-3.265 24.143-1.218m.388-5.386l-1.37-.366s-11.468-2.76-24.757 1.12l.56 2.027c1.13-.625 8.206-3.317 23.688-1.347.346.044 1.187.344 1.5.387.086-.646.215-1.26.377-1.82" fill="#ff5b00"/><path d="M442.37 256.16c-.043-.496-.798-.496-.798-.496-3.34-.237-6.78-.118-9.915.162l-2.835.118c-.043 0-.086.01-.13 0-4.17.194-11.34.615-12.126 1.25-1.12.894 2.975 1.972 2.975 1.972h.01c-.12 3.34.7 11.177 10.983 11.392.71.01 1.38-.01 2.015-.064h.01l.01-.01c9.98-.84 9.743-9.83 9.258-13.386 0 0 .604-.194.54-.938" class="C"/><path d="M442.37 256.16c-.043-.496-.798-.496-.798-.496-3.34-.237-6.78-.118-9.915.162l-1.283.054c6.047-.13 8.74 1.315 8.74 1.315.805 12.12-6.133 13.15-6.542 13.29 9.98-.84 9.743-9.83 9.258-13.386 0 0 .604-.194.54-.938" fill="#ffa515"/><g class="C"><path d="M388.576 93.105h-28.488l.256.88 4.8 16.308.907 3.07.526 1.8.907 3.07 1.748 5.955c1.5 5.088 8.703 5.088 10.202 0l8.887-30.203z"/><path d="M391.846 90.898H356.82c-.6 0-1.104.494-1.104 1.104s.494 1.104 1.104 1.104h35.026c.6 0 1.104-.494 1.104-1.104s-.494-1.104-1.104-1.104"/></g><path d="M382.088 115.164h-15.513l.907 3.07h13.7zm1.432-4.87h-18.38l.908 3.07h16.564z" fill="#ffc969"/><path d="M388.576 93.105h-28.488l.256.88h27.976z" fill="#ff8f1f"/><g class="C"><path d="M69.283 93.105H40.795l.256.88 4.8 16.308.907 3.07.526 1.8.907 3.07 1.748 5.955c1.5 5.088 8.703 5.088 10.202 0l8.887-30.203z"/><path d="M72.553 90.898H37.527c-.6 0-1.104.494-1.104 1.104s.494 1.104 1.104 1.104h35.026c.6 0 1.104-.494 1.104-1.104s-.494-1.104-1.104-1.104"/></g><path d="M62.795 115.164H47.282l.907 3.07h13.7zm1.433-4.87H45.85l.908 3.07H63.32z" fill="#ffc969"/><path d="M69.283 93.105H40.795l.256.88h27.976z" fill="#ff8f1f"/><path d="M216.794 354.55c-12.6-3.04-25.245 4.7-28.284 17.3-3.035 12.57 4.7 25.24 17.28 28.28s25.245-4.7 28.28-17.28c3.04-12.6-4.686-25.26-17.275-28.3m31.916 25.483l-2.895 12-5.022-1.212c-1.844 4.053-4.455 7.604-7.63 10.497l2.685 4.396-10.525 6.43-2.685-4.394c-4.023 1.508-8.375 2.213-12.825 2.006l-1.2 5.014-12-2.895 1.2-5.014a32.26 32.26 0 0 1-10.499-7.636l-4.4 2.683-6.432-10.525 4.394-2.684a32.22 32.22 0 0 1-2-12.825l-5.02-1.212 2.896-12 5.02 1.212c1.846-4.053 4.458-7.605 7.633-10.496l-2.686-4.396 10.525-6.43 2.687 4.397a32.26 32.26 0 0 1 12.82-1.997l1.214-5.026 12 2.895-1.213 5.026a32.26 32.26 0 0 1 10.495 7.628l4.398-2.688 6.43 10.526L241.68 366a32.25 32.25 0 0 1 2.001 12.821zm-33.903-17.256c-8.044-1.942-16.13 3-18.074 11.055a14.98 14.98 0 0 0 11.041 18.071 14.98 14.98 0 0 0 18.072-11.042c1.942-8.045-2.995-16.142-11.04-18.084" fill="#f9e8de"/><path d="M403.798 315c-8.642-2.087-17.33 3.234-19.418 11.877-2.084 8.63 3.22 17.328 11.863 19.415s17.33-3.234 19.414-11.863c2.087-8.643-3.217-17.342-11.86-19.43m21.9 17.495l-1.988 8.232-3.447-.833a22.14 22.14 0 0 1-5.239 7.207l1.844 3.017-7.226 4.416-1.843-3.017a22.14 22.14 0 0 1-8.805 1.377l-.83 3.443-8.232-1.988.83-3.442c-2.783-1.267-5.222-3.062-7.208-5.243l-3.015 1.843-4.415-7.226 3.016-1.843a22.16 22.16 0 0 1-1.373-8.805l-3.445-.832 1.987-8.23 3.446.832a22.15 22.15 0 0 1 5.24-7.206l-1.844-3.018 7.226-4.415 1.845 3.02a22.15 22.15 0 0 1 8.8-1.372l.833-3.45 8.232 1.988-.833 3.45c2.782 1.266 5.22 3.058 7.205 5.237l3.02-1.845 4.415 7.226-3.02 1.844c1.033 2.76 1.516 5.748 1.374 8.802zm-23.272-11.836c-5.523-1.333-11.075 2.067-12.408 7.6-1.332 5.514 2.057 11.073 7.58 12.407s11.075-2.067 12.406-7.58c1.334-5.523-2.055-11.08-7.578-12.415" class="S"/><use xlink:href="#L" x="139.042" class="L"/><path d="M259.55 264.687c1.128-1.133 2.18-2.393 2.734-3.893s.533-3.284-.377-4.597c-.485-.7-1.336-1.26-2.155-1.03-.22.06-.42.175-.613.296-2.026 1.27-3.437 3.478-3.738 5.85" class="G"/><path d="M234.825 104.415L233 99.24c-.4-1.038-3.48-.084-3.658.587s1.205 5.61 1.205 5.61" class="D"/><path d="M228.425 99.728c-.373-1.1-1.064-2.668-.918-3.22s4.04-2.207 4.914-2.738c.648-.394 2.075-.937 2.815-1.07 2.59-.463 4.575-.012 4.773.4.824 1.678-4.306 2.795-6.492 7.53 0 0-.388.044-.792-.357-.62-.615-1.485-.864-2.2-.443-.403.242-.887.757-1.077 1.235 0 0-.66-.226-1.033-1.327" class="F"/><path d="M269.086 102.7l-.176-5.487c-.075-1.114-3.3-1.137-3.663-.552s-.557 5.71-.557 5.71" class="D"/><path d="M264.413 96.3c-.02-1.162-.203-2.865.105-3.348s4.52-.874 5.513-1.115c.737-.18 2.262-.262 3.007-.163 2.608.345 4.363 1.378 4.43 1.82.275 1.85-4.952 1.354-8.474 5.202 0 0-.382-.076-.646-.58-.404-.775-1.152-1.275-1.952-1.088a2.9 2.9 0 0 0-1.401.849s-.56-.416-.58-1.578" class="F"/><g class="D"><path d="M304.486 273.397c-.015.476-.642.293-.828-.085-.025-.05-.064-.17-.11-.33l.192 1.563c-.014.452-.6.327-.808-.01l.056.65c-.008.58-.64.386-.832-.077-.043-.104-.114-.4-.198-.785l.036.436c-.015.476-.568.396-.754.018-.06-.124-.106-.355-.233-.905l-.38-1.44c-.09-.43-.766-2.428-1.796-2.56-1.58-.204-.373 2.415-1.417 3.11-.328.218-.866-1.845-1-3.027s-.18-1.775-.125-2.48c.04-.705.343-1.724.254-2.142-.143-.673-1.053-2.004-1.053-2.004l3.847-1.216s1.105 2.078 1.62 2.54c1.288 1.09 2.146 2.4 2.72 4.003.36 1 .543 2.08.7 3.136l.1 1.606"/><path d="M264.91 243.672s12.442-.918 19.818 6.088c6.01 7.1 11.902 15.018 12.355 15.76 1.026-.493 3.217-1.723 3.217-1.723s-8.43-15.33-11.503-18.737-9.015-8.9-20.782-10.913c-4.996 6.793-3.105 9.524-3.105 9.524"/></g><path d="M273.32 143.932c.72 9.4-2.532 38.866-2.848 41.4-.305 2.536-2.1 2.86-3.462 3.275-6.798 2.045-14.86-8.5-12.712-17.968.03-.152.072-.315.114-.48 1.277-5.484 8.49-23.105 7.983-28.2-3.95-10.662.532-32.754 1.883-42.045.166-.005.33.002.484.008 3.394.104 5.31.584 5.31.584l3.25 43.424" class="C"/><path d="M264.7 142.08c.246 3.47-3.263 31.063-4.13 30.687-.29-.126-.468-.414-.626-.686-.726-1.248-1.422-2.515-2.033-3.823a34.93 34.93 0 0 1-1.61-4.164c2.544-7.506 6.482-18.322 6.103-22.133-2.34-6.32-1.72-16.657-.543-25.963-.454 12.244 2.643 23.312 2.84 26.082" fill="#e89c13"/><path d="M269.38 195.366s-2.583-.638-7.727-.504c-6.532.172-14.816 3.478-14.816 3.478-8.333-9.02-3.753-19.58-4.04-23.052-.276-3.318-.254-18.784-.902-28.174-.052-.747-.274-1.478-.705-2.1-6.183-8.8-8.938-29.543-11.333-40.75l-.09-.395c3.467-1.284 5.606-1.564 5.606-1.564l.327.927c2.517 7.6 14.142 29.434 17.035 37.963 2.624 7.736 9.405 31.222 9.53 31.2l8.644-1.48c.02 14.96-1.528 24.44-1.528 24.44" class="C"/><path d="M246.2 254.76c.213-.942 1.012-2.278 1.964-3.614l3.837-4.86c1.266-2.43-.567-4.698-.567-4.698l4.465-4.07 1.367-1.255.91.91 2.794 2.784.135 3.237s-.904.783-1.258 1.907l-.122.374-.212.76c.313.152 1.103.466 2.5 1.246 1.488.82 1.883 2.642 1.5 4.373-.304 1.367-2.45 8.23-2.45 8.23-1.943 8.505-12.97 3.28-14.447 1.65-1.488-1.64-1.002-4.374-.415-6.976" class="D"/><path d="M263.65 243.812s6.29-.91 12.055 1.643c3.216-3.782 4.52-9.86 4.52-9.86s-7.776-4.942-13.46-5.417c-1.22 8.284-3.115 13.633-3.115 13.633" class="B"/><path d="M264.745 242.624s3.503-4.432 4.654-11.967c3.92.763 10.05 4.153 10.826 4.94-1.726-.558-9.09-3.297-10.1-1.03-1.88 4.226-5.38 8.057-5.38 8.057" fill="#682a2a"/><path d="M270.47 185.33s-9.95-2.652-24.63-.817l-4.04.594c2.195 7.34 1.495 21.15 1.707 27.143l.308 16.93c.042 2.874.2 5.738.573 7.552.19.87.435 1.495.732 1.76 1.124.933 2.312 1.845 3.585 2.694 1.58-.19 4.486-.912 6.48-3.638.817-1.326 1.4-3.055 1.454-5.304.03-.976-.043-2.047-.244-3.235l9.662 2.588s.043.764 0 1.973c-.084 2.546-.562 7.064-2.725 10.32.89.032 1.57.128 2.545-.233.584-.604 1.146-2.386 1.496-3.596.573-1.994 1.06-4.18 1.474-6.48.17-.923.318-1.867.467-2.822 2.874-19.42 1.156-45.43 1.156-45.43" class="C"/><path d="M256.395 229.013l9.66 2.586s.46 7.5-2.72 12.288c-.62.055-1.813-.155-2.667-.248.63-1.29.135-2.405-.888-2.715-2.895-.88-7.712 1.97-7.712 1.97-.906-.27-2.605-1.23-3.36-1.708.374-.08 9.48-1.458 7.69-12.173" class="B"/><path d="M320.637 274.35l3.695.892-2.13 8.82-3.694-.892c-1.357 2.98-3.277 5.594-5.613 7.722l1.975 3.233-7.743 4.73-1.974-3.232a23.73 23.73 0 0 1-9.436 1.476l-.9 3.688-8.82-2.13.89-3.688c-2.983-1.358-5.596-3.28-7.724-5.617l-3.23 1.974-4.732-7.743 3.232-1.975c-1.107-2.96-1.625-6.162-1.47-9.434l-3.692-.89 2.13-8.82 3.692.89c1.358-2.98 3.28-5.594 5.615-7.72l-1.976-3.233 7.743-4.732 1.977 3.235a23.74 23.74 0 0 1 9.431-1.469l.892-3.698 8.82 2.13-.893 3.698c2.98 1.356 5.593 3.277 7.72 5.61l3.236-1.977 4.73 7.743-3.236 1.976c1.108 2.96 1.626 6.16 1.473 9.432" fill="#f9c9b7"/><path d="M242.778 231.444s0-12.596 5.928-12.993c4.24-.285 4.85 9.48 4.85 9.48z" class="B"/><g clip-path="url(#K)" opacity=".5"><path d="M261.816 226.623c.17-1.41 0-1.676 0-1.676-11.7-3.362-16.706 1.337-16.706 1.337l9.896 5.738 1.634.223 9.42 1.325 1.548.213s.573-.053 1.24-.202c.17-.923.32-1.867.467-2.82-2.62-1.856-7.5-4.137-7.5-4.137" fill="#f29b75"/></g><g class="D"><path d="M255.423 225.342s7.78 1.923 14.227 6.58c1.894 1.368 3.837 3.86 4.248 6.16 1.23 6.875-.962 19.302-2.018 23.853-3.084-.2-3.708-.85-3.708-.85s-.938-13.402-.818-21.3c0 0-7.547-4.736-15.583-4.265"/><path d="M268.186 260.693s.004 2.307-.727 3.602-2.68 3.112-2.152 5.008c.196.706 1.397 2.34 3.383 3.154 2.954 1.21 4.17.866 4.374.21s-1.53-1.998-1.424-3.26.75-1.698 1.28-2.83c.795-1.7-1.004-3.735-.998-4.822.005-.774-3.735-1.064-3.735-1.064"/></g><path d="M253.317 235.985l5.523.45s1.797-3.852 2.516-9.824c0 0-5.717-4.11-14.415-1.317-2.494.8-4.08 3.148-4.155 5.766-.176 6.077 2.874 7.864 2.874 7.864s5.037 1.6 7.657-2.94" class="B"/><path d="M257.03 262.744c2.457.766 3.863.66 2.418 4.234-.843 2.087-11.02-1.023-12.1-1.658-3.956-2.328-4.378-6.248-3.407-10.204 0 0 2.417-8.375 8.753-8.687 0 0-.04 1.67-.65 3.855 0 0-2.715.807-3.175 2.34-.274.91.6 1.695 1.16 1.708.763.018 1.352-.94 1.352-.94s.028 1.683-.294 3.184c-.122.564-.46 1.023-.904 1.402.104.217 1.36 3.056 6.846 4.766" class="G"/><path d="M255.675 246.103s1.296-1.022 4.05-.628l-.213.76s-2.42-.385-3.837-.132" fill="#f2a49c"/><path d="M242.764 193.248s18.65-2.73 28.145-1.267v-5.33s-13.34-2.365-29.1 1.348c0 0-.18 3.447.965 5.248" class="Q"/><g class="K"><use xlink:href="#N"/><use xlink:href="#N" x="1.051" y="0.1"/><use xlink:href="#N" x="2.155" y="0.1"/><use xlink:href="#N" x="3.149" y="0.187"/></g><path d="M266.485 186.96s-.298-2.808.166-3.094 3.85-.055 4.147.243.11 2.984.11 2.984z" class="Q"/><path d="M243.45 199.633l-.097-1.68c-.03-.488.344-.906.832-.935l1.658-.096-1.028-17.743c-.012-.217.153-.403.37-.416l1.23-.07c.217-.012.402.153.415.37l1.028 17.744 1.775-.103c.488-.03.906.344.934.832l.098 1.68c.028.488-.345.906-.833.935l-5.447.315c-.488.03-.907-.344-.935-.832" class="K"/><g class="T"><path d="M245.844 196.924l-1.655.093c-.327.012-.606.2-.746.5.035 0 .08-.012.116-.012l2.308-.14zm4.823 2.296l-.105-1.7a.87.87 0 0 0-.932-.828l-1.77.105-1.025-17.745c-.024-.22-.198-.384-.42-.373l-1.235.07a.39.39 0 0 0-.36.42v.046l.98-.058a.39.39 0 0 1 .408.361l1.037 17.745 1.77-.093a.87.87 0 0 1 .932.827l.105 1.678c.01.163-.024.315-.094.443.42-.082.734-.478.7-.9m3.134-20.448l-1.208.042-.572 1.07.646 1.027 1.208-.043.56-1.068zm.222 2.777l.523 14.863c.7.262 1.192.915 1.22 1.694.024.684-.318 1.295-.852 1.646l.042-1.842-1.037-.585-1.14.436-.217 1.763a1.87 1.87 0 0 1-.569-1.285c-.028-.78.426-1.466 1.093-1.775l-.523-14.863c-.687-.26-1.187-.915-1.215-1.694-.037-1.047.778-1.922 1.815-1.958a1.89 1.89 0 0 1 1.958 1.825 1.88 1.88 0 0 1-1.097 1.775"/><path d="M253.87 180.862l.564-1.07-.634-1.022-1.21.046-.117.212-.447.858.646 1.022 1.046-.035zm.435.517c-.012.012-.036.035-.047.035a1.52 1.52 0 0 1-.235.129v.06l.528 14.805c.682.27 1.187.916 1.21 1.704a1.9 1.9 0 0 1-.846 1.645v-.012l.035-1.833-1.034-.588-1.14.435-.01.118-.2 1.645c-.083-.07-.153-.165-.224-.247-.21-.294-.328-.646-.352-1.034-.012-.53.2-1.022.54-1.387a1.93 1.93 0 0 1 .281-.235c.083-.058.177-.105.27-.152l-.517-14.864c-.693-.258-1.187-.916-1.222-1.692a1.87 1.87 0 0 1 .599-1.445c.317-.305.752-.505 1.222-.517a1.9 1.9 0 0 1 1.962 1.821c.024.67-.305 1.27-.822 1.6"/></g><path d="M253.8 178.77l-1.2.047-.118.21-.152.012-.576 1.058.646 1.034 1.2-.047.118-.212.152-.012.564-1.07zm.458 2.644c-.07.047-.153.094-.235.13v.06c-.082.07-.176.117-.282.164l.53 14.864c.693.258 1.187.916 1.222 1.692.023.564-.2 1.07-.576 1.42l.035-1.833-1.034-.587-1.14.435-.012.117-.27.106-.153 1.292c-.212-.293-.33-.646-.353-1.034-.01-.528.2-1.022.54-1.386.094-.07.188-.118.282-.165v-.07c.082-.06.176-.106.27-.153l-.517-14.863c-.693-.26-1.186-.917-1.222-1.692-.023-.564.212-1.08.6-1.446a1.85 1.85 0 0 1 .939-.293c1.046-.035 1.927.775 1.963 1.82.01.54-.188 1.034-.54 1.386-.012.012-.035.036-.047.036" class="K"/><path d="M245.4 192.552l2.52-.3-.235-4.95s-1.56.136-2.57.42zm6.977-.812s.93-.15 2.52-.17l-.235-5.088s-1.65.066-2.635.32z" class="Q"/><path d="M266.048 186.115s-.01-.085-.042-.202c-.032-.17-.106-.403-.213-.51-.18-.18-4.57-.36-4.932-.02-.37.35-.085 6.502 0 6.735.075.234 4.954.244 5.113 0 .063-.084.085-.2.085-.286.01-.138-.022-.254-.022-.254l-4.136-.054c-.053-.52-.128-5.558-.128-5.558.86-.053 4.275.15 4.275.15" class="K"/><path d="M266.048 186.115s-.01-.085-.042-.202c-.478-.063-4.17-.212-4.34-.116-.17.106-.063 5.6 0 5.94.483.14 3.617.138 4.392.095.01-.138-.022-.254-.022-.254l-4.136-.054c-.053-.52-.128-5.558-.128-5.558.86-.053 4.275.15 4.275.15" class="T"/><path d="M264.764 188.396c-.02-.074-.042-.148-.074-.212-.18-.393-3.723-.287-4.275.16v.53l4.21.393c.19-.138.233-.52.138-.87" class="K"/><path d="M264.764 188.396c-.02-.074-.042-.148-.074-.212-.18-.393-3.723-.287-4.275.16v.14c.265-.085.923-.205 1.962-.28.923-.074 1.846.074 2.387.19" class="T"/><g class="C"><path d="M246.454 269.297c-8.188-4.447-4.5-12.26-2.872-14.96v-.001s-.277-1.2.938-.775c0 0 5.272 5.924 16.95 9.28.785.566-4.048 12.4-15.016 6.454"/><path d="M247.747 257.298s7.516.38 12.283 3.016.76 3.965.76 3.965l-5.886-.612z"/></g><path d="M243.738 267.307s6.64 3.846 11.937-5.766c0 0 1.486 1.027 2.812 1.36 0 0-1.75 7.41-10.235 7.24 0 0-3.19.002-4.514-2.833" class="O"/><g fill="#f9c9b7"><use xlink:href="#O"/><use xlink:href="#P"/><use xlink:href="#O" x="-182.723" y="-76.224"/><use xlink:href="#P" x="86.139" y="-126.07"/><path d="M124.837 394.74h-1.96v1.96c0 .316-.257.573-.574.573s-.573-.257-.573-.573v-1.96h-1.96c-.317 0-.574-.257-.574-.573s.257-.573.574-.573h1.96v-1.96c0-.316.256-.573.573-.573s.574.257.574.573v1.96h1.96a.57.57 0 0 1 .573.573c0 .316-.256.573-.573.573"/><use xlink:href="#Q"/><use xlink:href="#Q" x="136.474" y="-130.413"/><use xlink:href="#Q" x="-95.416" y="-79.343"/><use xlink:href="#Q" x="45.492" y="81.33"/><use xlink:href="#Q" x="219.78" y="-66.994"/></g><path d="M326.932 326.042c-2.558-2.676-9.504-8.648-12.533-10.65-3.307-2.184-9.91-6.165-9.91-6.165l-.235.364s-1.08-.567-1.66-1.937c-.568-1.37-1.905-2.794-1.905-2.794l-.696 3.083 1.616 2.343 3.95 2.954 17.68 14.835c1.253-.653 2.484-1.328 3.693-2.034" class="R"/><path d="M305.557 311.286s-2.294-1.368-2.972-2.27-.674-1.266-.982-2.527-1.592-2.352-2.034-2.723-.648-.008-.496.764.748 1.774.743 2.1-.4.32-1.11-.015-1.876-1.24-2.275-1.773-1.19-2.002-1.675-2.17-.73-.05-.496.724.375 1.377.85 2.316c.255.505-.23 1.08.536 2.883.155.366.7 1.297.9 1.57.02.107.033.223.07.318.27.693 2.66 1.09 3.303 1.462s3.023 3.06 3.023 3.06z" class="D"/><path d="M361.962 342.415l-14.912-.736-18.883-2.208c-5.427 9.422 6.58 14.653 8.878 14.894l6.62.995s4.858-.394 10.067-3.075c2.823-1.444 6.008-5.132 8.23-9.87" class="B"/><path d="M335.625 356.46l.728-3.545c.188-1.052 1.11-1.824 2.18-1.822 5.82.01 5.63 3.657 5.63 3.657-1.096 1.893-1.53 7.35-1.53 7.35" class="D"/><path d="M356.688 331.582c-1.083-2.637-3.403-7.748-6.478-11.26-4.137-4.75-21.076-16.764-21.076-16.764l-.186.186c-.71-.613-1.423-1.28-1.62-1.565-.404-.635-.897-3-1.597-3.24-.088-.033-.208-.044-.328-.066-.263-.175-.624-.35-1.018-.383-.777-.077-1.85.24-2.145.34-.252-.197-.503-.48-1.018-.71-.963-.438-1.882-1.03-2.67-1.237-.777-.208-.897.044-.7.515.186.492 1.696 1.214 2.243 1.597.536.372 1.5 1.5 1.86 2.2.36.7.383 1.083.065 1.105-.328.01-1.357-.536-2.134-.656s-1.138.098-.733.525c.383.427 1.532 1.674 2.79 1.926 1.28.25 1.64.24 2.57.875.46.307 1.04 1.007 1.5 1.63l-.295.295 15.714 19.84c.153.186.295.34.448.526 3.918 6.937 5.428 6.718 5.428 6.718l6.96-.47c.81-.624 1.62-1.258 2.418-1.926" class="R"/><path d="M325.416 307.326s-1.462-2.236-2.4-2.876-1.293-.62-2.566-.876-2.416-1.493-2.805-1.92-.035-.648.743-.528 1.804.674 2.128.656.302-.412-.06-1.108-1.318-1.823-1.866-2.2-2.05-1.107-2.24-1.584-.08-.727.703-.526 1.392.32 2.35.754c.515.234 1.07-.276 2.903.416a14.15 14.15 0 0 1 1.605.824c.11.017.225.024.32.058.704.242 1.198 2.61 1.598 3.24s3.182 2.894 3.182 2.894z" class="D"/><path d="M357.66 339.002c2.14 3.283-4.645 7.158-4.645 7.158l-2.635-1.093-4.275 1.983-1.42-3.87s-.218-1.003.164-1.82c-.095-2.216-4.1-14.41-4.282-14.588-8.267-8.638-15.706-19.83-15.706-19.83s.382-.978 1.468-1.976c.952-.876 1.933-1.358 1.933-1.358s12.428 10.097 18.067 16.032c5.25 5.525 9.193 16.078 11.332 19.36" class="B"/><path d="M328.488 359.216c.832-1.61 2.046-3.098 3.7-3.835 1.75-.78 3.826-.62 5.578.152 3.085 1.362 5.207 4.663 5.165 8.035s-2.245 6.62-5.362 7.904c-2.885 1.2-7.415.655-9.603-1.803-2.227-2.502-.82-7.86.522-10.453" class="D"/><path d="M342.928 363.568c.05-3.374-2.078-6.675-5.158-8.034-1.574-.693-3.408-.89-5.04-.36 1.06.1 2.405.236 3.227.603 3.08 1.36 5.36 4.66 5.31 8.036-.036 3.37-2.985 6.652-6.11 7.943-.322.13-.657.244-1.008.324 1.226.012 2.414-.197 3.413-.61 3.12-1.282 5.327-4.53 5.363-7.902" fill="#f2a49c"/><path d="M327.25 366.16c2.22.225 4.196 1.752 5.23 3.73.567-2.134 3.6-3.11 5.306-1.71-.175-2.12 1.603-4.207 3.725-4.372-.696-.895-.015-2.392 1.092-2.638s2.27.588 2.607 1.67-.03 2.294-.724 3.2c2.29 1.542 3.195 4.834 2.016 7.33s-4.296 3.89-6.942 3.1c-.747 2.192-2.952 3.802-5.267 3.845s-4.58-1.485-5.406-3.647c.07.185-1.63.11-1.762.1-.693-.047-1.388-.2-2.01-.5-1.172-.603-.037-10.31 2.134-10.09" class="M"/><path d="M342.8 363.282c.185 1.12-.46 2.7-1.444 2.926s-1.907-.176-2.092-1.297.433-3.023 1.418-3.25 1.933.5 2.118 1.62" class="D"/><g class="B"><path d="M327.868 348.057l-10.614-17.845 5.478-5.664 5.145 5.162 2.482 2.943c1.552 1.897 2.185 4.383 1.72 6.79-.31 1.606-.645 3.315-1.057 4.13-2.05 4.058-3.155 4.486-3.155 4.486"/><path d="M317.254 330.212s-10.988-10.86-15.64-16.37l2.7-3.556s15.144 8.818 20.945 17.43c4.165 6.18-7.996 2.496-7.996 2.496m36.284 11.808s3.42-7.523 7.022-6.566c2.954.786 1.393 6.96 1.393 6.96l-4.008 3.618z"/></g><g class="C"><path d="M328.984 347.9c-.287-2.97-.38-9.323 2.62-15.967l1.126 8.062s-1.525 6.576 0 12.612c0 0-.595-.14-1.356-.582-1.5-.872-2.2-2.05-2.4-4.125m12.63-7.258s.55 12.846 7.783 13.445c0 0 1.654.03 2.697-1.026 0 0-6.256-1.843-7.3-12.118zm-2.562 29.186s-2.416-4.594-12.82-5.638c-.786-.078-3.534.528-1.18 2.93z"/><path d="M324.75 367.994c-.764 2.5-2.212 9.79 5.352 13.033 11.218 4.808 15.22-2.098 16.677-8.024.001.001.63-.045.763-.63 0 0 .037-.505-.47-.7 0 0-1.29-.535-2.963-.924-4.444-1.325-12.906-3.603-18.553-3.627-.116-.07-.274-.09-.503-.003-.83.322-.302.874-.302.874"/></g><path d="M336.585 382.636s-9.194-2.315-6.043-15.074c0 0-1.553-.377-3.893-.46 0 0-2.92 9.623 3.452 13.925 0 0 2.846 3 6.484 1.61" class="O"/></g></svg>