<svg xmlns="http://www.w3.org/2000/svg" width="230" height="256" viewBox="0 0 229.222 256">
  <path d="M77.493 255.77c-26.453-2.917-46.064-14.55-59.545-35.326C7.525 204.382 1.715 183.602.364 157.552-.072 149.144-.14 3.688.29 3.005 1.06 1.786 13.977 0 22.017 0c13.6 0 23.307 2.752 32.23 9.138 9.782 7 16.92 17.78 20.5 30.958 2.248 8.278 2.104 4.614 2.368 60.33l1.058 55.49c1.7 9.09 2.902 12.874 6.002 18.876 4.214 8.157 9.97 13.455 17.793 16.37 4.745 1.77 8.67 2.412 14.72 2.412 9.553 0 16.45-2.1 23.684-7.206 3.844-2.714 9.576-8.966 11.308-12.333.303-.59.4-23.304.407-85.94L152.4 2.76c.174-.108 1.935-.478 3.913-.823 4.598-.802 20.19-.916 24.842-.18 20.382 3.22 35.256 14.008 42.808 31.052 2.543 5.74 4.207 12.06 4.893 18.586.22 2.09.356 40.282.36 100.757l.007 97.4-1.728.223c-7.028.91-17.345 1.14-24.85.556-18.893-1.47-30.294-6.732-37.8-17.45-2.052-2.93-4.676-7.885-5.882-11.11-.41-1.094-.856-1.98-.99-1.97s-1.393 1.51-2.794 3.332c-11.334 14.736-27.987 25.477-46.938 30.274-6.62 1.676-12.552 2.425-20.376 2.574-4.002.076-8.67-.015-10.37-.203z" fill="#9b59b6"/>
</svg>
