<svg xmlns="http://www.w3.org/2000/svg" xmlns:xlink="http://www.w3.org/1999/xlink" width="638" height="273" viewBox="0 0 168.597 72.028"><style><![CDATA[.B{fill:#4096dd}.C{fill:#4ca4e0}]]></style><defs><clipPath id="A"><path d="M7.65 222.175h477.914V18H7.65z"/></clipPath><path id="B" d="M449.254 114.167c0-4.515-3.66-8.175-8.175-8.175a8.18 8.18 0 0 0-8.175 8.175 8.18 8.18 0 0 0 8.175 8.175c4.515 0 8.175-3.66 8.175-8.175"/></defs><g clip-path="url(#A)" opacity=".74" transform="matrix(.352778 0 0 -.352778 -2.699267 78.37806)"><path d="M314.273 95.863a14.14 14.14 0 0 0-14.136-14.136 14.14 14.14 0 0 0-14.136 14.136A14.14 14.14 0 0 0 300.137 110a14.14 14.14 0 0 0 14.136-14.137" class="B"/><path d="M301.73 100.763a7.07 7.07 0 0 0-7.068-7.068 7.07 7.07 0 0 0-7.069 7.068 7.07 7.07 0 0 0 7.069 7.068 7.07 7.07 0 0 0 7.068-7.068" class="C"/><path d="M392.503 63.188c0-4.515-3.66-8.175-8.175-8.175s-8.174 3.66-8.174 8.175 3.66 8.175 8.174 8.175 8.175-3.66 8.175-8.175" class="B"/><path d="M385.25 66.022a4.09 4.09 0 0 0-4.087-4.088 4.09 4.09 0 0 0-4.088 4.088 4.09 4.09 0 0 0 4.088 4.087 4.09 4.09 0 0 0 4.087-4.087" class="C"/><use xlink:href="#B" class="B"/><path d="M442 117a4.09 4.09 0 0 0-4.088-4.087 4.09 4.09 0 0 0-4.087 4.087 4.09 4.09 0 0 0 4.087 4.087A4.09 4.09 0 0 0 442 117" class="C"/><use xlink:href="#B" x="-279.914" y="-74.913" class="B"/><path d="M162.087 42.087A4.09 4.09 0 0 0 158 38a4.09 4.09 0 0 0-4.088 4.087A4.09 4.09 0 0 0 158 46.175a4.09 4.09 0 0 0 4.087-4.088" class="C"/><path d="M480.128 48.092c0-9.415-7.633-17.048-17.048-17.048s-17.048 7.633-17.048 17.048 7.633 17.048 17.048 17.048 17.048-7.633 17.048-17.048" class="B"/><path d="M465 54c0-4.708-3.816-8.523-8.523-8.523s-8.525 3.815-8.525 8.523 3.817 8.523 8.525 8.523S465 58.708 465 54" class="C"/><path d="M239.34 95.08c0-4.515-3.66-8.174-8.175-8.174s-8.175 3.66-8.175 8.174 3.66 8.175 8.175 8.175 8.175-3.66 8.175-8.175" class="B"/><path d="M232.087 97.913A4.09 4.09 0 0 0 228 93.825a4.09 4.09 0 0 0-4.088 4.088A4.09 4.09 0 0 0 228 102a4.09 4.09 0 0 0 4.087-4.087" class="C"/><use xlink:href="#B" x="-262.824" y="13" class="B"/><path d="M179.175 130a4.09 4.09 0 0 0-4.087-4.087A4.09 4.09 0 0 0 171 130a4.09 4.09 0 0 0 4.088 4.087 4.09 4.09 0 0 0 4.087-4.087" class="C"/><path d="M426.175 26.175c0-4.515-3.66-8.175-8.175-8.175a8.18 8.18 0 0 0-8.175 8.175A8.18 8.18 0 0 0 418 34.35c4.515 0 8.175-3.66 8.175-8.175" class="B"/><path d="M418.92 29.008a4.09 4.09 0 0 0-4.088-4.087 4.09 4.09 0 0 0-4.087 4.087 4.09 4.09 0 0 0 4.087 4.087 4.09 4.09 0 0 0 4.088-4.087" class="C"/><path d="M41 205.5c0-9.21-7.465-16.675-16.675-16.675A16.68 16.68 0 0 0 7.65 205.5a16.68 16.68 0 0 0 16.675 16.675c9.2 0 16.675-7.466 16.675-16.675" class="B"/><path d="M26.203 211.28a8.34 8.34 0 0 0-8.337-8.338 8.34 8.34 0 0 0-8.337 8.338 8.34 8.34 0 0 0 8.337 8.337 8.34 8.34 0 0 0 8.337-8.337" class="C"/><use xlink:href="#B" x="-395.914" y="4.087" class="B"/><path d="M46.087 121.087A4.09 4.09 0 0 0 42 117a4.09 4.09 0 0 0-4.088 4.087A4.09 4.09 0 0 0 42 125.175a4.09 4.09 0 0 0 4.087-4.088" class="C"/><path d="M272.415 169.986c0-8.126-6.587-14.713-14.712-14.713S243 161.86 243 169.986s6.587 14.713 14.713 14.713 14.712-6.587 14.712-14.713" class="B"/><path d="M259.36 175.085a7.36 7.36 0 0 0-7.355-7.356 7.36 7.36 0 0 0-7.357 7.356 7.36 7.36 0 0 0 7.357 7.356c4.062 0 7.355-3.293 7.355-7.356" class="C"/><path d="M78.768 43.9c0-8.126-6.587-14.713-14.712-14.713S49.343 35.775 49.343 43.9s6.587 14.712 14.713 14.712S78.768 52.026 78.768 43.9" class="B"/><path d="M65.713 49a7.36 7.36 0 0 0-7.356-7.356A7.36 7.36 0 0 0 51 49a7.36 7.36 0 0 0 7.357 7.356A7.36 7.36 0 0 0 65.713 49" class="C"/><path d="M485.565 171.842c0-6.196-5.023-11.22-11.22-11.22s-11.22 5.024-11.22 11.22 5.023 11.22 11.22 11.22 11.22-5.024 11.22-11.22" class="B"/><path d="M475.608 175.73a5.61 5.61 0 1 0-11.22 0 5.61 5.61 0 1 0 11.22 0" class="C"/><path d="M131.22 86.72c0-7.024-5.695-12.72-12.72-12.72s-12.72 5.696-12.72 12.72 5.695 12.72 12.72 12.72 12.72-5.696 12.72-12.72" class="B"/><path d="M119.933 91.13a6.36 6.36 0 0 0-12.72 0 6.36 6.36 0 0 0 12.72 0" class="C"/></g></svg>