<svg xmlns="http://www.w3.org/2000/svg">
  <symbol id="ufollow" viewBox="0 0 412.699 96">
    <path d="M34.13 78.716h-.1c-9.56 0-17.472-7.785-17.504-17.446V33.908H0v27.358c.008 4.605.998 9.1 2.752 13.266a31.13 31.13 0 0 0 7.266 10.789c3.083 3.083 6.716 5.615 10.8 7.266 4.183 1.76 8.697 2.642 13.2 2.642H49.54V33.91h-15.4zM85.356 34.13v-.1c0-9.578 7.817-17.505 17.505-17.505V0c-4.624 0-9.138 1-13.32 2.752a31.13 31.13 0 0 0-10.789 7.266c-3.083 3.083-5.615 6.716-7.266 10.8-1.76 4.183-2.642 8.697-2.642 13.2v61.2h16.514V49.54h17.505v-15.4zM140.252 96c4.183 0 8.367-.88 12.22-2.422 3.743-1.65 7.156-3.853 10.018-6.716 2.862-2.972 5.064-6.275 6.716-10.018 1.65-3.853 2.422-8.037 2.422-12.22 0-4.294-.77-8.367-2.422-12.22-1.65-3.743-3.853-7.156-6.716-10.018-2.972-2.862-6.275-5.064-10.018-6.716-3.853-1.65-8.037-2.422-12.22-2.422s-8.367.77-12.22 2.422c-3.743 1.65-7.046 3.853-10.018 6.716-2.862 2.972-5.064 6.275-6.716 10.018-1.54 3.853-2.422 7.927-2.422 12.22 0 4.183.88 8.367 2.422 12.22 1.65 3.743 3.853 7.046 6.716 10.018 2.972 2.862 6.275 5.064 10.018 6.716 3.853 1.54 8.037 2.422 12.22 2.422zm0-46.24c8.147 0 14.862 6.716 14.862 14.862s-6.716 14.862-14.862 14.862S125.4 72.77 125.4 64.624s6.716-14.862 14.862-14.862zm47.128 45.47h16.624V6.495L187.38 12zm36.053 0h16.624V6.495L223.433 12zm63.465.77c4.183 0 8.367-.88 12.22-2.422 3.743-1.65 7.156-3.853 10.018-6.716 2.862-2.972 5.064-6.275 6.716-10.018 1.65-3.853 2.422-8.037 2.422-12.22 0-4.294-.77-8.367-2.422-12.22-1.65-3.743-3.853-7.156-6.716-10.018-2.972-2.862-6.275-5.064-10.018-6.716-3.853-1.65-8.037-2.422-12.22-2.422s-8.367.77-12.22 2.422c-3.743 1.65-7.046 3.853-10.018 6.716-2.862 2.972-5.064 6.275-6.716 10.018-1.54 3.853-2.422 7.927-2.422 12.22 0 4.183.88 8.367 2.422 12.22 1.65 3.743 3.853 7.046 6.716 10.018 2.972 2.862 6.275 5.064 10.018 6.716 3.853 1.54 8.037 2.422 12.22 2.422zm0-46.24c8.147 0 14.862 6.716 14.862 14.862s-6.716 14.862-14.862 14.862-14.862-6.716-14.862-14.862 6.716-14.862 14.862-14.862zm90.682 45.47h13.982L412.7 33.9h-17.395l-10.57 31.927L374.717 33.9h-13.32L351.6 65.837 340.92 33.9h-17.395l21.248 61.32h13.65L368 64.845z"/>
  </symbol>
</svg>
